SplineFontDB: 3.0
FontName: Veleka-Italic
FullName: Veleka Italic
FamilyName: Veleka
Weight: Normal
Copyright: Copyright \\(c\\) by Stefan Peev, Context Ltd, 2016, with Reserved Font Name "Veleka". Veleka is complete modification of Charis SIL. Copyright \\(c\\) by SIL International, 1997-2014 . All rights reserved.
Version: 001.001
ItalicAngle: -12
UnderlinePosition: -228
UnderlineWidth: 58
Ascent: 800
Descent: 200
InvalidEm: 0
sfntRevision: 0x00010000
LayerCount: 2
Layer: 0 0 "Back" 1
Layer: 1 0 "Fore" 0
XUID: [1021 1017 285194369 19974]
StyleMap: 0x0001
FSType: 0
OS2Version: 3
OS2_WeightWidthSlopeOnly: 0
OS2_UseTypoMetrics: 0
CreationTime: 1414127561
ModificationTime: 1468074784
PfmFamily: 17
TTFWeight: 400
TTFWidth: 5
LineGap: 27
VLineGap: 0
Panose: 2 0 5 3 7 0 0 9 0 4
OS2TypoAscent: 737
OS2TypoAOffset: 0
OS2TypoDescent: -218
OS2TypoDOffset: 0
OS2TypoLinegap: 54
OS2WinAscent: 980
OS2WinAOffset: 0
OS2WinDescent: 258
OS2WinDOffset: 0
HheadAscent: 980
HheadAOffset: 0
HheadDescent: -258
HheadDOffset: 0
OS2SubXSize: 650
OS2SubYSize: 600
OS2SubXOff: -15
OS2SubYOff: 75
OS2SupXSize: 650
OS2SupYSize: 600
OS2SupXOff: 68
OS2SupYOff: 350
OS2StrikeYSize: 50
OS2StrikeYPos: 250
OS2CapHeight: 671
OS2XHeight: 494
OS2Vendor: 'CNTX'
OS2CodePages: 20000197.00000000
OS2UnicodeRanges: a00002ff.5200e1ff.0a000021.00000000
Lookup: 1 0 0 "'aalt' Access All Alternates lookup 0" { "'aalt' Access All Alternates lookup 0 subtable"  } ['aalt' ('DFLT' <'dflt' > 'cyrl' <'BGR ' 'MKD ' 'RUS ' 'SRB ' 'UKR ' 'dflt' > 'latn' <'CAT ' 'IPPH' 'LTH ' 'MOL ' 'NLD ' 'ROM ' 'TRK ' 'VIT ' 'dflt' > ) ]
Lookup: 3 0 0 "'aalt' Access All Alternates lookup 1" { "'aalt' Access All Alternates lookup 1 subtable"  } ['aalt' ('DFLT' <'dflt' > 'cyrl' <'BGR ' 'MKD ' 'RUS ' 'SRB ' 'UKR ' 'dflt' > 'latn' <'CAT ' 'IPPH' 'LTH ' 'MOL ' 'NLD ' 'ROM ' 'TRK ' 'VIT ' 'dflt' > ) ]
Lookup: 1 0 0 "'locl' Localized Forms in Cyrillic lookup 2" { "'locl' Localized Forms in Cyrillic lookup 2 subtable"  } ['locl' ('cyrl' <'SRB ' > ) ]

StartChar: .notdef
Encoding: 1114112 -1 0
Width: 586
Flags: MW
HStem: 0 72<50 517 97 517 97 536> 510 20G<50 536 536 536>
LayerCount: 2
Fore
SplineSet
50 0 m 1
 50 530 l 1
 536 530 l 1
 536 0 l 1
 50 0 l 1
69 74 m 1
 118 181 190 273 271 355 c 1
 242 368 220 375 194 380 c 1
 139 286 102 188 69 74 c 1
348 313 m 1
 234 255 153 173 76 72 c 1
 180 145 288 209 416 255 c 1
 391 281 373 297 348 313 c 1
97 72 m 1
 517 72 l 1
 511 111 500 141 477 173 c 1
 343 155 195 115 97 72 c 1
EndSplineSet
EndChar

StartChar: exclam
Encoding: 33 33 2
Width: 337
Flags: MW
HStem: -9 21G<115.5 150> 673 21G
VStem: 66 130<33 66.5>
LayerCount: 2
Fore
SplineSet
297 632 m 1
 297 632 197 240 179 169 c 1
 116 169 l 1
 167 601 l 2
 174 652 192 683 247 683 c 0
 281 683 297 666 297 632 c 1
196 49 m 0
 196 17 170 -9 130 -9 c 0
 101 -9 66 11 66 49 c 0
 66 84 94 109 130 109 c 0
 165 109 196 85 196 49 c 0
EndSplineSet
EndChar

StartChar: quotedbl
Encoding: 34 34 3
Width: 331
Flags: MW
HStem: 422 292<100 185.5 100 185.5 151.5 292 151.5 260>
VStem: 100 276<422 688>
LayerCount: 2
Fore
SplineSet
376 676 m 0
 376 655 302 449 292 422 c 1
 260 422 l 1
 272 645 l 2
 275 685 289 714 334 714 c 0
 358 714 376 700 376 676 c 0
215 676 m 0
 215 655 142 449 132 422 c 1
 100 422 l 1
 113 645 l 2
 115 685 129 714 174 714 c 0
 197 714 215 700 215 676 c 0
EndSplineSet
EndChar

StartChar: numbersign
Encoding: 35 35 4
Width: 743
Flags: MW
HStem: -7 21G<339 339> -6 21G<138 138> 228 50<76 218 76 234 290 418 76 273 491 652> 421 51<122 283 122 300 122 338 355 483 556 696>
VStem: 76 620<228 421 278 421>
LayerCount: 2
Fore
SplineSet
696 421 m 1x78
 539 421 l 1
 491 278 l 1
 652 278 l 1
 652 228 l 1
 474 228 l 1
 389 -23 l 1
 339 -7 l 1xb8
 418 228 l 1
 273 228 l 1
 188 -23 l 1
 138 -6 l 1
 218 228 l 1
 76 228 l 1
 76 278 l 1
 234 278 l 1
 283 421 l 1
 122 421 l 1
 122 472 l 1
 300 472 l 1
 380 708 l 1
 431 692 l 1
 355 472 l 1
 501 472 l 1
 580 708 l 1
 632 692 l 1
 556 472 l 1
 696 472 l 1
 696 421 l 1x78
483 421 m 1
 338 421 l 1
 290 278 l 1
 435 278 l 1
 483 421 l 1
EndSplineSet
EndChar

StartChar: dollar
Encoding: 36 36 5
Width: 556
Flags: MW
HStem: 0 21G<186 186> 0 51<186 197> 623 48<364 375> 661 21G 733 21G
VStem: 100 100<475.5 527.5 475.5 528> 372 105<150 202.5>
LayerCount: 2
Fore
SplineSet
521 642 m 1x9e
 489 493 l 1
 430 493 l 1
 435 591 l 2
 435 595 428 604 424 606 c 0
 421 608 396 620 364 623 c 1
 317 375 l 1
 406 346 477 293 477 208 c 0
 477 53 312 6 245 1 c 1
 226 -102 l 1
 167 -102 l 1
 186 0 l 1
 115 4 67 18 14 44 c 1
 46 201 l 1
 113 201 l 1
 104 86 l 2
 104 81 108 78 111 77 c 0
 116 75 156 54 197 51 c 1x6e
 246 306 l 1
 162 342 100 393 100 471 c 0
 100 585 202 657 316 668 c 1
 330 743 l 1
 387 743 l 1
 375 671 l 1
 440 669 505 647 521 642 c 1x9e
306 619 m 1
 242 600 200 557 200 498 c 0
 200 453 223 423 264 402 c 1
 306 619 l 1
372 181 m 0
 372 224 350 258 301 281 c 1
 257 55 l 1
 331 73 372 119 372 181 c 0
EndSplineSet
EndChar

StartChar: percent
Encoding: 37 37 6
Width: 859
Flags: MW
HStem: -16 37<603 670.5 603 687> 0 21G 267 38<171 238.5 171 255> 366 38<650 717.5> 649 38<217.5 285.5> 661 21G
VStem: 67 72<373 424.5 373 465.5> 315 74<534 584.5> 500 72<90 141.5 90 182.5> 748 73<251 301.5>
LayerCount: 2
Fore
SplineSet
821 265 m 0xbbc0
 821 148 756 -16 618 -16 c 0
 533 -16 500 47 500 124 c 0
 500 241 565 404 703 404 c 0
 788 404 821 342 821 265 c 0xbbc0
755 671 m 1x77c0
 196 0 l 1
 133 0 l 1
 693 671 l 1
 755 671 l 1x77c0
389 548 m 0
 389 431 324 267 186 267 c 0
 101 267 67 330 67 407 c 0
 67 524 133 687 271 687 c 0xbbc0
 356 687 389 625 389 548 c 0
748 284 m 0
 748 319 740 366 695 366 c 0
 605 366 572 175 572 108 c 0
 572 72 580 21 626 21 c 0
 715 21 748 218 748 284 c 0
315 567 m 0
 315 602 308 649 263 649 c 0
 172 649 139 458 139 391 c 0
 139 355 148 305 194 305 c 0
 283 305 315 501 315 567 c 0
EndSplineSet
EndChar

StartChar: ampersand
Encoding: 38 38 7
Width: 704
Flags: MW
HStem: -11 63<209.5 237.5> -3 48 316 46<460 673 460 673> 635 49<309 357.5>
VStem: 12 106<144 204.5> 130 90<500 551> 408 98<505 566.5>
LayerCount: 2
Fore
SplineSet
673 316 m 1xba
 601 308 l 1
 573 249 528 183 477 129 c 1
 523 67 561 46 638 45 c 1
 638 1 l 1
 606 0 584 -2 565 -3 c 0
 544 -4 524 -4 506 0 c 0x7e
 473 6 446 23 410 67 c 1
 351 23 284 -11 191 -11 c 0
 91 -11 12 51 12 155 c 0xba
 12 254 89 319 184 367 c 1
 154 409 130 449 130 497 c 0xbe
 130 605 226 684 353 684 c 0
 462 684 506 618 506 552 c 0
 506 456 422 399 303 359 c 1
 444 173 l 1
 478 211 505 259 521 293 c 0
 522 296 512 307 511 307 c 2
 460 316 l 1
 460 362 l 1
 673 362 l 1
 673 316 l 1xba
408 543 m 0
 408 590 382 635 333 635 c 0
 285 635 220 599 220 524 c 0
 220 476 248 427 276 393 c 1
 354 424 408 467 408 543 c 0
377 107 m 1
 211 328 l 1
 154 291 118 245 118 184 c 0
 118 104 177 52 242 52 c 0xba
 289 52 325 69 377 107 c 1
EndSplineSet
EndChar

StartChar: quotesingle
Encoding: 39 39 8
Width: 169
Flags: MW
HStem: 422 292<100 189.5 100 189.5>
VStem: 100 120
LayerCount: 2
Fore
SplineSet
220 676 m 0
 220 655 143 449 133 422 c 1
 100 422 l 1
 113 645 l 2
 116 685 131 714 177 714 c 0
 202 714 220 700 220 676 c 0
EndSplineSet
EndChar

StartChar: parenleft
Encoding: 40 40 9
Width: 418
Flags: MW
HStem: -143 861<302 467>
VStem: 71 98<57.5 196 46 258.5>
LayerCount: 2
Fore
SplineSet
467 718 m 1
 458 672 l 1
 237 642 169 272 169 120 c 0
 169 -28 232 -80 311 -97 c 1
 302 -143 l 1
 167 -135 71 -24 71 139 c 0
 71 378 198 694 467 718 c 1
EndSplineSet
EndChar

StartChar: parenright
Encoding: 41 41 10
Width: 417
Flags: MW
HStem: 662 21G
VStem: 249 98<396 470.5 278.5 490>
LayerCount: 2
Fore
SplineSet
347 444 m 0
 347 113 175 -117 -48 -144 c 1
 -39 -96 l 1
 193 -65 249 332 249 460 c 0
 249 520 232 652 108 672 c 1
 117 718 l 1
 331 694 347 497 347 444 c 0
EndSplineSet
EndChar

StartChar: asterisk
Encoding: 42 42 11
Width: 500
Flags: MW
HStem: 482 21G
VStem: 117 393<570 570>
LayerCount: 2
Fore
SplineSet
510 570 m 1
 465 513 l 1
 336 506 l 1
 332 520 l 1
 439 591 l 1
 510 570 l 1
355 655 m 1
 320 530 l 1
 307 530 l 1
 272 655 l 1
 313 716 l 1
 355 655 l 1
435 337 m 1
 365 363 l 1
 319 483 l 1
 332 492 l 1
 433 411 l 1
 435 337 l 1
295 520 m 1
 292 506 l 1
 162 513 l 1
 117 570 l 1
 187 591 l 1
 295 520 l 1
308 483 m 1
 262 363 l 1
 192 337 l 1
 194 411 l 1
 295 492 l 1
 308 483 l 1
EndSplineSet
EndChar

StartChar: plus
Encoding: 43 43 12
Width: 1000
Flags: MW
HStem: 0 21G<469 531 469 469> 269 62<200 469 200 469 531 800>
VStem: 469 62<0 269 0 269 331 600>
LayerCount: 2
Fore
SplineSet
800 269 m 1
 531 269 l 1
 531 0 l 1
 469 0 l 1
 469 269 l 1
 200 269 l 1
 200 331 l 1
 469 331 l 1
 469 600 l 1
 531 600 l 1
 531 331 l 1
 800 331 l 1
 800 269 l 1
EndSplineSet
EndChar

StartChar: comma
Encoding: 44 44 13
Width: 279
Flags: MW
HStem: -170 292<-55 117.5> 7 115<73.5 90 27 117.5>
VStem: 17 142<33.5 59>
LayerCount: 2
Fore
SplineSet
159 47 m 0xa0
 159 -66 54 -160 -55 -170 c 1
 -48 -134 l 1
 34 -116 75 -75 90 7 c 1
 27 7 l 1
 20 16 17 28 17 39 c 0
 17 79 53 122 94 122 c 0x60
 141 122 159 90 159 47 c 0xa0
EndSplineSet
EndChar

StartChar: hyphen
Encoding: 45 45 14
Width: 318
Flags: MW
HStem: 207 68<43 270 30 283>
VStem: 30 253<207 275>
LayerCount: 2
Fore
SplineSet
283 275 m 1
 270 207 l 1
 30 207 l 1
 43 275 l 1
 283 275 l 1
EndSplineSet
EndChar

StartChar: period
Encoding: 46 46 15
Width: 279
Flags: MW
HStem: -12 21G<65.5 102.5>
VStem: 18 134<36.5 73.5>
LayerCount: 2
Fore
SplineSet
152 55 m 0
 152 18 121 -12 84 -12 c 0
 47 -12 18 18 18 55 c 0
 18 92 47 122 84 122 c 0
 121 122 152 92 152 55 c 0
EndSplineSet
EndChar

StartChar: slash
Encoding: 47 47 16
Width: 490
Flags: MW
HStem: 661 21G
VStem: 0 490
LayerCount: 2
Fore
SplineSet
490 671 m 1
 64 -93 l 1
 0 -93 l 1
 426 671 l 1
 490 671 l 1
EndSplineSet
EndChar

StartChar: zero
Encoding: 48 48 17
Width: 556
Flags: MW
HStem: -16 52<219.5 297 219.5 326.5> 636 51<287 375>
VStem: 34 109<137 285.5 123.5 313.5> 443 108<385 525.5 345 533.5>
LayerCount: 2
Fore
SplineSet
551 462 m 0
 551 228 425 -16 228 -16 c 0
 104 -16 34 66 34 208 c 0
 34 419 143 687 359 687 c 0
 491 687 551 589 551 462 c 0
443 479 m 0
 443 588 401 636 349 636 c 0
 225 636 143 379 143 192 c 0
 143 55 201 36 238 36 c 0
 356 36 443 291 443 479 c 0
EndSplineSet
EndChar

StartChar: one
Encoding: 49 49 18
Width: 556
Flags: MW
HStem: 0 49 677 21G
VStem: 84 339
LayerCount: 2
Fore
SplineSet
423 687 m 1
 304 72 l 2
 302 61 307 53 323 52 c 2
 398 47 l 1
 398 0 l 1
 84 0 l 1
 84 47 l 1
 185 52 l 2
 196 53 202 62 204 72 c 2
 306 595 l 1
 149 575 l 1
 149 620 l 1
 386 687 l 1
 423 687 l 1
EndSplineSet
EndChar

StartChar: two
Encoding: 50 50 19
Width: 556
Flags: MW
HStem: 0 83<116 396 116 459> 632 55<300 346.5>
VStem: 420 115<492.5 564>
LayerCount: 2
Fore
SplineSet
535 538 m 0
 535 447 468 357 382 281 c 0
 299 207 207 147 116 83 c 1
 396 83 l 1
 430 168 l 1
 490 168 l 1
 459 0 l 1
 -21 0 l 1
 -8 65 l 1
 281 271 420 380 420 526 c 0
 420 602 375 632 318 632 c 0
 282 632 250 616 235 609 c 1
 214 503 l 1
 207 498 189 485 158 485 c 0
 136 485 103 493 103 529 c 0
 103 603 216 687 350 687 c 0
 454 687 535 645 535 538 c 0
EndSplineSet
EndChar

StartChar: three
Encoding: 51 51 20
Width: 556
Flags: MW
HStem: -16 51<185.5 252.5 185.5 278.5> 322 55<210 289> 636 51<299.5 340.5>
VStem: 383 111<165.5 261> 422 113<509.5 571>
LayerCount: 2
Fore
SplineSet
535 545 m 0xe8
 535 474 478 397 351 358 c 1
 438 345 494 308 494 229 c 0
 494 102 364 -16 193 -16 c 0
 57 -16 8 50 8 94 c 0
 8 113 23 152 70 152 c 0
 87 152 102 148 114 143 c 1
 129 58 l 1
 138 52 167 35 204 35 c 0
 301 35 383 114 383 214 c 0xf0
 383 308 307 322 271 322 c 0
 246 322 224 319 201 315 c 1
 210 377 l 1
 338 371 422 440 422 532 c 0
 422 610 360 636 321 636 c 0
 278 636 245 615 232 605 c 1
 217 510 l 1
 208 507 180 497 162 497 c 0
 137 497 110 513 110 546 c 0
 110 626 234 687 354 687 c 0
 469 687 535 637 535 545 c 0xe8
EndSplineSet
EndChar

StartChar: four
Encoding: 52 52 21
Width: 556
Flags: MW
HStem: 202 69<133 323 431 509> 677 21G
VStem: 21 501<202 271>
LayerCount: 2
Fore
SplineSet
522 271 m 1
 509 202 l 1
 416 202 l 1
 372 -27 l 1
 278 -27 l 1
 323 202 l 1
 21 202 l 1
 34 269 l 1
 437 687 l 1
 511 687 l 1
 431 271 l 1
 522 271 l 1
390 536 m 1
 133 271 l 1
 337 271 l 1
 390 536 l 1
EndSplineSet
EndChar

StartChar: five
Encoding: 53 53 22
Width: 556
Flags: MW
HStem: -16 51<188 250.5 188 263> 351 60<203 345.5> 590 81<236 527 236 236>
VStem: 383 106<178 274>
LayerCount: 2
Fore
SplineSet
542 671 m 1
 527 590 l 1
 236 590 l 1
 197 396 l 1
 221 403 256 411 300 411 c 0
 391 411 489 371 489 250 c 0
 489 106 349 -16 177 -16 c 0
 71 -16 10 20 10 77 c 0
 10 109 33 138 77 138 c 0
 88 138 100 136 108 134 c 1
 135 49 l 1
 156 42 176 35 200 35 c 0
 301 35 383 125 383 224 c 0
 383 324 300 351 217 351 c 0
 189 351 136 345 109 342 c 1
 176 671 l 1
 542 671 l 1
EndSplineSet
EndChar

StartChar: six
Encoding: 54 54 23
Width: 556
Flags: MW
HStem: -16 50<205 293 205 322> 388 64<306 334.5>
VStem: 34 106<170 228 170 337> 413 106<193.5 288.5>
LayerCount: 2
Fore
SplineSet
519 271 m 0
 519 116 398 -16 246 -16 c 0
 152 -16 34 30 34 215 c 0
 34 459 217 686 506 717 c 1
 507 662 l 1
 334 643 212 534 175 401 c 1
 223 433 276 452 336 452 c 0
 443 452 519 384 519 271 c 0
413 245 m 0
 413 332 376 388 293 388 c 0
 253 388 213 376 160 336 c 1
 157 323 140 252 140 204 c 0
 140 136 159 34 251 34 c 0
 335 34 413 133 413 245 c 0
EndSplineSet
EndChar

StartChar: seven
Encoding: 55 55 24
Width: 556
Flags: MW
HStem: 590 81<190 481 190 190>
VStem: 36 568
LayerCount: 2
Fore
SplineSet
604 671 m 1
 596 628 l 1
 141 -14 l 1
 135 -37 l 1
 36 -37 l 1
 481 590 l 1
 190 590 l 1
 158 500 l 1
 94 500 l 1
 128 671 l 1
 604 671 l 1
EndSplineSet
EndChar

StartChar: eight
Encoding: 56 56 25
Width: 556
Flags: MW
HStem: -16 54<204.5 288.5 204.5 306> 639 48<300.5 368>
VStem: 15 100<131 180.5> 103 100<472.5 533> 398 107<147.5 213> 435 95<500.5 567.5>
LayerCount: 2
Fore
SplineSet
530 546 m 0xe4
 530 440 461 394 380 357 c 1
 432 334 505 291 505 209 c 0
 505 86 384 -16 228 -16 c 0
 91 -16 15 50 15 148 c 0xe8
 15 213 56 298 184 354 c 1
 116 390 103 438 103 478 c 0xd4
 103 588 196 687 347 687 c 0
 468 687 530 625 530 546 c 0xe4
435 537 m 0
 435 598 398 639 338 639 c 0
 263 639 203 576 203 500 c 0xd4
 203 445 253 411 331 378 c 1
 393 411 435 464 435 537 c 0
398 182 m 0xe8
 398 244 314 288 229 327 c 1
 164 292 115 239 115 166 c 0
 115 96 163 38 246 38 c 0
 331 38 398 110 398 182 c 0xe8
EndSplineSet
EndChar

StartChar: nine
Encoding: 57 57 26
Width: 556
Flags: MW
HStem: -8 21G<46 46> 228 60<266 274> 639 48<292 360>
VStem: 65 109<375.5 481.5 375.5 483> 451 106<456 542.5>
LayerCount: 2
Fore
SplineSet
557 478 m 0
 557 183 290 15 67 -55 c 1
 46 -8 l 1
 188 47 303 111 401 271 c 1
 357 249 301 228 247 228 c 0
 164 228 65 276 65 405 c 0
 65 561 190 687 353 687 c 0
 422 687 557 664 557 478 c 0
451 477 m 0
 451 608 384 639 336 639 c 0
 248 639 174 538 174 425 c 0
 174 326 240 288 292 288 c 0
 364 288 423 339 432 349 c 1
 439 390 451 435 451 477 c 0
EndSplineSet
EndChar

StartChar: colon
Encoding: 58 58 27
Width: 279
Flags: MW
HStem: -12 21G<65.5 102.5> 484 21G
VStem: 17 135<36.5 73.5> 90 135<408.5 445.5>
LayerCount: 2
Fore
SplineSet
225 427 m 0xd0
 225 390 194 360 157 360 c 0
 120 360 90 390 90 427 c 0
 90 464 120 494 157 494 c 0
 194 494 225 464 225 427 c 0xd0
152 55 m 0xe0
 152 18 121 -12 84 -12 c 0
 47 -12 17 18 17 55 c 0
 17 92 47 122 84 122 c 0
 121 122 152 92 152 55 c 0xe0
EndSplineSet
EndChar

StartChar: semicolon
Encoding: 59 59 28
Width: 279
Flags: MW
HStem: 7 115<74 90 27 117> 484 21G
VStem: 17 142<35.5 60.5> 90 135<408.5 445.5>
LayerCount: 2
Fore
SplineSet
225 427 m 0xd0
 225 390 194 360 157 360 c 0
 120 360 90 390 90 427 c 0
 90 464 120 494 157 494 c 0
 194 494 225 464 225 427 c 0xd0
159 48 m 0xe0
 159 -66 54 -160 -55 -170 c 1
 -48 -134 l 1
 34 -116 75 -76 90 7 c 1
 27 7 l 1
 20 16 17 30 17 41 c 0
 17 80 54 122 94 122 c 0
 140 122 159 90 159 48 c 0xe0
EndSplineSet
EndChar

StartChar: less
Encoding: 60 60 29
Width: 1000
Flags: MW
HStem: 39 522<800 800>
VStem: 200 600<39 331 39 331>
LayerCount: 2
Fore
SplineSet
800 39 m 1
 200 269 l 1
 200 331 l 1
 800 561 l 1
 800 499 l 1
 264 300 l 1
 800 101 l 1
 800 39 l 1
EndSplineSet
EndChar

StartChar: equal
Encoding: 61 61 30
Width: 1000
Flags: MW
HStem: 178 62<200 800 200 800> 360 62<200 800 200 800>
VStem: 200 600<178 240 178 240 360 422 178 422>
LayerCount: 2
Fore
SplineSet
800 360 m 1
 200 360 l 1
 200 422 l 1
 800 422 l 1
 800 360 l 1
800 178 m 1
 200 178 l 1
 200 240 l 1
 800 240 l 1
 800 178 l 1
EndSplineSet
EndChar

StartChar: greater
Encoding: 62 62 31
Width: 1000
Flags: MW
HStem: 39 522<200 200>
VStem: 200 600<39 269 101 269 269 561 269 561>
LayerCount: 2
Fore
SplineSet
800 269 m 1
 200 39 l 1
 200 101 l 1
 736 300 l 1
 200 499 l 1
 200 561 l 1
 800 331 l 1
 800 269 l 1
EndSplineSet
EndChar

StartChar: question
Encoding: 63 63 32
Width: 485
Flags: MW
HStem: -16 21G<142 183.5> -16 120<142 183.5> 637 50<250 282>
VStem: 354 109<477 567>
LayerCount: 2
Fore
SplineSet
463 543 m 0xb0
 463 409 344 333 235 288 c 1
 212 169 l 1
 145 169 l 1
 172 318 l 1
 263 347 354 421 354 533 c 0
 354 601 314 637 250 637 c 1
 189 538 l 1
 160 538 l 2
 126 538 105 553 105 579 c 0
 105 618 147 687 280 687 c 0
 398 687 463 632 463 543 c 0xb0
227 44 m 0
 227 13 204 -16 163 -16 c 0
 121 -16 96 12 96 43 c 0
 96 74 121 104 163 104 c 0x70
 204 104 227 75 227 44 c 0
EndSplineSet
EndChar

StartChar: at
Encoding: 64 64 33
Width: 936
Flags: MW
HStem: -153 50<393.5 538> 56 57<652 679> 57 64<427 430.5> 450 42<485.5 544.5 467 553> 478 21G 647 44<430 614.5>
VStem: 83 71<155 368.5 155 387> 282 92<193 290 193 296.5> 551 79 825 49<292.5 466>
LayerCount: 2
Fore
SplineSet
874 373 m 0xd7c0
 874 170 729 56 629 56 c 0xd7c0
 574 56 551 84 551 139 c 1
 499 87 454 57 407 57 c 0
 334 57 282 120 282 220 c 0
 282 373 404 492 530 492 c 0
 559 492 599 481 628 465 c 1xb7c0
 646 488 l 1
 703 488 l 1xcfc0
 698 472 634 191 634 191 c 2
 624 145 633 113 671 113 c 0
 730 113 825 213 825 372 c 0
 825 560 685 647 544 647 c 0
 316 647 154 480 154 257 c 0
 154 53 283 -103 504 -103 c 0
 621 -103 708 -63 769 -29 c 1
 783 -65 l 1
 693 -113 596 -153 480 -153 c 0
 266 -153 83 -4 83 239 c 0
 83 535 309 691 532 691 c 0
 730 691 874 579 874 373 c 0xd7c0
594 393 m 2
 598 410 571 450 535 450 c 0
 436 450 374 351 374 229 c 0
 374 157 402 121 452 121 c 0xb7c0
 497 121 533 160 554 186 c 1
 594 393 l 2
EndSplineSet
EndChar

StartChar: A
Encoding: 65 65 34
Width: 672
Flags: MW
HStem: 0 44 257 47<226 417 226 426 199 417> 677 21G
VStem: -53 679<0 42 0 42>
LayerCount: 2
Fore
SplineSet
626 0 m 1
 391 0 l 1
 391 42 l 1
 437 47 l 2
 452 49 458 55 456 66 c 2
 426 257 l 1
 199 257 l 1
 97 66 l 2
 90 53 97 49 116 47 c 2
 162 42 l 1
 162 0 l 1
 -53 0 l 1
 -53 42 l 1
 3 48 l 1
 372 687 l 1
 452 687 l 1
 560 66 l 2
 562 53 566 48 580 47 c 2
 626 42 l 1
 626 0 l 1
417 304 m 1
 374 564 l 1
 226 304 l 1
 417 304 l 1
EndSplineSet
Substitution2: "'c2sc' Capitals to Small Capitals in Latin lookup 17 subtable" a.sc
Substitution2: "'c2sc' Capitals to Small Capitals in Cyrillic lookup 16 subtable" a.sc
Substitution2: "'c2sc' Capitals to Small Capitals lookup 15 subtable" a.sc
EndChar

StartChar: B
Encoding: 66 66 35
Width: 606
Flags: MW
HStem: 0 45<217.5 259> 325 44<279.5 336.5 269.5 339> 626 44 628 43<316.5 369.5>
VStem: 445 109<161 255> 463 111<491.5 567.5>
LayerCount: 2
Fore
SplineSet
574 543 m 0xd4
 574 440 499 387 407 357 c 1
 494 345 554 311 554 224 c 0
 554 60 427 0 259 0 c 2
 -15 0 l 1
 -15 42 l 1
 48 47 l 2
 60 48 65 54 67 66 c 2
 171 604 l 2
 173 615 169 623 151 624 c 2
 95 629 l 1xe8
 95 671 l 1
 376 671 l 2
 521 671 574 620 574 543 c 0xd4
463 536 m 0
 463 599 412 628 327 628 c 0
 306 628 287 626 276 625 c 1
 227 371 l 1
 242 370 265 369 274 369 c 0
 399 369 463 446 463 536 c 0
445 214 m 0xd8
 445 296 386 325 292 325 c 0
 267 325 239 323 217 320 c 1
 164 48 l 1
 180 47 209 45 226 45 c 0
 369 45 445 108 445 214 c 0xd8
EndSplineSet
Substitution2: "'c2sc' Capitals to Small Capitals in Latin lookup 17 subtable" b.sc
Substitution2: "'c2sc' Capitals to Small Capitals in Cyrillic lookup 16 subtable" b.sc
Substitution2: "'c2sc' Capitals to Small Capitals lookup 15 subtable" b.sc
EndChar

StartChar: C
Encoding: 67 67 36
Width: 629
Flags: MW
HStem: -16 51<303 374.5> 636 51<378.5 479>
VStem: 48 106<196 371.5 180.5 373.5>
LayerCount: 2
Fore
SplineSet
644 647 m 1
 617 491 l 1
 558 491 l 1
 558 584 l 2
 558 594 549 608 540 611 c 0
 535 614 503 636 455 636 c 0
 302 636 154 487 154 256 c 0
 154 105 247 35 359 35 c 0
 402 35 429 50 434 52 c 0
 442 53 453 63 457 72 c 2
 500 186 l 1
 559 186 l 1
 532 24 l 1
 517 19 423 -16 326 -16 c 0
 127 -16 48 125 48 267 c 0
 48 480 212 687 450 687 c 0
 515 687 567 672 644 647 c 1
EndSplineSet
Substitution2: "'c2sc' Capitals to Small Capitals in Latin lookup 17 subtable" c.sc
Substitution2: "'c2sc' Capitals to Small Capitals in Cyrillic lookup 16 subtable" c.sc
Substitution2: "'c2sc' Capitals to Small Capitals lookup 15 subtable" c.sc
EndChar

StartChar: D
Encoding: 68 68 37
Width: 670
Flags: MW
HStem: 0 44 0 52<165 220> 621 50<275 311 275 275> 626 44
VStem: 545 108<329 507.5>
LayerCount: 2
Fore
SplineSet
653 415 m 0x68
 653 169 476 0 220 0 c 2
 -15 0 l 1x68
 -15 42 l 1
 47 47 l 2
 60 48 64 54 67 66 c 2
 171 604 l 2
 173 615 169 623 151 624 c 2
 95 629 l 1x98
 95 671 l 1
 334 671 l 2
 516 671 653 605 653 415 c 0x68
545 424 m 0
 545 591 435 617 311 621 c 1
 275 621 l 1
 165 52 l 1
 238 52 l 2
 440 54 545 234 545 424 c 0
EndSplineSet
Substitution2: "'c2sc' Capitals to Small Capitals in Latin lookup 17 subtable" d.sc
Substitution2: "'c2sc' Capitals to Small Capitals in Cyrillic lookup 16 subtable" d.sc
Substitution2: "'c2sc' Capitals to Small Capitals lookup 15 subtable" d.sc
EndChar

StartChar: E
Encoding: 69 69 38
Width: 558
Flags: MW
HStem: 0 44 0 50<166 401 401 408 166 485> 323 52<229 353 218 363> 621 50<275 467 275 275> 626 44
VStem: -15 595
LayerCount: 2
Fore
SplineSet
580 671 m 1x74
 550 521 l 1
 486 521 l 1
 486 602 l 2
 486 616 482 621 467 621 c 2
 275 621 l 1
 229 375 l 1
 363 375 l 2
 377 375 384 380 388 394 c 2
 407 461 l 1
 463 461 l 1
 419 232 l 1
 362 232 l 1
 372 303 l 2
 374 316 367 323 353 323 c 2
 218 323 l 1
 166 50 l 1
 401 50 l 2
 415 50 422 58 426 70 c 2
 457 166 l 1
 518 166 l 1
 485 0 l 1
 -15 0 l 1x74
 -15 42 l 1
 43 47 l 2
 56 48 65 54 67 66 c 2
 171 604 l 2
 173 615 169 623 152 624 c 2
 96 629 l 1xac
 96 671 l 1
 580 671 l 1x74
EndSplineSet
Substitution2: "'c2sc' Capitals to Small Capitals in Latin lookup 17 subtable" e.sc
Substitution2: "'c2sc' Capitals to Small Capitals in Cyrillic lookup 16 subtable" e.sc
Substitution2: "'c2sc' Capitals to Small Capitals lookup 15 subtable" e.sc
EndChar

StartChar: F
Encoding: 70 70 39
Width: 514
Flags: MW
HStem: 0 44 313 51<226 343 216 354> 621 50<275 454 275 275> 626 44
VStem: -15 584
LayerCount: 2
Fore
SplineSet
569 671 m 1xe8
 538 510 l 1
 474 510 l 1
 474 602 l 2
 474 616 469 621 454 621 c 2
 275 621 l 1xe8
 226 364 l 1
 354 364 l 2
 368 364 375 369 378 383 c 2
 397 451 l 1
 454 451 l 1
 410 223 l 1
 353 223 l 1
 363 293 l 2
 365 306 357 313 343 313 c 2
 216 313 l 1
 168 66 l 2
 166 56 170 48 187 47 c 2
 252 42 l 1
 252 0 l 1
 -15 0 l 1
 -15 42 l 1
 42 47 l 2
 55 48 64 54 67 66 c 2
 171 604 l 2
 173 615 169 623 151 624 c 2
 95 629 l 1xd8
 95 671 l 1
 569 671 l 1xe8
EndSplineSet
Substitution2: "'c2sc' Capitals to Small Capitals in Latin lookup 17 subtable" f.sc
Substitution2: "'c2sc' Capitals to Small Capitals in Cyrillic lookup 16 subtable" f.sc
Substitution2: "'c2sc' Capitals to Small Capitals lookup 15 subtable" f.sc
EndChar

StartChar: G
Encoding: 71 71 40
Width: 687
Flags: MW
HStem: -16 53<316 372 316 373.5> 279 44 633 54<392 491>
VStem: 48 110<212 367.5 171.5 396>
LayerCount: 2
Fore
SplineSet
675 282 m 1
 618 277 l 2
 605 276 596 271 593 258 c 2
 548 23 l 1
 528 18 415 -16 332 -16 c 0
 104 -16 48 156 48 268 c 0
 48 524 264 687 479 687 c 0
 544 687 588 677 665 653 c 1
 634 492 l 1
 566 492 l 1
 569 584 l 2
 570 599 562 609 550 612 c 0
 545 614 515 633 467 633 c 0
 317 633 158 483 158 252 c 0
 158 91 280 37 352 37 c 0
 392 37 437 50 453 54 c 1
 492 258 l 2
 494 269 490 276 472 277 c 2
 417 282 l 1
 417 324 l 1
 675 324 l 1
 675 282 l 1
EndSplineSet
Substitution2: "'c2sc' Capitals to Small Capitals in Latin lookup 17 subtable" g.sc
Substitution2: "'c2sc' Capitals to Small Capitals in Cyrillic lookup 16 subtable" g.sc
Substitution2: "'c2sc' Capitals to Small Capitals lookup 15 subtable" g.sc
EndChar

StartChar: H
Encoding: 72 72 41
Width: 725
Flags: MW
HStem: 0 44 326 50<228 530 218 540> 626 44
VStem: -15 782<0 629 42 629>
LayerCount: 2
Fore
SplineSet
767 629 m 1
 709 624 l 2
 697 623 688 617 685 604 c 2
 581 66 l 2
 579 56 583 48 601 47 c 2
 657 42 l 1
 657 0 l 1
 396 0 l 1
 396 42 l 1
 456 47 l 2
 468 48 478 54 480 66 c 2
 530 326 l 1
 218 326 l 1
 168 66 l 2
 166 56 170 48 187 47 c 2
 245 42 l 1
 245 0 l 1
 -15 0 l 1
 -15 42 l 1
 42 47 l 2
 55 48 64 54 67 66 c 2
 171 604 l 2
 173 615 169 623 151 624 c 2
 95 629 l 1
 95 671 l 1
 355 671 l 1
 355 629 l 1
 296 624 l 2
 284 623 274 617 272 604 c 2
 228 376 l 1
 540 376 l 1
 584 604 l 2
 586 615 582 623 564 624 c 2
 507 629 l 1
 507 671 l 1
 767 671 l 1
 767 629 l 1
EndSplineSet
Substitution2: "'c2sc' Capitals to Small Capitals in Latin lookup 17 subtable" h.sc
Substitution2: "'c2sc' Capitals to Small Capitals in Cyrillic lookup 16 subtable" h.sc
Substitution2: "'c2sc' Capitals to Small Capitals lookup 15 subtable" h.sc
EndChar

StartChar: I
Encoding: 73 73 42
Width: 313
Flags: MW
HStem: 0 44 626 44
VStem: -15 371
LayerCount: 2
Fore
SplineSet
356 629 m 1
 292 624 l 2
 279 623 275 617 272 604 c 2
 168 66 l 2
 166 56 170 48 188 47 c 2
 246 42 l 1
 246 0 l 1
 -15 0 l 1
 -15 42 l 1
 48 47 l 2
 60 48 65 54 67 66 c 2
 171 604 l 2
 173 615 169 623 152 624 c 2
 96 629 l 1
 96 671 l 1
 356 671 l 1
 356 629 l 1
EndSplineSet
Substitution2: "'c2sc' Capitals to Small Capitals in Latin lookup 17 subtable" i.sc
Substitution2: "'c2sc' Capitals to Small Capitals in Cyrillic lookup 16 subtable" i.sc
Substitution2: "'c2sc' Capitals to Small Capitals lookup 15 subtable" i.sc
EndChar

StartChar: J
Encoding: 74 74 43
Width: 467
Flags: MW
HStem: -16 52<108.5 161.5 108.5 197.5> 626 44
VStem: -20 527
LayerCount: 2
Fore
SplineSet
507 629 m 1
 450 624 l 2
 437 623 428 617 425 604 c 2
 361 256 l 2
 331 91 283 -16 112 -16 c 0
 33 -16 -10 9 -20 14 c 1
 13 185 l 1
 79 185 l 1
 79 63 l 2
 79 46 98 36 119 36 c 0
 204 36 234 113 258 247 c 2
 324 604 l 2
 326 615 322 623 305 624 c 2
 247 629 l 1
 247 671 l 1
 507 671 l 1
 507 629 l 1
EndSplineSet
Substitution2: "'c2sc' Capitals to Small Capitals in Latin lookup 17 subtable" j.sc
Substitution2: "'c2sc' Capitals to Small Capitals in Cyrillic lookup 16 subtable" j.sc
Substitution2: "'c2sc' Capitals to Small Capitals lookup 15 subtable" j.sc
EndChar

StartChar: K
Encoding: 75 75 44
Width: 655
Flags: MW
HStem: -16 21G<483 525> 0 44 295 47<221 238 221 273 212 238> 625 46 626 44
VStem: -16 708<0 629 42 629>
LayerCount: 2
Fore
SplineSet
692 629 m 1xac
 608 621 l 1
 346 368 l 1
 485 99 l 2
 510 50 529 40 564 40 c 0
 576 40 590 41 606 42 c 1
 606 0 l 1x6c
 575 -9 538 -16 512 -16 c 0xac
 454 -16 427 0 396 58 c 2
 273 295 l 1
 212 295 l 1
 167 66 l 2
 165 56 170 48 187 47 c 2
 245 42 l 1
 245 0 l 1
 -16 0 l 1
 -16 42 l 1
 42 47 l 2
 55 48 64 54 66 66 c 2
 171 604 l 2
 173 615 169 623 152 624 c 2
 96 629 l 1
 96 671 l 1
 356 671 l 1
 356 629 l 1
 297 624 l 2
 284 623 275 617 272 604 c 2
 221 342 l 1
 238 342 l 1
 504 604 l 2
 512 612 511 623 497 624 c 2
 433 629 l 1
 433 671 l 1
 692 671 l 1x74
 692 629 l 1xac
EndSplineSet
Substitution2: "'c2sc' Capitals to Small Capitals in Latin lookup 17 subtable" k.sc
Substitution2: "'c2sc' Capitals to Small Capitals in Cyrillic lookup 16 subtable" k.sc
Substitution2: "'c2sc' Capitals to Small Capitals lookup 15 subtable" k.sc
EndChar

StartChar: L
Encoding: 76 76 45
Width: 518
Flags: MW
HStem: 0 44 0 50<166 363 363 369.5 166 447> 626 44
VStem: -15 498<0 185 42 185>
LayerCount: 2
Fore
SplineSet
483 185 m 1x70
 447 0 l 1
 -15 0 l 1x70
 -15 42 l 1
 43 47 l 2
 56 48 65 54 67 66 c 2xb0
 171 604 l 2
 173 615 169 623 152 624 c 2
 96 629 l 1
 96 671 l 1
 356 671 l 1
 356 629 l 1
 297 624 l 2
 282 623 274 614 272 604 c 2
 166 50 l 1
 363 50 l 2
 376 50 384 58 388 70 c 2
 424 185 l 1
 483 185 l 1x70
EndSplineSet
Substitution2: "'c2sc' Capitals to Small Capitals in Latin lookup 17 subtable" l.sc
Substitution2: "'c2sc' Capitals to Small Capitals in Cyrillic lookup 16 subtable" l.sc
Substitution2: "'c2sc' Capitals to Small Capitals lookup 15 subtable" l.sc
EndChar

StartChar: M
Encoding: 77 77 46
Width: 861
Flags: MW
HStem: 0 44 626 44
VStem: -14 917<0 629 42 629>
LayerCount: 2
Fore
SplineSet
903 629 m 1
 846 624 l 2
 833 623 824 617 821 604 c 2
 718 66 l 2
 716 56 720 48 738 47 c 2
 794 42 l 1
 794 0 l 1
 534 0 l 1
 534 42 l 1
 593 47 l 2
 605 48 615 54 617 66 c 2
 714 573 l 1
 393 0 l 1
 333 0 l 1
 233 568 l 1
 140 66 l 2
 138 56 142 48 159 47 c 2
 215 42 l 1
 215 0 l 1
 -14 0 l 1
 -14 42 l 1
 43 47 l 2
 56 48 65 54 68 66 c 2
 171 604 l 2
 173 615 169 623 151 624 c 2
 95 629 l 1
 95 671 l 1
 319 671 l 1
 319 643 l 1
 405 159 l 1
 672 638 l 1
 672 671 l 1
 903 671 l 1
 903 629 l 1
EndSplineSet
Substitution2: "'c2sc' Capitals to Small Capitals in Latin lookup 17 subtable" m.sc
Substitution2: "'c2sc' Capitals to Small Capitals in Cyrillic lookup 16 subtable" m.sc
Substitution2: "'c2sc' Capitals to Small Capitals lookup 15 subtable" m.sc
EndChar

StartChar: N
Encoding: 78 78 47
Width: 710
Flags: MW
HStem: 0 44 626 44
VStem: -14 769<0 629 42 629>
LayerCount: 2
Fore
SplineSet
755 629 m 1
 698 624 l 2
 685 623 676 617 673 604 c 2
 555 0 l 1
 483 0 l 1
 231 531 l 1
 142 66 l 2
 140 56 144 48 162 47 c 2
 218 42 l 1
 218 0 l 1
 -14 0 l 1
 -14 42 l 1
 43 47 l 2
 56 48 65 54 68 66 c 2
 171 604 l 2
 173 615 169 623 152 624 c 2
 96 629 l 1
 96 671 l 1
 289 671 l 1
 289 645 l 1
 514 168 l 1
 599 604 l 2
 601 615 597 623 580 624 c 2
 523 629 l 1
 523 671 l 1
 755 671 l 1
 755 629 l 1
EndSplineSet
Substitution2: "'c2sc' Capitals to Small Capitals in Latin lookup 17 subtable" n.sc
Substitution2: "'c2sc' Capitals to Small Capitals in Cyrillic lookup 16 subtable" n.sc
Substitution2: "'c2sc' Capitals to Small Capitals lookup 15 subtable" n.sc
EndChar

StartChar: O
Encoding: 79 79 48
Width: 709
Flags: MW
HStem: -16 52<280.5 400 280.5 437.5> 637 50<338 459>
VStem: 48 113<186.5 342.5 186.5 369.5> 577 114<332 483.5>
LayerCount: 2
Fore
SplineSet
691 417 m 0
 691 206 555 -16 320 -16 c 0
 160 -16 48 94 48 262 c 0
 48 477 200 687 420 687 c 0
 586 687 691 566 691 417 c 0
577 417 m 0
 577 550 507 637 411 637 c 0
 265 637 161 431 161 254 c 0
 161 119 234 36 327 36 c 0
 473 36 577 247 577 417 c 0
EndSplineSet
Substitution2: "'c2sc' Capitals to Small Capitals in Latin lookup 17 subtable" o.sc
Substitution2: "'c2sc' Capitals to Small Capitals in Cyrillic lookup 16 subtable" o.sc
Substitution2: "'c2sc' Capitals to Small Capitals lookup 15 subtable" o.sc
EndChar

StartChar: P
Encoding: 80 80 49
Width: 565
Flags: MW
HStem: 0 44 250 53 624 47<150 150 306 343 343 369.5> 626 44
VStem: 467 104<455 532.5>
LayerCount: 2
Fore
SplineSet
571 511 m 0xe8
 571 350 441 250 266 250 c 0
 246 250 203 252 203 252 c 1
 166 66 l 2
 164 56 168 48 186 47 c 2
 243 42 l 1
 243 0 l 1
 -17 0 l 1
 -17 42 l 1
 41 47 l 2
 53 48 62 54 65 66 c 2
 170 604 l 2
 172 615 168 623 150 624 c 2
 94 629 l 1xd8
 94 671 l 1
 343 671 l 2
 507 671 571 604 571 511 c 0xe8
467 494 m 0
 467 571 427 624 312 624 c 0
 300 624 284 623 274 622 c 1
 212 304 l 1
 270 299 332 307 379 336 c 0
 429 366 467 416 467 494 c 0
EndSplineSet
Substitution2: "'c2sc' Capitals to Small Capitals in Latin lookup 17 subtable" p.sc
Substitution2: "'c2sc' Capitals to Small Capitals in Cyrillic lookup 16 subtable" p.sc
Substitution2: "'c2sc' Capitals to Small Capitals lookup 15 subtable" p.sc
EndChar

StartChar: Q
Encoding: 81 81 50
Width: 709
Flags: MW
HStem: -160 58<574 588> -16 53<274 325> 636 51<341.5 464>
VStem: 46 112<191.5 347.5 191.5 362.5> 577 113<364 481>
LayerCount: 2
Fore
SplineSet
722 -111 m 1
 707 -119 623 -160 553 -160 c 0
 450 -160 404 -96 367 -12 c 1
 352 -13 333 -16 317 -16 c 0
 170 -16 46 84 46 259 c 0
 46 466 199 687 421 687 c 0
 584 687 690 571 690 418 c 0
 690 310 656 126 471 20 c 1
 511 -54 541 -102 607 -102 c 0
 646 -102 691 -83 722 -69 c 1
 722 -111 l 1
577 418 m 0
 577 544 512 636 416 636 c 0
 267 636 158 441 158 254 c 0
 158 129 222 37 326 37 c 0
 469 37 577 244 577 418 c 0
EndSplineSet
Substitution2: "'c2sc' Capitals to Small Capitals in Latin lookup 17 subtable" q.sc
Substitution2: "'c2sc' Capitals to Small Capitals in Cyrillic lookup 16 subtable" q.sc
Substitution2: "'c2sc' Capitals to Small Capitals lookup 15 subtable" q.sc
EndChar

StartChar: R
Encoding: 82 82 51
Width: 641
Flags: MW
HStem: -16 57<481.5 615> 0 44 296 51<256.5 300> 621 50<294.5 297>
VStem: 468 113<469 557.5>
LayerCount: 2
Fore
SplineSet
615 0 m 1x78
 588 -12 565 -16 542 -16 c 0xb8
 421 -16 404 71 389 145 c 0
 373 219 359 296 265 296 c 0
 248 296 213 295 213 295 c 1
 170 66 l 2
 168 56 172 48 189 47 c 2
 247 42 l 1
 247 0 l 1
 -13 0 l 1x78
 -13 42 l 1
 44 47 l 2
 57 48 66 54 69 66 c 2
 171 604 l 2
 173 615 169 623 152 624 c 2
 96 629 l 1
 96 671 l 1
 364 671 l 2
 475 671 581 638 581 523 c 0
 581 415 489 348 377 317 c 1
 459 282 468 230 487 154 c 0
 506 79 530 41 615 41 c 1xb8
 615 0 l 1x78
468 509 m 0
 468 606 374 624 297 621 c 0
 292 621 281 620 275 620 c 1
 224 347 l 1
 246 347 l 2
 354 347 468 382 468 509 c 0
EndSplineSet
Substitution2: "'c2sc' Capitals to Small Capitals in Latin lookup 17 subtable" r.sc
Substitution2: "'c2sc' Capitals to Small Capitals in Cyrillic lookup 16 subtable" r.sc
Substitution2: "'c2sc' Capitals to Small Capitals lookup 15 subtable" r.sc
EndChar

StartChar: S
Encoding: 83 83 52
Width: 520
Flags: MW
HStem: -16 52<194.5 244> 638 49<297.5 360>
VStem: 84 102<465 534.5> 363 104<157 216>
LayerCount: 2
Fore
SplineSet
513 651 m 1
 481 498 l 1
 422 498 l 1
 426 599 l 2
 426 612 384 638 336 638 c 0
 259 638 186 580 186 501 c 0
 186 429 274 395 327 369 c 0
 398 333 467 292 467 205 c 0
 467 109 392 -16 188 -16 c 0
 85 -16 10 28 -5 36 c 1
 29 197 l 1
 97 197 l 1
 86 82 l 2
 84 58 188 36 201 36 c 0
 287 36 363 91 363 182 c 0
 363 250 272 286 222 312 c 0
 152 348 84 388 84 468 c 0
 84 601 195 687 344 687 c 0
 434 687 500 657 513 651 c 1
EndSplineSet
Substitution2: "'c2sc' Capitals to Small Capitals in Latin lookup 17 subtable" s.sc
Substitution2: "'c2sc' Capitals to Small Capitals in Cyrillic lookup 16 subtable" s.sc
Substitution2: "'c2sc' Capitals to Small Capitals lookup 15 subtable" s.sc
EndChar

StartChar: T
Encoding: 84 84 53
Width: 585
Flags: MW
HStem: 0 44 626 45<179 185 185 310 411 540 411 411>
VStem: 66 583<518 671>
LayerCount: 2
Fore
SplineSet
649 671 m 1
 618 518 l 1
 555 518 l 1
 559 606 l 2
 560 620 554 626 540 626 c 2
 411 626 l 1
 307 66 l 2
 305 56 309 48 327 47 c 2
 384 42 l 1
 384 0 l 1
 124 0 l 1
 124 42 l 1
 182 47 l 2
 194 48 204 54 206 66 c 2
 310 626 l 1
 185 626 l 2
 173 626 164 619 160 606 c 2
 129 518 l 1
 66 518 l 1
 95 671 l 1
 649 671 l 1
EndSplineSet
Substitution2: "'c2sc' Capitals to Small Capitals in Latin lookup 17 subtable" t.sc
Substitution2: "'c2sc' Capitals to Small Capitals in Cyrillic lookup 16 subtable" t.sc
Substitution2: "'c2sc' Capitals to Small Capitals lookup 15 subtable" t.sc
EndChar

StartChar: U
Encoding: 85 85 54
Width: 707
Flags: MW
HStem: -16 65<294 390.5> 626 44
VStem: 92 104<133 169>
LayerCount: 2
Fore
SplineSet
749 629 m 1
 691 624 l 2
 679 623 669 617 667 604 c 2
 590 214 l 2
 562 69 470 -16 311 -16 c 0
 188 -16 92 32 92 159 c 0
 92 179 96 218 105 264 c 2
 175 604 l 2
 177 615 173 623 155 624 c 2
 99 629 l 1
 99 671 l 1
 359 671 l 1
 359 629 l 1
 300 624 l 2
 288 623 278 617 276 604 c 2
 207 264 l 2
 199 225 196 193 196 175 c 0
 196 91 251 49 337 49 c 0
 467 49 508 142 529 249 c 2
 599 604 l 2
 601 615 597 623 579 624 c 2
 523 629 l 1
 523 671 l 1
 749 671 l 1
 749 629 l 1
EndSplineSet
Substitution2: "'c2sc' Capitals to Small Capitals in Latin lookup 17 subtable" u.sc
Substitution2: "'c2sc' Capitals to Small Capitals in Cyrillic lookup 16 subtable" u.sc
Substitution2: "'c2sc' Capitals to Small Capitals lookup 15 subtable" u.sc
EndChar

StartChar: V
Encoding: 86 86 55
Width: 643
Flags: MW
HStem: -16 21G<242 318 242 242> 626 45 628 43
VStem: 579 137
LayerCount: 2
Fore
SplineSet
716 629 m 1xd0
 663 623 l 1xd0
 318 -16 l 1
 242 -16 l 1
 145 607 l 2
 143 620 134 626 121 627 c 2
 83 629 l 1
 83 671 l 1
 310 671 l 1
 310 629 l 1
 267 627 l 2
 252 626 245 621 247 607 c 2
 322 123 l 1
 576 607 l 2
 581 617 580 626 561 627 c 2
 512 629 l 1
 512 671 l 1
 716 671 l 1xb0
 716 629 l 1xd0
EndSplineSet
Substitution2: "'c2sc' Capitals to Small Capitals in Latin lookup 17 subtable" v.sc
Substitution2: "'c2sc' Capitals to Small Capitals in Cyrillic lookup 16 subtable" v.sc
Substitution2: "'c2sc' Capitals to Small Capitals lookup 15 subtable" v.sc
EndChar

StartChar: W
Encoding: 87 87 56
Width: 926
Flags: MW
HStem: -16 21G<199 269 199 199 577 641 577 577> 626 45 628 43
VStem: 857 143
LayerCount: 2
Fore
SplineSet
1000 629 m 1xd0
 941 623 l 1xd0
 641 -16 l 1
 577 -16 l 1
 519 518 l 1
 269 -16 l 1
 199 -16 l 1
 149 607 l 2
 148 620 142 626 125 627 c 2
 83 629 l 1
 83 671 l 1
 314 671 l 1
 314 629 l 1
 270 627 l 2
 255 626 250 619 250 607 c 2
 285 173 l 1
 520 671 l 1
 601 671 l 1
 652 166 l 1
 855 607 l 2
 861 619 854 626 836 627 c 2
 791 629 l 1
 791 671 l 1
 1000 671 l 1xb0
 1000 629 l 1xd0
EndSplineSet
Substitution2: "'c2sc' Capitals to Small Capitals in Latin lookup 17 subtable" w.sc
Substitution2: "'c2sc' Capitals to Small Capitals in Cyrillic lookup 16 subtable" w.sc
Substitution2: "'c2sc' Capitals to Small Capitals lookup 15 subtable" w.sc
EndChar

StartChar: X
Encoding: 88 88 57
Width: 632
Flags: MW
HStem: 0 44 627 44
VStem: -44 722<0 629 42 629>
LayerCount: 2
Fore
SplineSet
678 629 m 1
 618 625 l 2
 608 624 598 615 594 610 c 2
 374 360 l 1
 505 61 l 2
 511 49 518 47 525 46 c 2
 579 42 l 1
 579 0 l 1
 321 0 l 1
 321 42 l 1
 385 46 l 2
 396 47 404 56 399 66 c 2
 309 276 l 1
 120 66 l 2
 112 58 112 47 129 46 c 2
 189 42 l 1
 189 0 l 1
 -44 0 l 1
 -44 42 l 1
 4 46 l 2
 15 47 24 56 28 61 c 2
 277 340 l 1
 157 610 l 2
 152 622 145 624 138 625 c 2
 83 629 l 1
 83 671 l 1
 343 671 l 1
 343 629 l 1
 278 625 l 2
 267 624 259 615 263 605 c 2
 345 418 l 1
 509 605 l 2
 516 613 517 624 500 625 c 2
 452 629 l 1
 452 671 l 1
 678 671 l 1
 678 629 l 1
EndSplineSet
Substitution2: "'c2sc' Capitals to Small Capitals in Latin lookup 17 subtable" x.sc
Substitution2: "'c2sc' Capitals to Small Capitals in Cyrillic lookup 16 subtable" x.sc
Substitution2: "'c2sc' Capitals to Small Capitals lookup 15 subtable" x.sc
EndChar

StartChar: Y
Encoding: 89 89 58
Width: 639
Flags: MW
HStem: 0 44 627 44
VStem: 84 627<629 671 629 671>
LayerCount: 2
Fore
SplineSet
711 629 m 1
 655 625 l 2
 645 624 634 615 629 610 c 2
 375 281 l 1
 333 66 l 2
 330 56 335 48 352 47 c 2
 408 42 l 1
 408 0 l 1
 148 0 l 1
 148 42 l 1
 206 47 l 2
 218 48 227 54 230 66 c 2
 271 272 l 1
 159 610 l 2
 155 623 147 624 140 625 c 2
 84 629 l 1
 84 671 l 1
 343 671 l 1
 343 629 l 1
 279 625 l 2
 268 624 261 616 265 605 c 2
 347 345 l 1
 540 605 l 2
 546 614 549 624 532 625 c 2
 470 629 l 1
 470 671 l 1
 711 671 l 1
 711 629 l 1
EndSplineSet
Substitution2: "'c2sc' Capitals to Small Capitals in Latin lookup 17 subtable" y.sc
Substitution2: "'c2sc' Capitals to Small Capitals in Cyrillic lookup 16 subtable" y.sc
Substitution2: "'c2sc' Capitals to Small Capitals lookup 15 subtable" y.sc
EndChar

StartChar: Z
Encoding: 90 90 59
Width: 562
Flags: MW
HStem: 0 53<115 387 387 394 115 475> 619 52<217 224 224 458>
VStem: -20 615
LayerCount: 2
Fore
SplineSet
595 671 m 1
 586 626 l 1
 115 53 l 1
 387 53 l 2
 401 53 408 59 412 73 c 2
 442 185 l 1
 510 185 l 1
 475 0 l 1
 -20 0 l 1
 -11 44 l 1
 458 619 l 1
 224 619 l 2
 210 619 204 613 200 600 c 2
 173 512 l 1
 104 512 l 1
 136 671 l 1
 595 671 l 1
EndSplineSet
Substitution2: "'c2sc' Capitals to Small Capitals in Latin lookup 17 subtable" z.sc
Substitution2: "'c2sc' Capitals to Small Capitals in Cyrillic lookup 16 subtable" z.sc
Substitution2: "'c2sc' Capitals to Small Capitals lookup 15 subtable" z.sc
EndChar

StartChar: bracketleft
Encoding: 91 91 60
Width: 420
Flags: MW
HStem: -132 47<159 312 159 312> 661 47<308 471 308 308>
VStem: 222 90
LayerCount: 2
Fore
SplineSet
471 661 m 1
 308 661 l 1
 159 -85 l 1
 312 -85 l 1
 312 -132 l 1
 54 -132 l 1
 222 708 l 1
 471 708 l 1
 471 661 l 1
EndSplineSet
EndChar

StartChar: backslash
Encoding: 92 92 61
Width: 488
Flags: MW
HStem: 661 21G
VStem: 0 489
LayerCount: 2
Fore
SplineSet
489 -93 m 1
 425 -93 l 1
 0 671 l 1
 64 671 l 1
 489 -93 l 1
EndSplineSet
EndChar

StartChar: bracketright
Encoding: 93 93 62
Width: 420
Flags: MW
HStem: -132 48<-41 123 -41 208 -41 123> 662 46<118 271 118 376>
VStem: 118 90
LayerCount: 2
Fore
SplineSet
376 708 m 1
 208 -132 l 1
 -41 -132 l 1
 -41 -84 l 1
 123 -84 l 1
 271 662 l 1
 118 662 l 1
 118 708 l 1
 376 708 l 1
EndSplineSet
EndChar

StartChar: asciicircum
Encoding: 94 94 63
Width: 342
Flags: MW
HStem: 551 169<58 302 58 302 223 400 223 330>
VStem: 58 342<551 551>
LayerCount: 2
Fore
SplineSet
400 551 m 1
 330 551 l 1
 248 643 l 1
 128 551 l 1
 58 551 l 1
 223 720 l 1
 302 720 l 1
 400 551 l 1
EndSplineSet
EndChar

StartChar: underscore
Encoding: 95 95 64
Width: 303
Flags: MW
HStem: -154 66<-64 226 -78 238>
VStem: -78 316<-154 -88>
LayerCount: 2
Fore
SplineSet
238 -88 m 1
 226 -154 l 1
 -78 -154 l 1
 -64 -88 l 1
 238 -88 l 1
EndSplineSet
EndChar

StartChar: grave
Encoding: 96 96 65
Width: 393
Flags: MW
HStem: 551 181<116.5 319 116.5 257>
VStem: 89 230<551 698>
LayerCount: 2
Fore
SplineSet
319 551 m 1
 257 551 l 1
 112 646 l 2
 98 655 89 668 89 688 c 0
 89 708 99 732 134 732 c 0
 162 732 173 721 185 707 c 2
 319 551 l 1
EndSplineSet
EndChar

StartChar: a
Encoding: 97 97 66
Width: 520
Flags: MW
HStem: -12 59<364 459> -12 66<177 207> 446 48<257.5 338.5 226.5 340> 472 21G
VStem: 32 99<145 228 145 244.5> 319 90<75.5 116>
LayerCount: 2
Fore
SplineSet
518 27 m 1x68
 502 20 427 -12 388 -12 c 0
 340 -12 323 12 319 56 c 1
 289 28 237 -12 177 -12 c 0
 59 -12 32 95 32 167 c 0
 32 322 133 494 320 494 c 0
 357 494 392 476 410 458 c 1x6c
 425 482 l 1
 493 482 l 1
 487 467 476 435 474 425 c 0
 460 372 409 137 409 93 c 0
 409 58 425 47 452 47 c 0
 466 47 508 61 518 63 c 1x9c
 518 27 l 1x68
371 392 m 2
 372 399 346 446 334 446 c 0
 181 446 131 283 131 173 c 0
 131 117 146 54 208 54 c 0
 255 54 305 102 319 116 c 1
 371 392 l 2
EndSplineSet
Substitution2: "'ss05' Style Set 5 in Latin lookup 41 subtable" a.2StorySItal
Substitution2: "'ss05' Style Set 5 in Cyrillic lookup 40 subtable" a.2StorySItal
Substitution2: "'ss05' Style Set 5 lookup 39 subtable" a.2StorySItal
Substitution2: "'ss07' Style Set 7 in Latin lookup 35 subtable" a.SngStory
Substitution2: "'ss07' Style Set 7 in Cyrillic lookup 34 subtable" a.SngStory
Substitution2: "'ss07' Style Set 7 lookup 33 subtable" a.SngStory
Substitution2: "'smcp' Lowercase to Small Capitals in Latin lookup 14 subtable" a.sc
Substitution2: "'smcp' Lowercase to Small Capitals in Cyrillic lookup 13 subtable" a.sc
Substitution2: "'smcp' Lowercase to Small Capitals lookup 12 subtable" a.sc
AlternateSubs2: "'aalt' Access All Alternates lookup 1 subtable" a.sc a.SngStory a.2StorySItal
EndChar

StartChar: b
Encoding: 98 98 67
Width: 492
Flags: MW
HStem: -12 47<182 246 182 279.5> 428 66<298 301> 727 21G
VStem: 361 99<248 351>
LayerCount: 2
Fore
SplineSet
460 310 m 0
 460 186 381 -12 178 -12 c 0
 122 -12 65 4 18 34 c 1
 136 668 l 1
 47 677 l 1
 47 707 l 1
 203 737 l 1
 242 737 l 1
 185 434 l 1
 221 467 274 494 322 494 c 0
 425 494 460 393 460 310 c 0
361 306 m 0
 361 396 313 428 289 428 c 0
 257 428 208 406 174 377 c 1
 118 74 l 1
 131 55 164 35 200 35 c 0
 292 35 361 186 361 306 c 0
EndSplineSet
Substitution2: "'smcp' Lowercase to Small Capitals in Latin lookup 14 subtable" b.sc
Substitution2: "'smcp' Lowercase to Small Capitals in Cyrillic lookup 13 subtable" b.sc
Substitution2: "'smcp' Lowercase to Small Capitals lookup 12 subtable" b.sc
Substitution2: "'aalt' Access All Alternates lookup 0 subtable" b.sc
EndChar

StartChar: c
Encoding: 99 99 68
Width: 435
Flags: MW
HStem: -12 65<183 230.5> 436 58<269 269>
VStem: 32 95<153.5 226 153.5 263.5>
LayerCount: 2
Fore
SplineSet
403 424 m 0
 403 398 390 367 326 359 c 1
 269 436 l 1
 161 431 127 266 127 186 c 0
 127 121 150 53 216 53 c 0
 269 53 325 93 382 149 c 1
 382 86 l 1
 341 46 275 -12 186 -12 c 0
 91 -12 32 55 32 174 c 0
 32 353 165 494 301 494 c 0
 373 494 403 454 403 424 c 0
EndSplineSet
Substitution2: "'smcp' Lowercase to Small Capitals in Latin lookup 14 subtable" c.sc
Substitution2: "'smcp' Lowercase to Small Capitals in Cyrillic lookup 13 subtable" c.sc
Substitution2: "'smcp' Lowercase to Small Capitals lookup 12 subtable" c.sc
Substitution2: "'aalt' Access All Alternates lookup 0 subtable" c.sc
EndChar

StartChar: d
Encoding: 100 100 69
Width: 525
Flags: MW
HStem: -12 52<361.5 456> -12 61<187.5 203> 449 45<264.5 326> 727 21G
VStem: 32 97<130 246.5>
LayerCount: 2
Fore
SplineSet
529 737 m 1x78
 415 86 l 2
 408 49 442 40 451 40 c 0
 461 40 514 57 523 59 c 1xb8
 523 22 l 1
 507 16 433 -12 392 -12 c 0
 331 -12 317 19 317 63 c 1
 282 26 231 -12 175 -12 c 0
 63 -12 32 83 32 167 c 0
 32 326 138 494 315 494 c 0
 345 494 373 481 390 475 c 1
 424 668 l 1
 333 677 l 1
 333 707 l 1
 488 737 l 1
 529 737 l 1x78
376 394 m 2
 377 400 339 449 313 449 c 0
 216 449 129 329 129 173 c 0
 129 87 168 49 207 49 c 0x78
 243 49 294 89 330 131 c 1
 376 394 l 2
EndSplineSet
Substitution2: "'smcp' Lowercase to Small Capitals in Latin lookup 14 subtable" d.sc
Substitution2: "'smcp' Lowercase to Small Capitals in Cyrillic lookup 13 subtable" d.sc
Substitution2: "'smcp' Lowercase to Small Capitals lookup 12 subtable" d.sc
Substitution2: "'aalt' Access All Alternates lookup 0 subtable" d.sc
EndChar

StartChar: e
Encoding: 101 101 70
Width: 434
Flags: MW
HStem: -12 60<195 236.5> 447 46<241 290.5>
VStem: 32 97<137.5 180 137.5 249> 328 89<358.5 407>
LayerCount: 2
Fore
SplineSet
417 393 m 0
 417 284 252 227 133 220 c 1
 131 207 129 186 129 174 c 0
 129 101 166 48 224 48 c 0
 269 48 321 81 394 145 c 1
 394 82 l 1
 357 46 282 -12 191 -12 c 0
 130 -12 32 18 32 170 c 0
 32 328 153 493 296 493 c 0
 388 493 417 422 417 393 c 0
328 394 m 0
 328 420 307 447 274 447 c 0
 208 447 155 334 137 258 c 1
 222 266 328 323 328 394 c 0
EndSplineSet
Substitution2: "'smcp' Lowercase to Small Capitals in Latin lookup 14 subtable" e.sc
Substitution2: "'smcp' Lowercase to Small Capitals in Cyrillic lookup 13 subtable" e.sc
Substitution2: "'smcp' Lowercase to Small Capitals lookup 12 subtable" e.sc
Substitution2: "'aalt' Access All Alternates lookup 0 subtable" e.sc
EndChar

StartChar: f
Encoding: 102 102 71
Width: 321
Flags: MW
HStem: -229 21G<-92.5 -17.5> 407 50<223 345 223 345 214 345> 684 53<300 300> 727 21G
VStem: -130 571
LayerCount: 2
Fore
SplineSet
441 675 m 0xd8
 441 643 415 626 378 621 c 1
 300 684 l 1xe8
 258 649 230 508 223 457 c 1
 345 457 l 1
 345 407 l 1
 214 407 l 1
 208 362 172 96 154 22 c 0
 127 -90 32 -229 -67 -229 c 0
 -118 -229 -130 -189 -130 -179 c 0
 -130 -154 -119 -142 -104 -131 c 1
 -2 -157 l 1
 33 -114 56 -31 72 62 c 0
 89 156 101 275 121 406 c 1
 44 398 l 1
 45 437 l 1
 132 466 l 1
 152 572 212 737 349 737 c 0
 417 737 441 698 441 675 c 0xd8
EndSplineSet
Substitution2: "'ss05' Style Set 5 in Latin lookup 41 subtable" f.SItal
Substitution2: "'ss05' Style Set 5 in Cyrillic lookup 40 subtable" f.SItal
Substitution2: "'ss05' Style Set 5 lookup 39 subtable" f.SItal
Substitution2: "'smcp' Lowercase to Small Capitals in Latin lookup 14 subtable" f.sc
Substitution2: "'smcp' Lowercase to Small Capitals in Cyrillic lookup 13 subtable" f.sc
Substitution2: "'smcp' Lowercase to Small Capitals lookup 12 subtable" f.sc
AlternateSubs2: "'aalt' Access All Alternates lookup 1 subtable" f.sc f.SItal
EndChar

StartChar: g
Encoding: 103 103 72
Width: 439
Flags: MW
HStem: -229 46<144.5 224.5> 163 37<189 234.5 183.5 247> 421 47<393 485 393 393> 452 42<228 272>
VStem: -31 94<-89 -49> 48 96<264 330 259 344.5> 310 96<327.5 367.5 290.5 383.5> 321 93<-104.5 -76>
LayerCount: 2
Fore
SplineSet
485 421 m 1xe6
 393 421 l 1
 399 406 406 381 406 354 c 0xe6
 406 227 305 163 189 163 c 1
 180 143 175 114 178 103 c 1
 312 42 l 2
 373 14 414 -10 414 -68 c 0
 414 -154 288 -229 161 -229 c 0
 30 -229 -31 -159 -31 -83 c 0xd9
 -31 -15 29 31 102 55 c 1
 96 86 114 145 141 172 c 1
 88 195 48 232 48 296 c 0
 48 393 123 494 250 494 c 0xd6
 298 494 337 475 349 468 c 1
 485 468 l 1
 485 421 l 1xe6
310 359 m 0xd6
 310 408 292 452 252 452 c 0
 204 452 144 377 144 283 c 0
 144 235 166 200 201 200 c 0
 268 200 310 296 310 359 c 0xd6
321 -88 m 0xd9
 321 -64 309 -44 270 -26 c 2
 145 31 l 1
 81 15 63 -26 63 -66 c 0
 63 -112 102 -183 187 -183 c 0
 283 -183 321 -121 321 -88 c 0xd9
EndSplineSet
Substitution2: "'ss07' Style Set 7 in Latin lookup 35 subtable" g.SngBowl
Substitution2: "'ss07' Style Set 7 in Cyrillic lookup 34 subtable" g.SngBowl
Substitution2: "'ss07' Style Set 7 lookup 33 subtable" g.SngBowl
Substitution2: "'smcp' Lowercase to Small Capitals in Latin lookup 14 subtable" g.sc
Substitution2: "'smcp' Lowercase to Small Capitals in Cyrillic lookup 13 subtable" g.sc
Substitution2: "'smcp' Lowercase to Small Capitals lookup 12 subtable" g.sc
AlternateSubs2: "'aalt' Access All Alternates lookup 1 subtable" g.sc g.SngBowl
EndChar

StartChar: h
Encoding: 104 104 73
Width: 523
Flags: MW
HStem: -12 21G<376 409> 0 21G<18 110 18 18> 428 66<305 412.5> 727 21G
VStem: 378 98
LayerCount: 2
Fore
SplineSet
522 25 m 1x78
 505 19 430 -12 388 -12 c 0xb8
 364 -12 304 -1 315 53 c 2
 376 348 l 2
 387 401 343 428 321 428 c 0
 289 428 227 396 183 350 c 1
 110 0 l 1
 18 0 l 1
 156 668 l 1
 67 677 l 1
 67 707 l 1
 223 737 l 1
 263 737 l 1
 196 414 l 1
 237 459 309 494 376 494 c 0
 449 494 490 449 471 359 c 2
 416 90 l 2
 408 52 446 41 458 41 c 0
 476 41 498 53 521 60 c 1
 522 25 l 1x78
EndSplineSet
Substitution2: "'smcp' Lowercase to Small Capitals in Latin lookup 14 subtable" h.sc
Substitution2: "'smcp' Lowercase to Small Capitals in Cyrillic lookup 13 subtable" h.sc
Substitution2: "'smcp' Lowercase to Small Capitals lookup 12 subtable" h.sc
Substitution2: "'aalt' Access All Alternates lookup 0 subtable" h.sc
EndChar

StartChar: i
Encoding: 105 105 74
Width: 266
Flags: MW
HStem: -12 55<83 192.5> 484 21G 585 112<179 217.5>
VStem: 136 123<626.5 654>
LayerCount: 2
Fore
SplineSet
259 641 m 0
 259 612 237 585 198 585 c 0
 157 585 136 610 136 641 c 0
 136 667 159 697 199 697 c 0
 237 697 259 669 259 641 c 0
263 29 m 1
 248 22 172 -12 117 -12 c 0
 49 -12 39 40 48 86 c 2
 112 425 l 1
 26 434 l 1
 26 463 l 1
 177 494 l 1
 218 494 l 1
 142 94 l 2
 137 67 154 43 181 43 c 0
 204 43 250 63 263 67 c 1
 263 29 l 1
EndSplineSet
Substitution2: "'ss05' Style Set 5 in Latin lookup 41 subtable" i.SItal
Substitution2: "'ss05' Style Set 5 in Cyrillic lookup 40 subtable" i.SItal
Substitution2: "'ss05' Style Set 5 lookup 39 subtable" i.SItal
Substitution2: "'smcp' Lowercase to Small Capitals in Latin lookup 14 subtable" i.sc
Substitution2: "'smcp' Lowercase to Small Capitals in Cyrillic lookup 13 subtable" i.sc
Substitution2: "'smcp' Lowercase to Small Capitals lookup 12 subtable" i.sc
AlternateSubs2: "'aalt' Access All Alternates lookup 1 subtable" i.sc i.SItal
EndChar

StartChar: j
Encoding: 106 106 75
Width: 272
Flags: MW
HStem: -229 21G<-83 5> 484 21G 585 113<186 222.5>
VStem: 142 124<629 656 629 656>
LayerCount: 2
Fore
SplineSet
266 641 m 0
 266 617 241 585 204 585 c 0
 168 585 142 609 142 641 c 0
 142 671 162 698 204 698 c 0
 244 698 266 671 266 641 c 0
231 494 m 1
 160 80 l 2
 143 -20 72 -229 -62 -229 c 0
 -104 -229 -129 -206 -129 -176 c 0
 -129 -151 -111 -137 -101 -131 c 1
 -1 -158 l 1
 18 -137 42 -67 52 -12 c 2
 127 425 l 1
 43 434 l 1
 43 463 l 1
 194 494 l 1
 231 494 l 1
EndSplineSet
Substitution2: "'smcp' Lowercase to Small Capitals in Latin lookup 14 subtable" j.sc
Substitution2: "'smcp' Lowercase to Small Capitals in Cyrillic lookup 13 subtable" j.sc
Substitution2: "'smcp' Lowercase to Small Capitals lookup 12 subtable" j.sc
Substitution2: "'aalt' Access All Alternates lookup 0 subtable" j.sc
EndChar

StartChar: k
Encoding: 107 107 76
Width: 508
Flags: MW
HStem: -12 21G<357 389> -12 54<357 442> 0 21G<13 105 13 13> 484 21G 727 21G
VStem: 13 484<0 23>
LayerCount: 2
Fore
SplineSet
497 23 m 1x5c
 464 6 405 -12 373 -12 c 0
 341 -12 309 11 293 35 c 0x9c
 266 76 213 200 192 244 c 1
 146 203 l 1
 105 0 l 1
 13 0 l 1x3c
 146 668 l 1
 58 677 l 1
 58 707 l 1
 213 737 l 1
 253 737 l 1
 160 272 l 1
 322 439 l 2
 360 478 382 494 417 494 c 0
 462 494 483 465 482 440 c 0
 482 417 462 390 415 374 c 1
 381 410 l 1
 344 382 293 337 262 309 c 1
 280 275 302 203 332 149 c 0
 362 93 400 42 435 42 c 0
 449 42 480 49 497 57 c 1
 497 23 l 1x5c
EndSplineSet
Substitution2: "'smcp' Lowercase to Small Capitals in Latin lookup 14 subtable" k.sc
Substitution2: "'smcp' Lowercase to Small Capitals in Cyrillic lookup 13 subtable" k.sc
Substitution2: "'smcp' Lowercase to Small Capitals lookup 12 subtable" k.sc
Substitution2: "'aalt' Access All Alternates lookup 0 subtable" k.sc
EndChar

StartChar: l
Encoding: 108 108 77
Width: 265
Flags: MW
HStem: -12 56<93.5 191.5> 727 21G
VStem: 39 224<39.5 64 26 66>
LayerCount: 2
Fore
SplineSet
263 26 m 1
 247 20 171 -12 124 -12 c 0
 63 -12 39 18 39 61 c 0
 39 71 40 83 42 96 c 2
 152 668 l 1
 63 677 l 1
 63 707 l 1
 219 737 l 1
 258 737 l 1
 136 99 l 2
 131 72 154 44 182 44 c 0
 201 44 252 61 263 64 c 1
 263 26 l 1
EndSplineSet
Substitution2: "'ss05' Style Set 5 in Latin lookup 41 subtable" l.SItal
Substitution2: "'ss05' Style Set 5 in Cyrillic lookup 40 subtable" l.SItal
Substitution2: "'ss05' Style Set 5 lookup 39 subtable" l.SItal
Substitution2: "'smcp' Lowercase to Small Capitals in Latin lookup 14 subtable" l.sc
Substitution2: "'smcp' Lowercase to Small Capitals in Cyrillic lookup 13 subtable" l.sc
Substitution2: "'smcp' Lowercase to Small Capitals lookup 12 subtable" l.sc
AlternateSubs2: "'aalt' Access All Alternates lookup 1 subtable" l.sc l.SItal
EndChar

StartChar: m
Encoding: 109 109 78
Width: 775
Flags: MW
HStem: -12 21G<620 666.5> -12 54<620 718> 0 21G<18 110 18 18 286 379 286 286> 424 70
VStem: 356 99 625 102
LayerCount: 2
Fore
SplineSet
773 26 m 1x5c
 739 12 686 -12 647 -12 c 0x9c
 593 -12 557 12 566 58 c 2
 621 325 l 2
 635 392 609 424 583 424 c 0
 522 424 463 361 449 338 c 1
 379 0 l 1
 286 0 l 1
 353 326 l 2
 362 369 354 424 311 424 c 0
 264 424 200 361 180 336 c 1
 110 0 l 1
 18 0 l 1x3c
 104 425 l 1
 21 434 l 1
 21 463 l 1
 171 494 l 1
 212 494 l 1
 193 402 l 1
 242 449 307 494 366 494 c 0
 433 494 450 438 455 402 c 1
 503 450 576 494 637 494 c 0
 704 494 739 444 723 367 c 2
 667 97 l 2
 661 65 684 42 710 42 c 0
 726 42 748 52 773 60 c 1
 773 26 l 1x5c
EndSplineSet
Substitution2: "'smcp' Lowercase to Small Capitals in Latin lookup 14 subtable" m.sc
Substitution2: "'smcp' Lowercase to Small Capitals in Cyrillic lookup 13 subtable" m.sc
Substitution2: "'smcp' Lowercase to Small Capitals lookup 12 subtable" m.sc
Substitution2: "'aalt' Access All Alternates lookup 0 subtable" m.sc
EndChar

StartChar: n
Encoding: 110 110 79
Width: 529
Flags: MW
HStem: -12 21G<381 414> -12 54<381 472> 0 21G<23 116 23 23> 423 71
VStem: 375 102
LayerCount: 2
Fore
SplineSet
527 20 m 1x58
 510 14 435 -12 393 -12 c 0x98
 369 -12 301 -7 312 47 c 2
 373 354 l 2
 383 407 351 423 329 423 c 0
 297 423 229 383 185 336 c 1
 116 0 l 1
 23 0 l 1x38
 110 425 l 1
 26 434 l 1
 26 463 l 1
 177 494 l 1
 217 494 l 1
 198 401 l 1
 242 446 317 494 384 494 c 0
 457 494 489 456 473 366 c 2
 420 84 l 2
 413 46 451 42 463 42 c 0
 481 42 503 48 526 55 c 1
 527 20 l 1x58
EndSplineSet
Substitution2: "'smcp' Lowercase to Small Capitals in Latin lookup 14 subtable" n.sc
Substitution2: "'smcp' Lowercase to Small Capitals in Cyrillic lookup 13 subtable" n.sc
Substitution2: "'smcp' Lowercase to Small Capitals lookup 12 subtable" n.sc
Substitution2: "'aalt' Access All Alternates lookup 0 subtable" n.sc
EndChar

StartChar: o
Encoding: 111 111 80
Width: 505
Flags: MW
HStem: -12 45<196 268.5 196 286> 451 43<241.5 310.5>
VStem: 31 101<132.5 247 132.5 258> 374 101<245 351.5>
LayerCount: 2
Fore
SplineSet
475 300 m 0
 475 138 363 -12 209 -12 c 0
 99 -12 31 61 31 177 c 0
 31 339 139 494 296 494 c 0
 392 494 475 435 475 300 c 0
374 304 m 0
 374 399 336 451 285 451 c 0
 198 451 132 312 132 182 c 0
 132 83 171 33 221 33 c 0
 316 33 374 186 374 304 c 0
EndSplineSet
Substitution2: "'smcp' Lowercase to Small Capitals in Latin lookup 14 subtable" o.sc
Substitution2: "'smcp' Lowercase to Small Capitals in Cyrillic lookup 13 subtable" o.sc
Substitution2: "'smcp' Lowercase to Small Capitals lookup 12 subtable" o.sc
Substitution2: "'aalt' Access All Alternates lookup 0 subtable" o.sc
EndChar

StartChar: p
Encoding: 112 112 81
Width: 494
Flags: MW
HStem: -218 40 -12 47<178.5 250.5 178.5 257.5> 433 61<303 312>
VStem: 363 99<249.5 334.5>
LayerCount: 2
Fore
SplineSet
462 309 m 0
 462 145 339 -12 176 -12 c 0
 146 -12 121 -1 105 6 c 1
 73 -155 l 2
 71 -166 75 -173 93 -175 c 2
 156 -180 l 1
 156 -218 l 1
 -96 -218 l 1
 -96 -180 l 1
 -44 -175 l 2
 -31 -174 -22 -168 -20 -155 c 2
 93 425 l 1
 9 434 l 1
 9 463 l 1
 160 494 l 1
 199 494 l 1
 187 432 l 1
 221 454 275 494 331 494 c 0
 432 494 462 398 462 309 c 0
363 305 m 0
 363 364 339 433 285 433 c 0
 237 433 186 383 176 375 c 1
 116 65 l 1
 128 58 161 35 196 35 c 0
 305 35 363 194 363 305 c 0
EndSplineSet
Substitution2: "'smcp' Lowercase to Small Capitals in Latin lookup 14 subtable" p.sc
Substitution2: "'smcp' Lowercase to Small Capitals in Cyrillic lookup 13 subtable" p.sc
Substitution2: "'smcp' Lowercase to Small Capitals lookup 12 subtable" p.sc
Substitution2: "'aalt' Access All Alternates lookup 0 subtable" p.sc
EndChar

StartChar: q
Encoding: 113 113 82
Width: 521
Flags: MW
HStem: -218 40 -12 61<185 193.5> 448 46<271.5 333.5>
VStem: 32 97<135 246>
LayerCount: 2
Fore
SplineSet
491 494 m 1
 363 -155 l 2
 361 -166 365 -173 383 -175 c 2
 445 -180 l 1
 445 -218 l 1
 193 -218 l 1
 193 -180 l 1
 246 -175 l 2
 259 -174 268 -168 271 -155 c 2
 312 53 l 1
 266 15 217 -12 170 -12 c 0
 90 -12 32 50 32 169 c 0
 32 323 146 494 313 494 c 0
 355 494 389 479 407 465 c 1
 431 494 l 1
 491 494 l 1
377 388 m 2
 380 403 341 448 326 448 c 0
 217 448 129 329 129 173 c 0
 129 97 160 49 210 49 c 0
 251 49 288 82 323 113 c 1
 377 388 l 2
EndSplineSet
Substitution2: "'smcp' Lowercase to Small Capitals in Latin lookup 14 subtable" q.sc
Substitution2: "'smcp' Lowercase to Small Capitals in Cyrillic lookup 13 subtable" q.sc
Substitution2: "'smcp' Lowercase to Small Capitals lookup 12 subtable" q.sc
Substitution2: "'aalt' Access All Alternates lookup 0 subtable" q.sc
EndChar

StartChar: r
Encoding: 114 114 83
Width: 374
Flags: MW
HStem: 0 21G<19 112 19 19> 374 120<320 347>
VStem: 19 390
LayerCount: 2
Fore
SplineSet
409 427 m 0
 409 380 374 374 320 374 c 1
 296 422 l 1
 247 401 176 310 164 252 c 2
 112 0 l 1
 19 0 l 1
 105 425 l 1
 21 434 l 1
 21 463 l 1
 172 494 l 1
 212 494 l 1
 191 393 l 1
 232 456 285 494 345 494 c 0
 393 494 409 454 409 427 c 0
EndSplineSet
Substitution2: "'smcp' Lowercase to Small Capitals in Latin lookup 14 subtable" r.sc
Substitution2: "'smcp' Lowercase to Small Capitals in Cyrillic lookup 13 subtable" r.sc
Substitution2: "'smcp' Lowercase to Small Capitals lookup 12 subtable" r.sc
Substitution2: "'aalt' Access All Alternates lookup 0 subtable" r.sc
EndChar

StartChar: s
Encoding: 115 115 84
Width: 370
Flags: MW
HStem: -12 40<136 173.5 136 194> 445 49<207 213>
VStem: 68 80<358 389 358 392> 231 92<104 131.5>
LayerCount: 2
Fore
SplineSet
349 431 m 0
 349 385 302 378 277 376 c 1
 232 437 l 2
 228 440 219 445 207 445 c 0
 163 445 148 402 148 376 c 0
 148 340 194 301 237 267 c 0
 281 232 323 194 323 145 c 0
 323 63 256 -12 132 -12 c 0
 35 -12 -8 34 -8 80 c 0
 -8 112 11 134 52 134 c 0
 76 134 97 119 104 113 c 1
 85 64 l 1
 99 44 119 28 153 28 c 0
 194 28 231 60 231 111 c 0
 231 152 197 180 149 217 c 0
 108 249 68 293 68 343 c 0
 68 441 166 494 248 494 c 0
 323 494 349 455 349 431 c 0
EndSplineSet
Substitution2: "'smcp' Lowercase to Small Capitals in Latin lookup 14 subtable" s.sc
Substitution2: "'smcp' Lowercase to Small Capitals in Cyrillic lookup 13 subtable" s.sc
Substitution2: "'smcp' Lowercase to Small Capitals lookup 12 subtable" s.sc
Substitution2: "'aalt' Access All Alternates lookup 0 subtable" s.sc
EndChar

StartChar: t
Encoding: 116 116 85
Width: 299
Flags: MW
HStem: -12 61<102 216> 419 46<211 349 211 349 202 349>
VStem: 44 305
LayerCount: 2
Fore
SplineSet
349 419 m 1
 202 419 l 1
 139 105 l 2
 132 70 163 49 197 49 c 0
 235 49 280 66 301 73 c 1
 301 33 l 1
 284 26 196 -12 138 -12 c 0
 66 -12 44 25 44 74 c 0
 44 87 45 101 48 115 c 2
 109 419 l 1
 46 413 l 1
 46 446 l 1
 121 479 l 1
 170 579 l 1
 231 579 l 1
 211 465 l 1
 349 465 l 1
 349 419 l 1
EndSplineSet
Substitution2: "'smcp' Lowercase to Small Capitals in Latin lookup 14 subtable" t.sc
Substitution2: "'smcp' Lowercase to Small Capitals in Cyrillic lookup 13 subtable" t.sc
Substitution2: "'smcp' Lowercase to Small Capitals lookup 12 subtable" t.sc
Substitution2: "'aalt' Access All Alternates lookup 0 subtable" t.sc
EndChar

StartChar: u
Encoding: 117 117 86
Width: 526
Flags: MW
HStem: -12 53<350.5 467.5> -12 62<177 180.5> 472 21G 484 21G
VStem: 26 498<24 463 24 463> 323 92
LayerCount: 2
Fore
SplineSet
524 24 m 1x58
 499 10 431 -12 388 -12 c 0
 313 -12 323 47 323 63 c 1
 271 13 214 -12 147 -12 c 0
 54 -12 34 61 45 113 c 2
 110 425 l 1
 26 434 l 1
 26 463 l 1
 177 494 l 1
 218 494 l 1
 138 113 l 2
 131 79 164 50 190 50 c 0x54
 238 50 290 79 328 114 c 1
 404 482 l 1
 497 482 l 1
 417 97 l 2
 408 56 439 41 461 41 c 0xa4
 474 41 496 43 524 59 c 1x98
 524 24 l 1x58
EndSplineSet
Substitution2: "'smcp' Lowercase to Small Capitals in Latin lookup 14 subtable" u.sc
Substitution2: "'smcp' Lowercase to Small Capitals in Cyrillic lookup 13 subtable" u.sc
Substitution2: "'smcp' Lowercase to Small Capitals lookup 12 subtable" u.sc
Substitution2: "'aalt' Access All Alternates lookup 0 subtable" u.sc
EndChar

StartChar: v
Encoding: 118 118 87
Width: 461
Flags: MW
HStem: -12 21G<117 175 117 117> 428 66<73 109> 484 21G
VStem: 2 465<432 452 417.5 461 417.5 461>
LayerCount: 2
Fore
SplineSet
467 434 m 0xb0
 467 401 452 372 446 359 c 0
 357 195 236 56 175 -12 c 1
 117 -12 l 1
 131 17 138 42 137 64 c 0
 137 72 116 354 96 408 c 0
 90 422 84 428 73 428 c 2
 2 432 l 1
 2 461 l 1xd0
 109 494 l 1
 163 493 186 470 191 423 c 2
 222 115 l 1
 290 204 336 272 367 351 c 1
 348 472 l 1
 361 485 381 494 406 494 c 0
 448 494 467 470 467 434 c 0xb0
EndSplineSet
Substitution2: "'ss05' Style Set 5 in Latin lookup 41 subtable" v.SItal
Substitution2: "'ss05' Style Set 5 in Cyrillic lookup 40 subtable" v.SItal
Substitution2: "'ss05' Style Set 5 lookup 39 subtable" v.SItal
Substitution2: "'smcp' Lowercase to Small Capitals in Latin lookup 14 subtable" v.sc
Substitution2: "'smcp' Lowercase to Small Capitals in Cyrillic lookup 13 subtable" v.sc
Substitution2: "'smcp' Lowercase to Small Capitals lookup 12 subtable" v.sc
AlternateSubs2: "'aalt' Access All Alternates lookup 1 subtable" v.sc v.SItal
EndChar

StartChar: w
Encoding: 119 119 88
Width: 702
Flags: MW
HStem: -12 21G<95 169 95 95 376 438 376 376> 484 21G
VStem: 2 704<432 443 379 460 379 460>
LayerCount: 2
Fore
SplineSet
706 435 m 0
 706 323 458 12 438 -12 c 1
 376 -12 l 1
 354 329 l 1
 295 203 225 74 169 -12 c 1
 95 -12 l 1
 105 11 l 1
 77 424 l 1
 2 432 l 1
 2 460 l 1
 123 494 l 1
 168 491 l 1
 190 117 l 1
 242 213 307 350 359 469 c 1
 434 478 l 1
 459 97 l 1
 521 177 566 260 606 352 c 1
 586 469 l 1
 591 474 612 494 646 494 c 0
 694 494 706 451 706 435 c 0
EndSplineSet
Substitution2: "'smcp' Lowercase to Small Capitals in Latin lookup 14 subtable" w.sc
Substitution2: "'smcp' Lowercase to Small Capitals in Cyrillic lookup 13 subtable" w.sc
Substitution2: "'smcp' Lowercase to Small Capitals lookup 12 subtable" w.sc
Substitution2: "'aalt' Access All Alternates lookup 0 subtable" w.sc
EndChar

StartChar: x
Encoding: 120 120 89
Width: 527
Flags: MW
HStem: -12 54<329 429.5> 484 21G
VStem: -18 557<25.5 452.5>
LayerCount: 2
Fore
SplineSet
539 435 m 0
 539 409 523 383 484 370 c 1
 440 409 l 1
 405 395 352 333 313 240 c 1
 321 216 336 162 354 120 c 0
 373 77 398 42 422 42 c 0
 437 42 452 43 479 56 c 1
 479 20 l 1
 441 0 405 -12 362 -12 c 0
 296 -12 258 104 241 173 c 1
 204 103 144 -12 52 -12 c 0
 11 -12 -18 8 -18 43 c 0
 -18 75 4 95 44 102 c 1
 86 62 l 1
 126 87 179 148 216 243 c 1
 207 283 153 418 139 420 c 2
 52 431 l 1
 52 458 l 1
 70 464 159 494 172 494 c 0
 219 494 254 425 285 304 c 1
 324 380 394 494 478 494 c 0
 514 494 539 470 539 435 c 0
EndSplineSet
Substitution2: "'smcp' Lowercase to Small Capitals in Latin lookup 14 subtable" x.sc
Substitution2: "'smcp' Lowercase to Small Capitals in Cyrillic lookup 13 subtable" x.sc
Substitution2: "'smcp' Lowercase to Small Capitals lookup 12 subtable" x.sc
Substitution2: "'aalt' Access All Alternates lookup 0 subtable" x.sc
EndChar

StartChar: y
Encoding: 121 121 90
Width: 497
Flags: MW
HStem: -229 67<47 47 47 61> 484 21G
VStem: -80 604<-175.5 444>
LayerCount: 2
Fore
SplineSet
524 444 m 1
 474 413 l 1
 458 398 410 322 392 280 c 0
 364 216 315 92 251 -16 c 0
 189 -122 109 -229 13 -229 c 0
 -60 -229 -80 -188 -80 -163 c 0
 -80 -133 -51 -106 -11 -104 c 1
 47 -162 l 1
 89 -158 124 -105 192 18 c 1
 189 34 171 133 150 229 c 0
 129 323 102 427 93 428 c 2
 2 435 l 1
 2 460 l 1
 20 466 104 494 122 494 c 0
 165 494 185 452 205 386 c 0
 222 327 240 237 260 130 c 1
 412 494 l 1
 441 494 l 1
 524 467 l 1
 524 444 l 1
EndSplineSet
Substitution2: "'smcp' Lowercase to Small Capitals in Latin lookup 14 subtable" y.sc
Substitution2: "'smcp' Lowercase to Small Capitals in Cyrillic lookup 13 subtable" y.sc
Substitution2: "'smcp' Lowercase to Small Capitals lookup 12 subtable" y.sc
Substitution2: "'aalt' Access All Alternates lookup 0 subtable" y.sc
EndChar

StartChar: z
Encoding: 122 122 91
Width: 444
Flags: MW
HStem: -12 71<282.5 294.5> 418 76<141.5 163.5>
VStem: -16 466<11 468>
LayerCount: 2
Fore
SplineSet
450 468 m 1
 111 71 l 1
 195 93 l 1
 222 83 269 59 296 59 c 0
 324 59 338 78 349 92 c 1
 294 153 l 1
 307 177 332 191 350 191 c 0
 386 191 407 158 407 129 c 0
 407 48 327 -12 262 -12 c 0
 201 -12 153 31 104 31 c 0
 99 31 87 30 78 21 c 2
 53 -26 l 1
 -16 11 l 1
 323 408 l 1
 235 389 l 1
 208 404 177 418 150 418 c 0
 133 418 107 407 96 389 c 1
 149 325 l 1
 144 317 122 292 94 292 c 0
 56 292 39 326 39 351 c 0
 39 412 92 494 180 494 c 0
 240 494 290 444 330 444 c 0
 334 444 341 445 353 451 c 1
 375 507 l 1
 450 468 l 1
EndSplineSet
Substitution2: "'ss05' Style Set 5 in Latin lookup 41 subtable" z.SItal
Substitution2: "'ss05' Style Set 5 in Cyrillic lookup 40 subtable" z.SItal
Substitution2: "'ss05' Style Set 5 lookup 39 subtable" z.SItal
Substitution2: "'smcp' Lowercase to Small Capitals in Latin lookup 14 subtable" z.sc
Substitution2: "'smcp' Lowercase to Small Capitals in Cyrillic lookup 13 subtable" z.sc
Substitution2: "'smcp' Lowercase to Small Capitals lookup 12 subtable" z.sc
AlternateSubs2: "'aalt' Access All Alternates lookup 1 subtable" z.sc z.SItal
EndChar

StartChar: braceleft
Encoding: 123 123 92
Width: 485
Flags: MW
HStem: -123 42<343 351> 267 46<67 77.5> 661 42<477 504>
VStem: 247 94
CounterMasks: 1 e0
LayerCount: 2
Fore
SplineSet
511 703 m 1
 504 661 l 1
 450 661 416 647 394 626 c 0
 325 561 361 420 285 344 c 0
 263 323 231 304 180 291 c 1
 210 281 232 270 248 255 c 0
 331 177 204 -4 271 -61 c 0
 292 -79 327 -81 359 -81 c 1
 351 -123 l 1
 278 -123 215 -118 181 -82 c 0
 106 0 233 187 164 248 c 0
 140 270 97 267 58 267 c 1
 67 313 l 1
 122 313 164 314 193 343 c 0
 267 414 222 594 331 667 c 0
 372 695 430 703 511 703 c 1
EndSplineSet
EndChar

StartChar: bar
Encoding: 124 124 93
Width: 353
Flags: MW
HStem: -258 1054<146 207 146 207>
VStem: 146 61<-258 796>
LayerCount: 2
Fore
SplineSet
207 -258 m 1
 146 -258 l 1
 146 796 l 1
 207 796 l 1
 207 -258 l 1
EndSplineSet
EndChar

StartChar: braceright
Encoding: 125 125 94
Width: 485
Flags: MW
HStem: -123 42<-8 19 -8 25.5> 267 46<418.5 429> 661 42<146 153>
VStem: 154 94
CounterMasks: 1 e0
LayerCount: 2
Fore
SplineSet
438 313 m 1
 429 267 l 1
 374 267 332 266 303 237 c 0
 229 166 274 -14 166 -87 c 0
 124 -115 66 -123 -15 -123 c 1
 -8 -81 l 1
 46 -81 80 -67 103 -46 c 0
 171 19 135 161 211 236 c 0
 233 258 265 276 316 290 c 1
 286 299 264 310 249 325 c 0
 165 403 292 585 226 641 c 0
 204 659 169 661 137 661 c 1
 146 703 l 1
 218 703 281 698 315 662 c 0
 390 580 263 393 332 332 c 0
 356 310 399 313 438 313 c 1
EndSplineSet
EndChar

StartChar: asciitilde
Encoding: 126 126 95
Width: 833
Flags: MW
HStem: 236 58<523.5 591 523.5 594.5> 303 58<257 328.5>
VStem: 94 660<225 306 290 306>
LayerCount: 2
Fore
SplineSet
754 306 m 1
 677 253 623 236 566 236 c 0
 471 236 380 303 277 303 c 0
 226 303 161 274 94 225 c 1
 94 290 l 1
 165 341 230 361 284 361 c 0
 381 361 480 294 567 294 c 0
 615 294 674 313 754 371 c 1
 754 306 l 1
EndSplineSet
EndChar

StartChar: exclamdown
Encoding: 161 161 97
Width: 337
Flags: MW
HStem: 484 21G
VStem: 138 130<420.5 451>
LayerCount: 2
Fore
SplineSet
268 438 m 0
 268 403 241 376 204 376 c 0
 168 376 138 402 138 434 c 0
 138 468 165 494 204 494 c 0
 233 494 268 475 268 438 c 0
219 316 m 1
 167 -120 l 2
 160 -176 130 -198 89 -198 c 0
 51 -198 36 -178 36 -148 c 0
 36 -125 155 316 155 316 c 1
 219 316 l 1
EndSplineSet
EndChar

StartChar: cent
Encoding: 162 162 98
Width: 556
Flags: MW
HStem: -12 49<291 291 291 315.5> -9 21G<221 221> 446 48<369 378> 484 21G
VStem: 55 101<147.5 243>
LayerCount: 2
Fore
SplineSet
519 467 m 1x58
 498 318 l 1
 438 318 l 1
 440 334 448 422 420 430 c 0
 416 432 398 443 369 446 c 1
 291 37 l 1
 320 40 343 47 346 48 c 0
 382 56 393 149 395 165 c 1
 455 165 l 1
 434 18 l 1
 394 -5 349 -12 282 -12 c 1xa8
 263 -110 l 1
 201 -110 l 1
 221 -9 l 1
 109 9 55 90 55 172 c 0
 55 314 147 468 316 492 c 1
 336 592 l 1
 397 592 l 1
 378 494 l 1
 443 493 476 484 519 467 c 1x58
306 437 m 1
 219 403 156 302 156 185 c 0
 156 110 184 64 232 44 c 1
 306 437 l 1
EndSplineSet
EndChar

StartChar: sterling
Encoding: 163 163 99
Width: 556
Flags: MW
HStem: 0 81<187 480 187 480> 302 51<88 159 88 166 269 451> 633 54<441 441>
VStem: -4 585<0 642.5 60 642.5>
LayerCount: 2
Fore
SplineSet
581 614 m 0
 581 563 512 546 484 542 c 1
 441 633 l 1
 308 626 286 453 269 353 c 1
 451 353 l 1
 451 302 l 1
 257 302 l 1
 240 208 208 137 119 76 c 1
 147 79 171 81 187 81 c 2
 480 81 l 1
 480 0 l 1
 -4 0 l 1
 -4 60 l 1
 59 72 95 106 117 150 c 0
 143 200 149 252 159 302 c 1
 88 302 l 1
 88 353 l 1
 166 353 l 1
 172 421 210 687 446 687 c 0
 495 687 581 671 581 614 c 0
EndSplineSet
EndChar

StartChar: currency
Encoding: 164 164 100
Width: 609
Flags: MW
HStem: 216 57<287 335> 582 57<288.5 335 288.5 354>
VStem: 99 57<403.5 450> 464 57<404.5 451.5 404.5 469.5>
LayerCount: 2
Fore
SplineSet
580 196 m 1
 544 160 l 1
 441 263 l 1
 405 232 358 216 312 216 c 0
 262 216 216 231 179 263 c 1
 76 160 l 1
 40 196 l 1
 143 299 l 1
 114 335 99 380 99 427 c 0
 99 473 113 524 145 559 c 1
 40 664 l 1
 76 700 l 1
 181 595 l 1
 217 624 265 639 312 639 c 0
 358 639 404 623 438 594 c 1
 544 700 l 1
 580 664 l 1
 476 560 l 1
 504 525 521 475 521 428 c 0
 521 381 507 335 477 299 c 1
 580 196 l 1
464 428 m 0
 464 511 396 582 312 582 c 0
 225 582 156 514 156 427 c 0
 156 341 226 273 312 273 c 0
 397 273 464 344 464 428 c 0
EndSplineSet
EndChar

StartChar: yen
Encoding: 165 165 101
Width: 556
Flags: MW
HStem: 0 44<93 364 93 93> 234 46<28 219 28 227 323 522> 377 45<57 176 57 195 57 176 436 551> 618 46 621 43<439 439 639 639>
VStem: 28 611<234 621 280 621> 494 145
LayerCount: 2
Fore
SplineSet
639 621 m 1xea
 578 608 l 1xec
 436 422 l 1
 551 422 l 1
 551 377 l 1
 396 377 l 1
 323 280 l 1
 522 280 l 1
 522 234 l 1
 315 234 l 1
 284 67 l 2
 283 61 282 51 297 49 c 2
 364 44 l 1
 364 0 l 1
 93 0 l 1
 93 44 l 1
 112 45 134 44 151 46 c 0
 166 48 186 52 188 67 c 2
 219 234 l 1
 28 234 l 1
 28 280 l 1
 227 280 l 1
 195 377 l 1
 57 377 l 1
 57 422 l 1
 176 422 l 1
 116 610 l 1
 62 622 l 1
 62 664 l 1
 294 664 l 1
 294 620 l 1
 236 615 l 2
 227 614 223 606 226 597 c 2xf4
 304 352 l 1
 489 592 l 2
 494 599 499 608 483 611 c 2
 439 621 l 1
 439 664 l 1
 639 664 l 1
 639 621 l 1xea
EndSplineSet
EndChar

StartChar: brokenbar
Encoding: 166 166 102
Width: 345
Flags: MW
HStem: 726 21G
VStem: 147 51<-198 202 336 736>
LayerCount: 2
Fore
SplineSet
198 336 m 1
 147 336 l 1
 147 736 l 1
 198 736 l 1
 198 336 l 1
198 -198 m 1
 147 -198 l 1
 147 202 l 1
 198 202 l 1
 198 -198 l 1
EndSplineSet
EndChar

StartChar: section
Encoding: 167 167 103
Width: 500
Flags: MW
HStem: -140 49<165 198.5 165 215.5> 670 48<315 348>
VStem: 58 95<265 300.5> 131 95<547 607.5> 291 93<-17.5 36> 362 96<291 326.5>
LayerCount: 2
Fore
SplineSet
498 693 m 1xd8
 473 562 l 1
 413 562 l 1
 417 644 l 1
 389 662 361 670 335 670 c 0
 295 670 226 640 226 580 c 0
 226 514 334 495 405 437 c 0
 436 411 458 378 458 332 c 0xd4
 458 250 384 179 303 145 c 1
 351 118 384 85 384 38 c 0
 384 -73 272 -140 159 -140 c 0
 106 -140 56 -129 12 -107 c 1
 35 23 l 1
 99 23 l 1
 96 -66 l 1
 123 -84 153 -91 177 -91 c 0
 220 -91 291 -59 291 2 c 0
 291 70 161 109 111 150 c 0
 80 176 58 208 58 256 c 0xe8
 58 345 120 405 207 442 c 1
 161 470 131 502 131 548 c 0
 131 667 246 718 362 718 c 0
 404 718 460 710 498 693 c 1xd8
362 305 m 0
 362 348 337 382 255 419 c 1
 180 391 153 330 153 289 c 0xe8
 153 241 173 214 261 168 c 1
 319 201 362 250 362 305 c 0
EndSplineSet
EndChar

StartChar: dieresis
Encoding: 168 168 104
Width: 316
Flags: MW
HStem: 585 111<116.5 146 325 354>
VStem: 77 109<626 654.5> 284 109<626 655>
LayerCount: 2
Fore
SplineSet
393 641 m 0
 393 611 369 585 339 585 c 0
 309 585 284 611 284 641 c 0
 284 669 311 696 339 696 c 0
 369 696 393 671 393 641 c 0
186 641 m 0
 186 611 161 585 131 585 c 0
 102 585 77 611 77 640 c 0
 77 669 102 696 131 696 c 0
 161 696 186 671 186 641 c 0
EndSplineSet
EndChar

StartChar: copyright
Encoding: 169 169 105
Width: 836
Flags: MW
HStem: -36 42<344 532 344 544.5> 114 46<416 471.5 416 491> 538 47<422.5 479> 695 42<344.5 533.5>
VStem: 54 43<255.5 445 255.5 456.5> 209 92<291 411 291 419> 552 44<264 264> 780 43<255.5 444.5>
LayerCount: 2
Fore
SplineSet
823 351 m 0
 823 138 651 -36 438 -36 c 0
 227 -36 54 138 54 350 c 0
 54 563 226 737 439 737 c 0
 654 737 823 560 823 351 c 0
780 350 m 0
 780 539 628 695 439 695 c 0
 250 695 97 540 97 350 c 0
 97 161 250 6 438 6 c 0
 626 6 780 161 780 350 c 0
596 138 m 2
 593 137 528 114 454 114 c 0
 297 114 209 224 209 350 c 0
 209 488 306 585 455 585 c 0
 507 585 552 573 596 560 c 1
 596 441 l 1
 551 441 l 1
 536 517 l 1
 521 527 493 538 465 538 c 0
 380 538 301 470 301 352 c 0
 301 230 377 160 455 160 c 0
 488 160 521 171 538 179 c 1
 552 264 l 1
 596 264 l 1
 596 138 l 2
EndSplineSet
EndChar

StartChar: ordfeminine
Encoding: 170 170 106
Width: 337
Flags: MW
HStem: 306 36<50 342 42 349> 376 35<293 355.5> 376 39<171.5 190.5> 650 29<224 277 204 278> 662 21G
VStem: 77 65<470 520 470 529.5> 264 58<428 453>
LayerCount: 2
Fore
SplineSet
394 399 m 1xce
 383 395 334 376 309 376 c 0xd6
 277 376 266 390 264 417 c 1
 244 399 210 376 171 376 c 0
 95 376 77 440 77 483 c 0
 77 576 143 679 265 679 c 0
 289 679 311 668 323 658 c 1xb6
 333 672 l 1
 377 672 l 1
 373 663 366 644 364 638 c 0
 356 606 322 465 322 438 c 0
 322 418 333 411 351 411 c 0
 360 411 387 419 394 420 c 1
 394 399 l 1xce
349 342 m 1xb4
 342 306 l 1
 42 306 l 1
 50 342 l 1
 349 342 l 1xb4
298 618 m 2
 299 622 282 650 274 650 c 0
 174 650 142 553 142 487 c 0
 142 453 151 415 192 415 c 0
 223 415 254 444 264 453 c 1
 298 618 l 2
EndSplineSet
EndChar

StartChar: guillemotleft
Encoding: 171 171 107
Width: 406
Flags: MW
HStem: 0 21G<124 124 124 169 295 340 295 295> 472 21G
VStem: 20 418<215 482>
LayerCount: 2
Fore
SplineSet
124 0 m 1
 20 215 l 1
 30 266 l 1
 222 482 l 1
 267 482 l 1
 104 241 l 1
 169 0 l 1
 124 0 l 1
295 0 m 1
 190 215 l 1
 200 266 l 1
 393 482 l 1
 438 482 l 1
 274 241 l 1
 340 0 l 1
 295 0 l 1
EndSplineSet
EndChar

StartChar: logicalnot
Encoding: 172 172 108
Width: 620
Flags: MW
HStem: 360 60<40 520 40 580>
VStem: 520 60<189 360 360 360>
LayerCount: 2
Fore
SplineSet
580 189 m 1
 520 189 l 1
 520 360 l 1
 40 360 l 1
 40 420 l 1
 580 420 l 1
 580 189 l 1
EndSplineSet
EndChar

StartChar: uni00AD
Encoding: 173 173 109
Width: 318
Flags: MW
HStem: 207 68<43 270 30 283>
VStem: 30 253<207 275>
LayerCount: 2
Fore
SplineSet
283 275 m 1
 270 207 l 1
 30 207 l 1
 43 275 l 1
 283 275 l 1
EndSplineSet
Substitution2: "'ss06' Style Set 6 in Latin lookup 44 subtable" uni00AD.ShowInv
Substitution2: "'ss06' Style Set 6 in Cyrillic lookup 43 subtable" uni00AD.ShowInv
Substitution2: "'ss06' Style Set 6 lookup 42 subtable" uni00AD.ShowInv
Substitution2: "'aalt' Access All Alternates lookup 0 subtable" uni00AD.ShowInv
EndChar

StartChar: registered
Encoding: 174 174 110
Width: 836
Flags: MW
HStem: -36 42<343.5 532.5 343.5 544> 137 32<599 639.5> 142 29 337 31<391.5 436.5 391.5 481> 549 31<274 274 360 360 360 394> 695 42<345.5 533>
VStem: 54 43<254.5 445.5 254.5 456.5> 289 71<187 336 369 535 535 538> 519 78<430 488.5> 780 43<256 445.5>
LayerCount: 2
Fore
SplineSet
823 350 m 0xbfc0
 823 137 651 -36 437 -36 c 0
 227 -36 54 137 54 350 c 0
 54 563 226 737 439 737 c 0
 649 737 823 564 823 350 c 0xbfc0
780 350 m 0
 780 541 627 695 439 695 c 0
 252 695 97 543 97 348 c 0
 97 161 249 6 438 6 c 0
 627 6 780 162 780 350 c 0
687 142 m 1
 681 141 650 137 629 137 c 0xdfc0
 451 137 569 337 393 337 c 0
 378 337 362 336 360 336 c 2
 360 187 l 2
 360 181 364 174 375 173 c 2
 413 170 l 1
 413 142 l 1
 236 142 l 1xbfc0
 236 170 l 1
 274 173 l 2
 284 174 289 181 289 187 c 2
 289 535 l 2
 289 541 284 548 274 549 c 2
 236 552 l 1
 236 580 l 1
 422 580 l 2
 531 580 597 550 597 464 c 0
 597 396 541 368 480 355 c 1
 638 320 511 169 687 169 c 1xdfc0
 687 142 l 1
519 461 m 0
 519 516 484 549 394 549 c 2
 360 549 l 1
 360 369 l 2
 362 369 386 368 397 368 c 0
 476 368 519 391 519 461 c 0
EndSplineSet
EndChar

StartChar: macron
Encoding: 175 175 111
Width: 305
Flags: MW
HStem: 586 66<83 371 68 384>
VStem: 68 315
LayerCount: 2
Fore
SplineSet
384 652 m 1
 371 586 l 1
 68 586 l 1
 83 652 l 1
 384 652 l 1
EndSplineSet
EndChar

StartChar: degree
Encoding: 176 176 112
Width: 319
Flags: MW
HStem: 500 40<140.5 179.5 140.5 190.5> 680 40<140.5 179.5>
VStem: 50 40<590.5 629.5 590.5 640.5> 230 40<590.5 629.5>
LayerCount: 2
Fore
SplineSet
270 610 m 0
 270 549 221 500 160 500 c 0
 99 500 50 549 50 610 c 0
 50 671 99 720 160 720 c 0
 221 720 270 671 270 610 c 0
230 610 m 0
 230 649 199 680 160 680 c 0
 121 680 90 649 90 610 c 0
 90 571 121 540 160 540 c 0
 199 540 230 571 230 610 c 0
EndSplineSet
EndChar

StartChar: plusminus
Encoding: 177 177 113
Width: 1000
Flags: MW
HStem: 0 62<200 800 200 800> 358 62<200 469 200 469 531 800>
VStem: 469 62<178 358 178 358 420 600>
LayerCount: 2
Fore
SplineSet
800 358 m 1
 531 358 l 1
 531 178 l 1
 469 178 l 1
 469 358 l 1
 200 358 l 1
 200 420 l 1
 469 420 l 1
 469 600 l 1
 531 600 l 1
 531 420 l 1
 800 420 l 1
 800 358 l 1
800 0 m 1
 200 0 l 1
 200 62 l 1
 800 62 l 1
 800 0 l 1
EndSplineSet
EndChar

StartChar: twosuperior
Encoding: 178 178 114
Width: 360
Flags: MW
HStem: 383 55<139 313 139 350> 383 105<334 350> 754 38<248.5 282.5>
VStem: 328 70<652 714.5>
LayerCount: 2
Fore
SplineSet
398 701 m 0xb0
 398 590 221 492 139 438 c 1
 313 438 l 1xb0
 334 488 l 1
 371 488 l 1x70
 350 383 l 1
 47 383 l 1
 56 427 l 1
 241 549 328 610 328 694 c 0
 328 735 303 754 262 754 c 0
 235 754 214 744 208 741 c 1
 195 679 l 1
 195 679 181 668 160 668 c 0
 152 668 126 671 126 696 c 0
 126 744 202 792 281 792 c 0
 342 792 398 769 398 701 c 0xb0
EndSplineSet
EndChar

StartChar: threesuperior
Encoding: 179 179 115
Width: 360
Flags: MW
HStem: 376 36<179 224 179 236> 471 21G 573 39<196 247.5> 757 35<250.5 279.5>
VStem: 306 69<485 538.5> 330 70<684 719.5>
LayerCount: 2
Fore
SplineSet
400 706 m 0xf4
 400 662 363 620 296 599 c 1
 338 592 375 569 375 521 c 0
 375 442 288 376 184 376 c 0
 103 376 67 414 67 444 c 0
 67 456 74 481 106 481 c 0
 120 481 132 476 132 476 c 1
 142 425 l 1
 148 422 167 412 191 412 c 0
 257 412 306 457 306 513 c 0xf8
 306 564 262 573 233 573 c 0
 210 573 190 570 190 570 c 1
 196 612 l 1
 280 607 330 647 330 698 c 0
 330 741 294 757 265 757 c 0
 234 757 212 743 207 739 c 1
 198 683 l 1
 198 683 177 674 164 674 c 0
 153 674 132 683 132 706 c 0
 132 758 215 792 286 792 c 0
 354 792 400 764 400 706 c 0xf4
EndSplineSet
EndChar

StartChar: acute
Encoding: 180 180 116
Width: 291
Flags: MW
HStem: 551 181<134 344.5 134 344.5>
VStem: 134 244<551 699>
LayerCount: 2
Fore
SplineSet
378 689 m 0
 378 670 369 658 354 648 c 2
 204 551 l 1
 134 551 l 1
 270 707 l 2
 283 722 297 732 327 732 c 0
 362 732 378 709 378 689 c 0
EndSplineSet
EndChar

StartChar: mu
Encoding: 181 181 117
Width: 546
Flags: MW
HStem: -222 21G<-5.5 35> -12 57<427 432> -12 63<144 237> 472 21G
VStem: -28 96<-190.5 -83> 329 94
LayerCount: 2
Fore
SplineSet
522 108 m 1xdc
 506 47 467 -12 397 -12 c 0
 338 -12 326 35 329 85 c 1
 284 43 226 -12 160 -12 c 0
 128 -12 93 -1 80 32 c 1xdc
 71 -15 68 -59 68 -107 c 0
 68 -149 64 -222 6 -222 c 0
 -17 -222 -28 -201 -28 -180 c 0
 -28 -142 3 -91 17 -55 c 0
 35 -4 48 48 58 101 c 2
 133 482 l 1
 226 482 l 1
 170 197 l 2
 164 169 158 140 158 110 c 0
 158 77 177 51 213 51 c 0xbc
 261 51 302 89 335 120 c 1
 407 482 l 1
 500 482 l 1
 432 137 l 2
 427 114 407 45 447 45 c 0
 478 45 493 85 502 108 c 1
 522 108 l 1xdc
EndSplineSet
EndChar

StartChar: paragraph
Encoding: 182 182 118
Width: 485
Flags: MW
HStem: 630 41<296 373 296 296>
VStem: 373 48<-79 625 -79 630 -79 630>
LayerCount: 2
Fore
SplineSet
483 635 m 1
 421 625 l 1
 421 -79 l 1
 373 -79 l 1
 373 630 l 1
 296 630 l 1
 296 281 l 1
 152 281 51 320 51 475 c 0
 51 622 137 671 286 671 c 2
 483 671 l 1
 483 635 l 1
EndSplineSet
EndChar

StartChar: periodcentered
Encoding: 183 183 119
Width: 187
Flags: MW
HStem: 281 118<77.5 110.5>
VStem: 35 118<323.5 356.5>
LayerCount: 2
Fore
SplineSet
153 340 m 0
 153 307 127 281 94 281 c 0
 61 281 35 307 35 340 c 0
 35 373 61 399 94 399 c 0
 127 399 153 373 153 340 c 0
EndSplineSet
EndChar

StartChar: cedilla
Encoding: 184 184 120
Width: 237
Flags: MW
HStem: -223 41<8 26 6 61> -108 49<47 119>
VStem: 83 81<-146.5 -125>
LayerCount: 2
Fore
SplineSet
164 -112 m 0
 164 -181 99 -223 23 -223 c 0
 -7 -223 -43 -215 -57 -211 c 1
 -48 -171 l 1
 -33 -175 -5 -182 17 -182 c 0
 35 -182 83 -174 83 -135 c 0
 83 -115 65 -108 50 -108 c 0
 44 -108 39 -111 18 -121 c 1
 46 24 l 1
 98 24 l 1
 82 -61 l 1
 87 -60 92 -59 97 -59 c 0
 141 -59 164 -76 164 -112 c 0
EndSplineSet
EndChar

StartChar: onesuperior
Encoding: 185 185 121
Width: 360
Flags: MW
HStem: 383 35
VStem: 115 211
LayerCount: 2
Fore
SplineSet
326 792 m 1
 253 437 l 2
 251 426 255 420 267 419 c 2
 310 416 l 1
 310 383 l 1
 115 383 l 1
 115 417 l 1
 170 419 l 2
 184 420 190 426 192 437 c 2
 252 732 l 1
 156 721 l 1
 156 753 l 1
 305 792 l 1
 326 792 l 1
EndSplineSet
EndChar

StartChar: ordmasculine
Encoding: 186 186 122
Width: 329
Flags: MW
HStem: 306 32<42 322 35 329> 376 27<180 227 180 238.5> 653 26<210 254.5>
VStem: 73 66<462 531 462 537.5> 295 66<529.5 593.5>
LayerCount: 2
Fore
SplineSet
361 563 m 0
 361 466 289 376 188 376 c 0
 117 376 73 419 73 489 c 0
 73 586 143 679 245 679 c 0
 308 679 361 644 361 563 c 0
329 338 m 1
 322 306 l 1
 35 306 l 1
 42 338 l 1
 329 338 l 1
295 565 m 0
 295 622 271 653 238 653 c 0
 182 653 139 570 139 492 c 0
 139 432 164 403 196 403 c 0
 258 403 295 494 295 565 c 0
EndSplineSet
EndChar

StartChar: guillemotright
Encoding: 187 187 123
Width: 406
Flags: MW
HStem: 0 21G<-31 14 -31 -31 140 185 140 140> 472 21G
VStem: -31 418<0 267>
LayerCount: 2
Fore
SplineSet
282 482 m 1
 387 267 l 1
 377 216 l 1
 185 0 l 1
 140 0 l 1
 303 241 l 1
 237 482 l 1
 282 482 l 1
112 482 m 1
 216 267 l 1
 206 216 l 1
 14 0 l 1
 -31 0 l 1
 132 241 l 1
 67 482 l 1
 112 482 l 1
EndSplineSet
EndChar

StartChar: onequarter
Encoding: 188 188 124
Width: 878
Flags: MW
HStem: 0 21G<100 171 100 100> 116 46<515 649 718 780> 292 37<123 130 214.5 220>
VStem: 68 722<162 326 162 326>
LayerCount: 2
Fore
SplineSet
790 162 m 1
 780 116 l 1
 708 116 l 1
 679 -21 l 1
 621 -21 l 1
 649 116 l 1
 443 116 l 1
 452 160 l 1
 724 410 l 1
 770 410 l 1
 718 162 l 1
 790 162 l 1
752 698 m 1
 171 0 l 1
 100 0 l 1
 681 698 l 1
 752 698 l 1
279 701 m 1
 206 346 l 2
 204 335 209 329 220 329 c 2
 263 325 l 1
 263 292 l 1
 68 292 l 1
 68 326 l 1
 123 329 l 2
 137 329 143 335 146 346 c 2
 205 641 l 1
 109 630 l 1
 109 662 l 1
 258 701 l 1
 279 701 l 1
694 329 m 1
 515 162 l 1
 660 162 l 1
 694 329 l 1
EndSplineSet
EndChar

StartChar: onehalf
Encoding: 189 189 125
Width: 878
Flags: MW
HStem: 0 56<552 728 552 765> 292 37<123 130 214.5 220> 374 39<662.5 696.5>
VStem: 744 71<265 335>
LayerCount: 2
Fore
SplineSet
815 321 m 0
 815 209 634 109 552 56 c 1
 728 56 l 1
 750 105 l 1
 787 105 l 1
 765 0 l 1
 458 0 l 1
 468 44 l 1
 554 100 744 196 744 314 c 0
 744 356 717 374 676 374 c 0
 649 374 627 364 621 361 c 1
 608 299 l 1
 608 299 595 288 573 288 c 0
 563 288 539 291 539 316 c 0
 539 365 616 413 696 413 c 0
 758 413 815 389 815 321 c 0
752 698 m 1
 171 0 l 1
 100 0 l 1
 681 698 l 1
 752 698 l 1
279 701 m 1
 206 346 l 2
 204 335 209 329 220 329 c 2
 263 325 l 1
 263 292 l 1
 68 292 l 1
 68 326 l 1
 123 329 l 2
 137 329 143 335 146 346 c 2
 205 641 l 1
 109 630 l 1
 109 662 l 1
 258 701 l 1
 279 701 l 1
EndSplineSet
EndChar

StartChar: threequarters
Encoding: 190 190 126
Width: 878
Flags: MW
HStem: 0 21G<146 217 146 146> 116 46<547 682 750 812> 286 36<159 204.5 159 216.5> 484 40 669 37<231 261>
VStem: 287 70<395 456.5> 312 71<596 631.5>
LayerCount: 2
Fore
SplineSet
822 162 m 1xfc
 812 116 l 1
 740 116 l 1
 712 -21 l 1
 654 -21 l 1
 682 116 l 1
 475 116 l 1
 484 160 l 1
 757 410 l 1
 802 410 l 1
 750 162 l 1
 822 162 l 1xfc
798 698 m 1
 217 0 l 1
 146 0 l 1
 727 698 l 1
 798 698 l 1
383 618 m 0xfa
 383 574 346 531 278 510 c 1
 320 503 357 481 357 432 c 0
 357 352 269 286 164 286 c 0
 81 286 45 323 45 354 c 0
 45 366 51 392 84 392 c 0
 98 392 111 386 111 386 c 1
 121 335 l 1
 127 332 147 322 171 322 c 0
 238 322 287 367 287 423 c 0xfc
 287 490 216 487 169 481 c 1
 176 524 l 1
 262 519 312 559 312 610 c 0
 312 653 276 669 246 669 c 0
 214 669 192 656 187 652 c 1
 178 595 l 1
 178 595 156 586 143 586 c 0
 131 586 111 595 111 619 c 0
 111 671 195 706 267 706 c 0
 336 706 383 677 383 618 c 0xfa
727 329 m 1
 547 162 l 1
 692 162 l 1
 727 329 l 1
EndSplineSet
EndChar

StartChar: questiondown
Encoding: 191 191 127
Width: 485
Flags: MW
HStem: -209 50<194.5 227 194.5 262.5> 373 121<293 334.5>
VStem: 13 109<-89 1 -89 1.5> 250 130<419.5 449.5>
LayerCount: 2
Fore
SplineSet
380 435 m 0
 380 404 355 373 314 373 c 0
 272 373 250 403 250 434 c 0
 250 465 272 494 314 494 c 0
 355 494 380 466 380 435 c 0
371 -101 m 0
 371 -140 329 -209 196 -209 c 0
 78 -209 13 -154 13 -66 c 0
 13 69 132 145 241 190 c 1
 264 309 l 1
 332 309 l 1
 304 160 l 1
 213 131 122 57 122 -55 c 0
 122 -123 162 -159 227 -159 c 1
 287 -60 l 1
 316 -60 l 2
 350 -60 371 -75 371 -101 c 0
EndSplineSet
EndChar

StartChar: Agrave
Encoding: 192 192 128
Width: 672
Flags: MW
HStem: 0 44 257 47<226 417 226 426 199 417> 677 21G 746 181<308.5 511 308.5 449>
VStem: -53 679<0 42 0 42> 281 230<746 893>
LayerCount: 2
Fore
SplineSet
626 0 m 1xe8
 391 0 l 1
 391 42 l 1
 437 47 l 2
 452 49 458 55 456 66 c 2
 426 257 l 1
 199 257 l 1
 97 66 l 2
 90 53 97 49 116 47 c 2
 162 42 l 1
 162 0 l 1
 -53 0 l 1
 -53 42 l 1
 3 48 l 1
 372 687 l 1
 452 687 l 1
 560 66 l 2
 562 53 566 48 580 47 c 2
 626 42 l 1
 626 0 l 1xe8
417 304 m 1
 374 564 l 1
 226 304 l 1
 417 304 l 1
511 746 m 1x14
 449 746 l 1
 304 841 l 2
 290 850 281 863 281 883 c 0
 281 903 291 927 326 927 c 0
 354 927 365 916 377 902 c 2
 511 746 l 1x14
EndSplineSet
Substitution2: "'c2sc' Capitals to Small Capitals in Latin lookup 17 subtable" agrave.sc
Substitution2: "'c2sc' Capitals to Small Capitals in Cyrillic lookup 16 subtable" agrave.sc
Substitution2: "'c2sc' Capitals to Small Capitals lookup 15 subtable" agrave.sc
EndChar

StartChar: Aacute
Encoding: 193 193 129
Width: 672
Flags: MW
HStem: 0 44 257 47<226 417 226 426 199 417> 677 21G 746 181<331 541.5 331 541.5>
VStem: -53 679<0 42 0 42> 331 244<746 894>
LayerCount: 2
Fore
SplineSet
626 0 m 1xe8
 391 0 l 1
 391 42 l 1
 437 47 l 2
 452 49 458 55 456 66 c 2
 426 257 l 1
 199 257 l 1
 97 66 l 2
 90 53 97 49 116 47 c 2
 162 42 l 1
 162 0 l 1
 -53 0 l 1
 -53 42 l 1
 3 48 l 1
 372 687 l 1
 452 687 l 1
 560 66 l 2
 562 53 566 48 580 47 c 2
 626 42 l 1
 626 0 l 1xe8
417 304 m 1
 374 564 l 1
 226 304 l 1
 417 304 l 1
575 884 m 0x14
 575 865 566 853 551 843 c 2
 401 746 l 1
 331 746 l 1
 467 902 l 2
 480 917 494 927 524 927 c 0
 559 927 575 904 575 884 c 0x14
EndSplineSet
Substitution2: "'c2sc' Capitals to Small Capitals in Latin lookup 17 subtable" aacute.sc
Substitution2: "'c2sc' Capitals to Small Capitals in Cyrillic lookup 16 subtable" aacute.sc
Substitution2: "'c2sc' Capitals to Small Capitals lookup 15 subtable" aacute.sc
EndChar

StartChar: Acircumflex
Encoding: 194 194 130
Width: 672
Flags: MW
HStem: 0 44 257 47<226 417 226 426 199 417> 677 21G 746 169
VStem: -53 679<0 42 0 42> 241 342<746 746>
LayerCount: 2
Fore
SplineSet
626 0 m 1xe8
 391 0 l 1
 391 42 l 1
 437 47 l 2
 452 49 458 55 456 66 c 2
 426 257 l 1
 199 257 l 1
 97 66 l 2
 90 53 97 49 116 47 c 2
 162 42 l 1
 162 0 l 1
 -53 0 l 1
 -53 42 l 1
 3 48 l 1
 372 687 l 1
 452 687 l 1
 560 66 l 2
 562 53 566 48 580 47 c 2
 626 42 l 1
 626 0 l 1xe8
417 304 m 1
 374 564 l 1
 226 304 l 1
 417 304 l 1
583 746 m 1x14
 513 746 l 1
 431 838 l 1
 311 746 l 1
 241 746 l 1
 406 916 l 1
 485 916 l 1
 583 746 l 1x14
EndSplineSet
Substitution2: "'c2sc' Capitals to Small Capitals in Latin lookup 17 subtable" acircumflex.sc
Substitution2: "'c2sc' Capitals to Small Capitals in Cyrillic lookup 16 subtable" acircumflex.sc
Substitution2: "'c2sc' Capitals to Small Capitals lookup 15 subtable" acircumflex.sc
EndChar

StartChar: Atilde
Encoding: 195 195 131
Width: 672
Flags: MW
HStem: 0 44 257 47<226 417 226 426 199 417> 677 21G 780 60<497.5 513> 826 60<346 362.5>
VStem: -53 679<0 42 0 42> 238 384<780 886>
LayerCount: 2
Fore
SplineSet
626 0 m 1xe4
 391 0 l 1
 391 42 l 1
 437 47 l 2
 452 49 458 55 456 66 c 2
 426 257 l 1
 199 257 l 1
 97 66 l 2
 90 53 97 49 116 47 c 2
 162 42 l 1
 162 0 l 1
 -53 0 l 1
 -53 42 l 1
 3 48 l 1
 372 687 l 1
 452 687 l 1
 560 66 l 2
 562 53 566 48 580 47 c 2
 626 42 l 1
 626 0 l 1xe4
417 304 m 1
 374 564 l 1
 226 304 l 1
 417 304 l 1
622 886 m 1x00
 594 828 549 780 477 780 c 0x0a
 450 780 432 790 411 803 c 0
 394 814 378 826 347 826 c 0
 330 826 302 807 291 780 c 1
 238 780 l 1
 266 838 310 886 382 886 c 0x12
 409 886 428 876 449 862 c 0
 466 852 482 840 513 840 c 0
 531 840 558 859 569 886 c 1
 622 886 l 1x00
EndSplineSet
Substitution2: "'c2sc' Capitals to Small Capitals in Latin lookup 17 subtable" atilde.sc
Substitution2: "'c2sc' Capitals to Small Capitals in Cyrillic lookup 16 subtable" atilde.sc
Substitution2: "'c2sc' Capitals to Small Capitals lookup 15 subtable" atilde.sc
EndChar

StartChar: Adieresis
Encoding: 196 196 132
Width: 672
Flags: MW
HStem: 0 44 257 47<226 417 226 426 199 417> 677 21G 780 111<311.5 341 520 549>
VStem: -53 679<0 42 0 42> 272 109<821 849.5> 479 109<821 850>
LayerCount: 2
Fore
SplineSet
626 0 m 1xe8
 391 0 l 1
 391 42 l 1
 437 47 l 2
 452 49 458 55 456 66 c 2
 426 257 l 1
 199 257 l 1
 97 66 l 2
 90 53 97 49 116 47 c 2
 162 42 l 1
 162 0 l 1
 -53 0 l 1
 -53 42 l 1
 3 48 l 1
 372 687 l 1
 452 687 l 1
 560 66 l 2
 562 53 566 48 580 47 c 2
 626 42 l 1
 626 0 l 1xe8
417 304 m 1
 374 564 l 1
 226 304 l 1
 417 304 l 1
588 836 m 0x16
 588 806 564 780 534 780 c 0
 504 780 479 806 479 836 c 0
 479 864 506 891 534 891 c 0
 564 891 588 866 588 836 c 0x16
381 836 m 0
 381 806 356 780 326 780 c 0
 297 780 272 806 272 835 c 0
 272 864 297 891 326 891 c 0
 356 891 381 866 381 836 c 0
EndSplineSet
Substitution2: "'c2sc' Capitals to Small Capitals in Latin lookup 17 subtable" adieresis.sc
Substitution2: "'c2sc' Capitals to Small Capitals in Cyrillic lookup 16 subtable" adieresis.sc
Substitution2: "'c2sc' Capitals to Small Capitals lookup 15 subtable" adieresis.sc
EndChar

StartChar: Aring
Encoding: 197 197 133
Width: 672
Flags: MW
HStem: 0 44 257 47<226 417 226 426 199 417> 677 21G 746 52<408 443.5 408 451.5> 928 52<429.5 465>
VStem: -53 679<0 42 0 42> 318 51<834.5 871 834.5 877.5> 503 52<856.5 892.5>
LayerCount: 2
Fore
SplineSet
626 0 m 1xe4
 391 0 l 1
 391 42 l 1
 437 47 l 2
 452 49 458 55 456 66 c 2
 426 257 l 1
 199 257 l 1
 97 66 l 2
 90 53 97 49 116 47 c 2
 162 42 l 1
 162 0 l 1
 -53 0 l 1
 -53 42 l 1
 3 48 l 1
 372 687 l 1
 452 687 l 1
 560 66 l 2
 562 53 566 48 580 47 c 2
 626 42 l 1
 626 0 l 1xe4
417 304 m 1
 374 564 l 1
 226 304 l 1
 417 304 l 1
415 746 m 0x1b
 359 746 318 786 318 841 c 0
 318 914 384 980 457 980 c 0
 513 980 555 940 555 884 c 0
 555 810 488 746 415 746 c 0x1b
503 877 m 0
 503 908 480 928 450 928 c 0
 409 928 369 892 369 850 c 0
 369 819 393 798 423 798 c 0
 464 798 503 836 503 877 c 0
EndSplineSet
Substitution2: "'c2sc' Capitals to Small Capitals in Latin lookup 17 subtable" aring.sc
Substitution2: "'c2sc' Capitals to Small Capitals in Cyrillic lookup 16 subtable" aring.sc
Substitution2: "'c2sc' Capitals to Small Capitals lookup 15 subtable" aring.sc
EndChar

StartChar: AE
Encoding: 198 198 134
Width: 936
Flags: MW
HStem: 0 44 0 50<554 780 780 786.5 554 864> 253 53<309 492 267 502> 323 52<617 731 607 742> 621 50<665 845 665 665> 626 44
VStem: -53 1011<0 671 42 671>
LayerCount: 2
Fore
SplineSet
958 671 m 1x7a
 928 521 l 1
 864 521 l 1
 864 602 l 2
 864 616 860 621 845 621 c 2
 665 621 l 1
 617 375 l 1
 742 375 l 2
 756 375 762 380 766 394 c 2
 785 461 l 1
 842 461 l 1
 797 232 l 1
 741 232 l 1
 750 303 l 2
 752 316 745 323 731 323 c 2
 607 323 l 1
 554 50 l 1
 780 50 l 2
 793 50 800 58 804 70 c 2
 835 166 l 1
 896 166 l 1
 864 0 l 1
 375 0 l 1x7a
 375 42 l 1
 436 47 l 2
 448 48 454 59 455 66 c 2
 492 253 l 1
 267 253 l 1
 113 66 l 2
 106 58 115 49 132 47 c 2
 175 42 l 1xba
 175 0 l 1
 -53 0 l 1x7a
 -53 42 l 1
 -5 47 l 2
 4 48 11 56 20 66 c 2
 459 604 l 2
 466 612 464 623 456 624 c 2
 400 629 l 1xb6
 400 671 l 1
 958 671 l 1x7a
561 612 m 1
 309 306 l 1
 502 306 l 1
 561 612 l 1
EndSplineSet
Substitution2: "'c2sc' Capitals to Small Capitals in Latin lookup 17 subtable" ae.sc
Substitution2: "'c2sc' Capitals to Small Capitals in Cyrillic lookup 16 subtable" ae.sc
Substitution2: "'c2sc' Capitals to Small Capitals lookup 15 subtable" ae.sc
EndChar

StartChar: Ccedilla
Encoding: 199 199 135
Width: 629
Flags: MW
HStem: -223 41<243 261 241 296> -108 49<282 354> -16 51<303 374.5> 636 51<378.5 479>
VStem: 48 106<196 371.5 180.5 373.5> 318 81<-146.5 -125>
LayerCount: 2
Fore
SplineSet
644 647 m 1
 617 491 l 1
 558 491 l 1
 558 584 l 2
 558 594 549 608 540 611 c 0
 535 614 503 636 455 636 c 0
 302 636 154 487 154 256 c 0
 154 105 247 35 359 35 c 0
 402 35 429 50 434 52 c 0
 442 53 453 63 457 72 c 2
 500 186 l 1
 559 186 l 1
 532 24 l 1
 517 19 423 -16 326 -16 c 0
 127 -16 48 125 48 267 c 0
 48 480 212 687 450 687 c 0
 515 687 567 672 644 647 c 1
399 -112 m 0
 399 -181 334 -223 258 -223 c 0
 228 -223 192 -215 178 -211 c 1
 187 -171 l 1
 202 -175 230 -182 252 -182 c 0
 270 -182 318 -174 318 -135 c 0
 318 -115 300 -108 285 -108 c 0
 279 -108 274 -111 253 -121 c 1
 281 24 l 1
 333 24 l 1
 317 -61 l 1
 322 -60 327 -59 332 -59 c 0
 376 -59 399 -76 399 -112 c 0
EndSplineSet
Substitution2: "'c2sc' Capitals to Small Capitals in Latin lookup 17 subtable" ccedilla.sc
Substitution2: "'c2sc' Capitals to Small Capitals in Cyrillic lookup 16 subtable" ccedilla.sc
Substitution2: "'c2sc' Capitals to Small Capitals lookup 15 subtable" ccedilla.sc
EndChar

StartChar: Egrave
Encoding: 200 200 136
Width: 558
Flags: MW
HStem: 0 44 0 50<166 401 401 408 166 485> 323 52<229 353 218 363> 621 50<275 467 275 275> 626 44 746 181<257.5 460 257.5 398>
VStem: -15 595 230 230<746 893>
LayerCount: 2
Fore
SplineSet
580 671 m 1x72
 550 521 l 1
 486 521 l 1
 486 602 l 2
 486 616 482 621 467 621 c 2
 275 621 l 1
 229 375 l 1
 363 375 l 2
 377 375 384 380 388 394 c 2
 407 461 l 1
 463 461 l 1
 419 232 l 1
 362 232 l 1
 372 303 l 2
 374 316 367 323 353 323 c 2
 218 323 l 1
 166 50 l 1
 401 50 l 2
 415 50 422 58 426 70 c 2
 457 166 l 1
 518 166 l 1
 485 0 l 1
 -15 0 l 1x72
 -15 42 l 1
 43 47 l 2
 56 48 65 54 67 66 c 2
 171 604 l 2
 173 615 169 623 152 624 c 2
 96 629 l 1xaa
 96 671 l 1
 580 671 l 1x72
460 746 m 1x05
 398 746 l 1
 253 841 l 2
 239 850 230 863 230 883 c 0
 230 903 240 927 275 927 c 0
 303 927 314 916 326 902 c 2
 460 746 l 1x05
EndSplineSet
Substitution2: "'c2sc' Capitals to Small Capitals in Latin lookup 17 subtable" egrave.sc
Substitution2: "'c2sc' Capitals to Small Capitals in Cyrillic lookup 16 subtable" egrave.sc
Substitution2: "'c2sc' Capitals to Small Capitals lookup 15 subtable" egrave.sc
EndChar

StartChar: Eacute
Encoding: 201 201 137
Width: 558
Flags: MW
HStem: 0 44 0 50<166 401 401 408 166 485> 323 52<229 353 218 363> 621 50<275 467 275 275> 626 44 746 181<279 490.5 279 490.5>
VStem: -15 595 279 244<746 894>
LayerCount: 2
Fore
SplineSet
580 671 m 1x72
 550 521 l 1
 486 521 l 1
 486 602 l 2
 486 616 482 621 467 621 c 2
 275 621 l 1
 229 375 l 1
 363 375 l 2
 377 375 384 380 388 394 c 2
 407 461 l 1
 463 461 l 1
 419 232 l 1
 362 232 l 1
 372 303 l 2
 374 316 367 323 353 323 c 2
 218 323 l 1
 166 50 l 1
 401 50 l 2
 415 50 422 58 426 70 c 2
 457 166 l 1
 518 166 l 1
 485 0 l 1
 -15 0 l 1x72
 -15 42 l 1
 43 47 l 2
 56 48 65 54 67 66 c 2
 171 604 l 2
 173 615 169 623 152 624 c 2
 96 629 l 1xaa
 96 671 l 1
 580 671 l 1x72
523 884 m 0x05
 523 865 515 853 500 843 c 2
 350 746 l 1
 279 746 l 1
 416 902 l 2
 429 917 443 927 473 927 c 0
 508 927 523 904 523 884 c 0x05
EndSplineSet
Substitution2: "'c2sc' Capitals to Small Capitals in Latin lookup 17 subtable" eacute.sc
Substitution2: "'c2sc' Capitals to Small Capitals in Cyrillic lookup 16 subtable" eacute.sc
Substitution2: "'c2sc' Capitals to Small Capitals lookup 15 subtable" eacute.sc
EndChar

StartChar: Ecircumflex
Encoding: 202 202 138
Width: 558
Flags: MW
HStem: 0 44 0 50<166 401 401 408 166 485> 323 52<229 353 218 363> 621 50<275 467 275 275> 626 44 746 169
VStem: -15 595 190 342<746 746>
LayerCount: 2
Fore
SplineSet
580 671 m 1x72
 550 521 l 1
 486 521 l 1
 486 602 l 2
 486 616 482 621 467 621 c 2
 275 621 l 1
 229 375 l 1
 363 375 l 2
 377 375 384 380 388 394 c 2
 407 461 l 1
 463 461 l 1
 419 232 l 1
 362 232 l 1
 372 303 l 2
 374 316 367 323 353 323 c 2
 218 323 l 1
 166 50 l 1
 401 50 l 2
 415 50 422 58 426 70 c 2
 457 166 l 1
 518 166 l 1
 485 0 l 1
 -15 0 l 1x72
 -15 42 l 1
 43 47 l 2
 56 48 65 54 67 66 c 2
 171 604 l 2
 173 615 169 623 152 624 c 2
 96 629 l 1xaa
 96 671 l 1
 580 671 l 1x72
532 746 m 1x05
 462 746 l 1
 380 838 l 1
 260 746 l 1
 190 746 l 1
 355 916 l 1
 434 916 l 1
 532 746 l 1x05
EndSplineSet
Substitution2: "'c2sc' Capitals to Small Capitals in Latin lookup 17 subtable" ecircumflex.sc
Substitution2: "'c2sc' Capitals to Small Capitals in Cyrillic lookup 16 subtable" ecircumflex.sc
Substitution2: "'c2sc' Capitals to Small Capitals lookup 15 subtable" ecircumflex.sc
EndChar

StartChar: Edieresis
Encoding: 203 203 139
Width: 558
Flags: MW
HStem: 0 44 0 50<166 401 401 408 166 485> 323 52<229 353 218 363> 621 50<275 467 275 275> 626 44 780 111<260.5 290 469 498>
VStem: -15 595 221 109<821 849.5> 428 109<821 850>
LayerCount: 2
Fore
SplineSet
580 671 m 1x72
 550 521 l 1
 486 521 l 1
 486 602 l 2
 486 616 482 621 467 621 c 2
 275 621 l 1
 229 375 l 1
 363 375 l 2
 377 375 384 380 388 394 c 2
 407 461 l 1
 463 461 l 1
 419 232 l 1
 362 232 l 1
 372 303 l 2
 374 316 367 323 353 323 c 2
 218 323 l 1
 166 50 l 1
 401 50 l 2
 415 50 422 58 426 70 c 2
 457 166 l 1
 518 166 l 1
 485 0 l 1
 -15 0 l 1x72
 -15 42 l 1
 43 47 l 2
 56 48 65 54 67 66 c 2
 171 604 l 2
 173 615 169 623 152 624 c 2
 96 629 l 1xaa
 96 671 l 1
 580 671 l 1x72
537 836 m 0x0580
 537 806 513 780 483 780 c 0
 453 780 428 806 428 836 c 0
 428 864 455 891 483 891 c 0
 513 891 537 866 537 836 c 0x0580
330 836 m 0
 330 806 305 780 275 780 c 0
 246 780 221 806 221 835 c 0
 221 864 246 891 275 891 c 0
 305 891 330 866 330 836 c 0
EndSplineSet
Substitution2: "'c2sc' Capitals to Small Capitals in Latin lookup 17 subtable" edieresis.sc
Substitution2: "'c2sc' Capitals to Small Capitals in Cyrillic lookup 16 subtable" edieresis.sc
Substitution2: "'c2sc' Capitals to Small Capitals lookup 15 subtable" edieresis.sc
EndChar

StartChar: Igrave
Encoding: 204 204 140
Width: 313
Flags: MW
HStem: 0 44 626 44 746 181<137.5 340 137.5 278>
VStem: -15 371 110 230<746 893>
LayerCount: 2
Fore
SplineSet
356 629 m 1xd0
 292 624 l 2
 279 623 275 617 272 604 c 2
 168 66 l 2
 166 56 170 48 188 47 c 2
 246 42 l 1
 246 0 l 1
 -15 0 l 1
 -15 42 l 1
 48 47 l 2
 60 48 65 54 67 66 c 2
 171 604 l 2
 173 615 169 623 152 624 c 2
 96 629 l 1
 96 671 l 1
 356 671 l 1
 356 629 l 1xd0
340 746 m 1x28
 278 746 l 1
 133 841 l 2
 119 850 110 863 110 883 c 0
 110 903 120 927 155 927 c 0
 183 927 194 916 206 902 c 2
 340 746 l 1x28
EndSplineSet
Substitution2: "'c2sc' Capitals to Small Capitals in Latin lookup 17 subtable" igrave.sc
Substitution2: "'c2sc' Capitals to Small Capitals in Cyrillic lookup 16 subtable" igrave.sc
Substitution2: "'c2sc' Capitals to Small Capitals lookup 15 subtable" igrave.sc
EndChar

StartChar: Iacute
Encoding: 205 205 141
Width: 313
Flags: MW
HStem: 0 44 626 44 746 181<159 370.5 159 370.5>
VStem: -15 371 159 244<746 894>
LayerCount: 2
Fore
SplineSet
356 629 m 1xd0
 292 624 l 2
 279 623 275 617 272 604 c 2
 168 66 l 2
 166 56 170 48 188 47 c 2
 246 42 l 1
 246 0 l 1
 -15 0 l 1
 -15 42 l 1
 48 47 l 2
 60 48 65 54 67 66 c 2
 171 604 l 2
 173 615 169 623 152 624 c 2
 96 629 l 1
 96 671 l 1
 356 671 l 1
 356 629 l 1xd0
403 884 m 0x28
 403 865 394 853 379 843 c 2
 229 746 l 1
 159 746 l 1
 295 902 l 2
 308 917 323 927 353 927 c 0
 388 927 403 904 403 884 c 0x28
EndSplineSet
Substitution2: "'c2sc' Capitals to Small Capitals in Latin lookup 17 subtable" iacute.sc
Substitution2: "'c2sc' Capitals to Small Capitals in Cyrillic lookup 16 subtable" iacute.sc
Substitution2: "'c2sc' Capitals to Small Capitals lookup 15 subtable" iacute.sc
EndChar

StartChar: Icircumflex
Encoding: 206 206 142
Width: 313
Flags: MW
HStem: 0 44 626 44 746 169
VStem: -15 371 70 342<746 746>
LayerCount: 2
Fore
SplineSet
356 629 m 1xd0
 292 624 l 2
 279 623 275 617 272 604 c 2
 168 66 l 2
 166 56 170 48 188 47 c 2
 246 42 l 1
 246 0 l 1
 -15 0 l 1
 -15 42 l 1
 48 47 l 2
 60 48 65 54 67 66 c 2
 171 604 l 2
 173 615 169 623 152 624 c 2
 96 629 l 1
 96 671 l 1
 356 671 l 1
 356 629 l 1xd0
412 746 m 1x28
 342 746 l 1
 260 838 l 1
 140 746 l 1
 70 746 l 1
 235 916 l 1
 313 916 l 1
 412 746 l 1x28
EndSplineSet
Substitution2: "'c2sc' Capitals to Small Capitals in Latin lookup 17 subtable" icircumflex.sc
Substitution2: "'c2sc' Capitals to Small Capitals in Cyrillic lookup 16 subtable" icircumflex.sc
Substitution2: "'c2sc' Capitals to Small Capitals lookup 15 subtable" icircumflex.sc
EndChar

StartChar: Idieresis
Encoding: 207 207 143
Width: 313
Flags: MW
HStem: 0 44 626 44 780 111<140.5 170 349 378>
VStem: -15 371 101 109<821 849.5> 308 109<821 850>
LayerCount: 2
Fore
SplineSet
356 629 m 1xd0
 292 624 l 2
 279 623 275 617 272 604 c 2
 168 66 l 2
 166 56 170 48 188 47 c 2
 246 42 l 1
 246 0 l 1
 -15 0 l 1
 -15 42 l 1
 48 47 l 2
 60 48 65 54 67 66 c 2
 171 604 l 2
 173 615 169 623 152 624 c 2
 96 629 l 1
 96 671 l 1
 356 671 l 1
 356 629 l 1xd0
417 836 m 0x2c
 417 806 393 780 363 780 c 0
 333 780 308 806 308 836 c 0
 308 864 335 891 363 891 c 0
 393 891 417 866 417 836 c 0x2c
210 836 m 0
 210 806 185 780 155 780 c 0
 126 780 101 806 101 835 c 0
 101 864 126 891 155 891 c 0
 185 891 210 866 210 836 c 0
EndSplineSet
Substitution2: "'c2sc' Capitals to Small Capitals in Latin lookup 17 subtable" idieresis.sc
Substitution2: "'c2sc' Capitals to Small Capitals in Cyrillic lookup 16 subtable" idieresis.sc
Substitution2: "'c2sc' Capitals to Small Capitals lookup 15 subtable" idieresis.sc
EndChar

StartChar: Eth
Encoding: 208 208 144
Width: 670
Flags: MW
HStem: 0 44 0 52<165 220> 326 53<29 347 29 347> 621 50<275 311 275 275> 626 44
VStem: 29 318<326 379 326 379> 545 108<329 507.5>
LayerCount: 2
Fore
SplineSet
29 326 m 1x24
 29 379 l 1
 347 379 l 1
 347 326 l 1
 29 326 l 1x24
653 415 m 0x00
 653 169 476 0 220 0 c 2
 -15 0 l 1x8a
 -15 42 l 1
 47 47 l 2
 60 48 64 54 67 66 c 2
 171 604 l 2
 173 615 169 623 151 624 c 2
 95 629 l 1x52
 95 671 l 1
 334 671 l 2
 516 671 653 605 653 415 c 0x00
545 424 m 0
 545 591 435 617 311 621 c 1
 275 621 l 1
 165 52 l 1
 238 52 l 2
 440 54 545 234 545 424 c 0
EndSplineSet
Substitution2: "'c2sc' Capitals to Small Capitals in Latin lookup 17 subtable" eth.sc
Substitution2: "'c2sc' Capitals to Small Capitals in Cyrillic lookup 16 subtable" eth.sc
Substitution2: "'c2sc' Capitals to Small Capitals lookup 15 subtable" eth.sc
EndChar

StartChar: Ntilde
Encoding: 209 209 145
Width: 710
Flags: MW
HStem: 0 44 626 44 780 60<520.5 536> 826 60<369 385.5>
VStem: -14 769<0 629 42 629> 261 384<780 886>
LayerCount: 2
Fore
SplineSet
755 629 m 1xc8
 698 624 l 2
 685 623 676 617 673 604 c 2
 555 0 l 1
 483 0 l 1
 231 531 l 1
 142 66 l 2
 140 56 144 48 162 47 c 2
 218 42 l 1
 218 0 l 1
 -14 0 l 1
 -14 42 l 1
 43 47 l 2
 56 48 65 54 68 66 c 2
 171 604 l 2
 173 615 169 623 152 624 c 2
 96 629 l 1
 96 671 l 1
 289 671 l 1
 289 645 l 1
 514 168 l 1
 599 604 l 2
 601 615 597 623 580 624 c 2
 523 629 l 1
 523 671 l 1
 755 671 l 1
 755 629 l 1xc8
645 886 m 1x24
 617 828 572 780 500 780 c 0x24
 473 780 455 790 434 803 c 0
 417 814 401 826 370 826 c 0
 353 826 325 807 314 780 c 1
 261 780 l 1
 289 838 333 886 405 886 c 0x14
 432 886 451 876 472 862 c 0
 489 852 505 840 536 840 c 0
 554 840 581 859 592 886 c 1
 645 886 l 1x24
EndSplineSet
Substitution2: "'c2sc' Capitals to Small Capitals in Latin lookup 17 subtable" ntilde.sc
Substitution2: "'c2sc' Capitals to Small Capitals in Cyrillic lookup 16 subtable" ntilde.sc
Substitution2: "'c2sc' Capitals to Small Capitals lookup 15 subtable" ntilde.sc
EndChar

StartChar: Ograve
Encoding: 210 210 146
Width: 709
Flags: MW
HStem: -16 52<280.5 400 280.5 437.5> 637 50<338 459> 746 181<335.5 538 335.5 476>
VStem: 48 113<186.5 342.5 186.5 369.5> 308 230<746 893> 577 114<332 483.5>
LayerCount: 2
Fore
SplineSet
691 417 m 0
 691 206 555 -16 320 -16 c 0
 160 -16 48 94 48 262 c 0
 48 477 200 687 420 687 c 0
 586 687 691 566 691 417 c 0
577 417 m 0
 577 550 507 637 411 637 c 0
 265 637 161 431 161 254 c 0
 161 119 234 36 327 36 c 0
 473 36 577 247 577 417 c 0
538 746 m 1
 476 746 l 1
 331 841 l 2
 317 850 308 863 308 883 c 0
 308 903 318 927 353 927 c 0
 381 927 392 916 404 902 c 2
 538 746 l 1
EndSplineSet
Substitution2: "'c2sc' Capitals to Small Capitals in Latin lookup 17 subtable" ograve.sc
Substitution2: "'c2sc' Capitals to Small Capitals in Cyrillic lookup 16 subtable" ograve.sc
Substitution2: "'c2sc' Capitals to Small Capitals lookup 15 subtable" ograve.sc
EndChar

StartChar: Oacute
Encoding: 211 211 147
Width: 709
Flags: MW
HStem: -16 52<280.5 400 280.5 437.5> 637 50<338 459> 746 181<357 567.5 357 567.5>
VStem: 48 113<186.5 342.5 186.5 369.5> 357 244<746 894> 577 114<332 483.5>
LayerCount: 2
Fore
SplineSet
691 417 m 0xd4
 691 206 555 -16 320 -16 c 0
 160 -16 48 94 48 262 c 0
 48 477 200 687 420 687 c 0
 586 687 691 566 691 417 c 0xd4
577 417 m 0
 577 550 507 637 411 637 c 0
 265 637 161 431 161 254 c 0
 161 119 234 36 327 36 c 0
 473 36 577 247 577 417 c 0
601 884 m 0x28
 601 865 592 853 577 843 c 2
 427 746 l 1
 357 746 l 1
 493 902 l 2
 506 917 520 927 550 927 c 0
 585 927 601 904 601 884 c 0x28
EndSplineSet
Substitution2: "'c2sc' Capitals to Small Capitals in Latin lookup 17 subtable" oacute.sc
Substitution2: "'c2sc' Capitals to Small Capitals in Cyrillic lookup 16 subtable" oacute.sc
Substitution2: "'c2sc' Capitals to Small Capitals lookup 15 subtable" oacute.sc
EndChar

StartChar: Ocircumflex
Encoding: 212 212 148
Width: 709
Flags: MW
HStem: -16 52<280.5 400 280.5 437.5> 637 50<338 459> 746 169
VStem: 48 113<186.5 342.5 186.5 369.5> 268 342 577 114<332 483.5>
LayerCount: 2
Fore
SplineSet
691 417 m 0xd4
 691 206 555 -16 320 -16 c 0
 160 -16 48 94 48 262 c 0
 48 477 200 687 420 687 c 0
 586 687 691 566 691 417 c 0xd4
577 417 m 0
 577 550 507 637 411 637 c 0
 265 637 161 431 161 254 c 0
 161 119 234 36 327 36 c 0
 473 36 577 247 577 417 c 0
609 746 m 1x28
 540 746 l 1
 458 838 l 1
 337 746 l 1
 268 746 l 1
 433 916 l 1
 511 916 l 1
 609 746 l 1x28
EndSplineSet
Substitution2: "'c2sc' Capitals to Small Capitals in Latin lookup 17 subtable" ocircumflex.sc
Substitution2: "'c2sc' Capitals to Small Capitals in Cyrillic lookup 16 subtable" ocircumflex.sc
Substitution2: "'c2sc' Capitals to Small Capitals lookup 15 subtable" ocircumflex.sc
EndChar

StartChar: Otilde
Encoding: 213 213 149
Width: 709
Flags: MW
HStem: -16 52<280.5 400 280.5 437.5> 637 50<338 459> 780 60<523.5 539> 826 60<372 388.5>
VStem: 48 113<186.5 342.5 186.5 369.5> 264 384<780 886> 577 114<332 483.5>
LayerCount: 2
Fore
SplineSet
691 417 m 0xca
 691 206 555 -16 320 -16 c 0
 160 -16 48 94 48 262 c 0
 48 477 200 687 420 687 c 0
 586 687 691 566 691 417 c 0xca
577 417 m 0
 577 550 507 637 411 637 c 0
 265 637 161 431 161 254 c 0
 161 119 234 36 327 36 c 0
 473 36 577 247 577 417 c 0
648 886 m 1x24
 620 828 575 780 503 780 c 0x24
 476 780 458 790 437 803 c 0
 420 814 404 826 373 826 c 0
 356 826 328 807 317 780 c 1
 264 780 l 1
 292 838 336 886 408 886 c 0x14
 435 886 454 876 475 862 c 0
 492 852 508 840 539 840 c 0
 557 840 584 859 595 886 c 1
 648 886 l 1x24
EndSplineSet
Substitution2: "'c2sc' Capitals to Small Capitals in Latin lookup 17 subtable" otilde.sc
Substitution2: "'c2sc' Capitals to Small Capitals in Cyrillic lookup 16 subtable" otilde.sc
Substitution2: "'c2sc' Capitals to Small Capitals lookup 15 subtable" otilde.sc
EndChar

StartChar: Odieresis
Encoding: 214 214 150
Width: 709
Flags: MW
HStem: -16 52<280.5 400 280.5 437.5> 637 50<338 459> 780 111<338.5 368 547 576>
VStem: 48 113<186.5 342.5 186.5 369.5> 299 109<821 849.5> 506 109<821 850> 577 114<332 483.5>
LayerCount: 2
Fore
SplineSet
691 417 m 0xd2
 691 206 555 -16 320 -16 c 0
 160 -16 48 94 48 262 c 0
 48 477 200 687 420 687 c 0
 586 687 691 566 691 417 c 0xd2
577 417 m 0
 577 550 507 637 411 637 c 0
 265 637 161 431 161 254 c 0
 161 119 234 36 327 36 c 0
 473 36 577 247 577 417 c 0
615 836 m 0x2c
 615 806 591 780 561 780 c 0
 531 780 506 806 506 836 c 0
 506 864 533 891 561 891 c 0
 591 891 615 866 615 836 c 0x2c
408 836 m 0
 408 806 383 780 353 780 c 0
 324 780 299 806 299 835 c 0
 299 864 324 891 353 891 c 0
 383 891 408 866 408 836 c 0
EndSplineSet
Substitution2: "'c2sc' Capitals to Small Capitals in Latin lookup 17 subtable" odieresis.sc
Substitution2: "'c2sc' Capitals to Small Capitals in Cyrillic lookup 16 subtable" odieresis.sc
Substitution2: "'c2sc' Capitals to Small Capitals lookup 15 subtable" odieresis.sc
EndChar

StartChar: multiply
Encoding: 215 215 151
Width: 1000
Flags: MW
HStem: 30 540<269 269 269 731>
VStem: 230 540<69 69 69 531>
LayerCount: 2
Fore
SplineSet
770 69 m 1
 731 30 l 1
 500 262 l 1
 269 30 l 1
 230 69 l 1
 460 300 l 1
 230 531 l 1
 269 570 l 1
 500 338 l 1
 731 570 l 1
 770 531 l 1
 540 300 l 1
 770 69 l 1
EndSplineSet
EndChar

StartChar: Oslash
Encoding: 216 216 152
Width: 709
Flags: MW
HStem: -16 52<306.5 400 306.5 437.5> 637 50<338 427>
VStem: 48 113<230 342.5 230 369.5> 577 114<331.5 447.5>
LayerCount: 2
Fore
SplineSet
691 417 m 0
 691 206 555 -16 320 -16 c 0
 267 -16 219 -4 179 19 c 1
 114 -80 l 1
 71 -48 l 1
 134 50 l 1
 80 99 48 172 48 262 c 0
 48 477 200 687 420 687 c 0
 462 687 500 679 533 666 c 1
 587 749 l 1
 638 718 l 1
 584 637 l 1
 652 588 691 508 691 417 c 0
497 609 m 1
 472 627 443 637 411 637 c 0
 265 637 161 431 161 254 c 0
 161 206 170 164 187 130 c 1
 497 609 l 1
577 417 m 0
 577 478 563 528 538 566 c 1
 220 82 l 1
 249 52 286 36 327 36 c 0
 473 36 577 246 577 417 c 0
EndSplineSet
Substitution2: "'c2sc' Capitals to Small Capitals in Latin lookup 17 subtable" oslash.sc
Substitution2: "'c2sc' Capitals to Small Capitals in Cyrillic lookup 16 subtable" oslash.sc
Substitution2: "'c2sc' Capitals to Small Capitals lookup 15 subtable" oslash.sc
EndChar

StartChar: Ugrave
Encoding: 217 217 153
Width: 707
Flags: MW
HStem: -16 65<294 390.5> 626 44 746 181<338.5 541 338.5 479>
VStem: 92 104<133 169> 311 230<746 893>
LayerCount: 2
Fore
SplineSet
749 629 m 1
 691 624 l 2
 679 623 669 617 667 604 c 2
 590 214 l 2
 562 69 470 -16 311 -16 c 0
 188 -16 92 32 92 159 c 0
 92 179 96 218 105 264 c 2
 175 604 l 2
 177 615 173 623 155 624 c 2
 99 629 l 1
 99 671 l 1
 359 671 l 1
 359 629 l 1
 300 624 l 2
 288 623 278 617 276 604 c 2
 207 264 l 2
 199 225 196 193 196 175 c 0
 196 91 251 49 337 49 c 0
 467 49 508 142 529 249 c 2
 599 604 l 2
 601 615 597 623 579 624 c 2
 523 629 l 1
 523 671 l 1
 749 671 l 1
 749 629 l 1
541 746 m 1
 479 746 l 1
 334 841 l 2
 320 850 311 863 311 883 c 0
 311 903 321 927 356 927 c 0
 384 927 395 916 407 902 c 2
 541 746 l 1
EndSplineSet
Substitution2: "'c2sc' Capitals to Small Capitals in Latin lookup 17 subtable" ugrave.sc
Substitution2: "'c2sc' Capitals to Small Capitals in Cyrillic lookup 16 subtable" ugrave.sc
Substitution2: "'c2sc' Capitals to Small Capitals lookup 15 subtable" ugrave.sc
EndChar

StartChar: Uacute
Encoding: 218 218 154
Width: 707
Flags: MW
HStem: -16 65<294 390.5> 626 44 746 181<360 571.5 360 571.5>
VStem: 92 104<133 169> 360 244<746 894>
LayerCount: 2
Fore
SplineSet
749 629 m 1
 691 624 l 2
 679 623 669 617 667 604 c 2
 590 214 l 2
 562 69 470 -16 311 -16 c 0
 188 -16 92 32 92 159 c 0
 92 179 96 218 105 264 c 2
 175 604 l 2
 177 615 173 623 155 624 c 2
 99 629 l 1
 99 671 l 1
 359 671 l 1
 359 629 l 1
 300 624 l 2
 288 623 278 617 276 604 c 2
 207 264 l 2
 199 225 196 193 196 175 c 0
 196 91 251 49 337 49 c 0
 467 49 508 142 529 249 c 2
 599 604 l 2
 601 615 597 623 579 624 c 2
 523 629 l 1
 523 671 l 1
 749 671 l 1
 749 629 l 1
604 884 m 0
 604 865 596 853 581 843 c 2
 431 746 l 1
 360 746 l 1
 497 902 l 2
 510 917 524 927 554 927 c 0
 589 927 604 904 604 884 c 0
EndSplineSet
Substitution2: "'c2sc' Capitals to Small Capitals in Latin lookup 17 subtable" uacute.sc
Substitution2: "'c2sc' Capitals to Small Capitals in Cyrillic lookup 16 subtable" uacute.sc
Substitution2: "'c2sc' Capitals to Small Capitals lookup 15 subtable" uacute.sc
EndChar

StartChar: Ucircumflex
Encoding: 219 219 155
Width: 707
Flags: MW
HStem: -16 65<294 390.5> 626 44 746 169
VStem: 92 104<133 169> 271 342<746 746>
LayerCount: 2
Fore
SplineSet
749 629 m 1
 691 624 l 2
 679 623 669 617 667 604 c 2
 590 214 l 2
 562 69 470 -16 311 -16 c 0
 188 -16 92 32 92 159 c 0
 92 179 96 218 105 264 c 2
 175 604 l 2
 177 615 173 623 155 624 c 2
 99 629 l 1
 99 671 l 1
 359 671 l 1
 359 629 l 1
 300 624 l 2
 288 623 278 617 276 604 c 2
 207 264 l 2
 199 225 196 193 196 175 c 0
 196 91 251 49 337 49 c 0
 467 49 508 142 529 249 c 2
 599 604 l 2
 601 615 597 623 579 624 c 2
 523 629 l 1
 523 671 l 1
 749 671 l 1
 749 629 l 1
613 746 m 1
 543 746 l 1
 461 838 l 1
 341 746 l 1
 271 746 l 1
 436 916 l 1
 515 916 l 1
 613 746 l 1
EndSplineSet
Substitution2: "'c2sc' Capitals to Small Capitals in Latin lookup 17 subtable" ucircumflex.sc
Substitution2: "'c2sc' Capitals to Small Capitals in Cyrillic lookup 16 subtable" ucircumflex.sc
Substitution2: "'c2sc' Capitals to Small Capitals lookup 15 subtable" ucircumflex.sc
EndChar

StartChar: Udieresis
Encoding: 220 220 156
Width: 707
Flags: MW
HStem: -16 65<294 390.5> 626 44 780 111<341.5 371 550 579>
VStem: 92 104<133 169> 302 109<821 849.5> 509 109<821 850>
LayerCount: 2
Fore
SplineSet
749 629 m 1
 691 624 l 2
 679 623 669 617 667 604 c 2
 590 214 l 2
 562 69 470 -16 311 -16 c 0
 188 -16 92 32 92 159 c 0
 92 179 96 218 105 264 c 2
 175 604 l 2
 177 615 173 623 155 624 c 2
 99 629 l 1
 99 671 l 1
 359 671 l 1
 359 629 l 1
 300 624 l 2
 288 623 278 617 276 604 c 2
 207 264 l 2
 199 225 196 193 196 175 c 0
 196 91 251 49 337 49 c 0
 467 49 508 142 529 249 c 2
 599 604 l 2
 601 615 597 623 579 624 c 2
 523 629 l 1
 523 671 l 1
 749 671 l 1
 749 629 l 1
618 836 m 0
 618 806 594 780 564 780 c 0
 534 780 509 806 509 836 c 0
 509 864 536 891 564 891 c 0
 594 891 618 866 618 836 c 0
411 836 m 0
 411 806 386 780 356 780 c 0
 327 780 302 806 302 835 c 0
 302 864 327 891 356 891 c 0
 386 891 411 866 411 836 c 0
EndSplineSet
Substitution2: "'c2sc' Capitals to Small Capitals in Latin lookup 17 subtable" udieresis.sc
Substitution2: "'c2sc' Capitals to Small Capitals in Cyrillic lookup 16 subtable" udieresis.sc
Substitution2: "'c2sc' Capitals to Small Capitals lookup 15 subtable" udieresis.sc
EndChar

StartChar: Yacute
Encoding: 221 221 157
Width: 639
Flags: MW
HStem: 0 44 627 44 746 181<325 536.5 325 536.5>
VStem: 84 627<629 671 629 671> 325 244<746 894>
LayerCount: 2
Fore
SplineSet
711 629 m 1xd0
 655 625 l 2
 645 624 634 615 629 610 c 2
 375 281 l 1
 333 66 l 2
 330 56 335 48 352 47 c 2
 408 42 l 1
 408 0 l 1
 148 0 l 1
 148 42 l 1
 206 47 l 2
 218 48 227 54 230 66 c 2
 271 272 l 1
 159 610 l 2
 155 623 147 624 140 625 c 2
 84 629 l 1
 84 671 l 1
 343 671 l 1
 343 629 l 1
 279 625 l 2
 268 624 261 616 265 605 c 2
 347 345 l 1
 540 605 l 2
 546 614 549 624 532 625 c 2
 470 629 l 1
 470 671 l 1
 711 671 l 1
 711 629 l 1xd0
569 884 m 0x28
 569 865 560 853 545 843 c 2
 396 746 l 1
 325 746 l 1
 461 902 l 2
 474 917 489 927 519 927 c 0
 554 927 569 904 569 884 c 0x28
EndSplineSet
Substitution2: "'c2sc' Capitals to Small Capitals in Latin lookup 17 subtable" yacute.sc
Substitution2: "'c2sc' Capitals to Small Capitals in Cyrillic lookup 16 subtable" yacute.sc
Substitution2: "'c2sc' Capitals to Small Capitals lookup 15 subtable" yacute.sc
EndChar

StartChar: Thorn
Encoding: 222 222 158
Width: 565
Flags: MW
HStem: 0 44 125 52 499 46<280 318 318 343.5> 626 44
VStem: 441 104<330 407.5>
LayerCount: 2
Fore
SplineSet
545 385 m 0
 545 224 415 125 241 125 c 0
 221 125 177 126 177 126 c 1
 166 66 l 2
 164 56 168 48 186 47 c 2
 243 42 l 1
 243 0 l 1
 -17 0 l 1
 -17 42 l 1
 41 47 l 2
 53 48 62 54 65 66 c 2
 170 604 l 2
 172 615 168 623 150 624 c 2
 94 629 l 1
 94 671 l 1
 352 671 l 1
 352 629 l 1
 294 624 l 2
 282 623 272 617 270 604 c 2
 259 545 l 1
 318 545 l 2
 481 545 545 479 545 385 c 0
441 369 m 0
 441 446 401 499 286 499 c 0
 274 499 258 498 249 497 c 1
 187 178 l 1
 245 173 306 182 354 210 c 0
 403 240 441 291 441 369 c 0
EndSplineSet
Substitution2: "'c2sc' Capitals to Small Capitals in Latin lookup 17 subtable" thorn.sc
Substitution2: "'c2sc' Capitals to Small Capitals in Cyrillic lookup 16 subtable" thorn.sc
Substitution2: "'c2sc' Capitals to Small Capitals lookup 15 subtable" thorn.sc
EndChar

StartChar: germandbls
Encoding: 223 223 159
Width: 556
Flags: MW
HStem: -229 21G<-119 -56> -12 41<331.5 364 331.5 378.5> 688 49<324 391>
VStem: 262 80<350.5 374.5> 426 91<96.5 133> 446 84<586.5 634.5>
LayerCount: 2
Fore
SplineSet
530 605 m 0xf4
 530 547 512 489 496 434 c 1xf4
 472 436 459 437 446 437 c 0
 413 437 342 426 342 369 c 0
 342 332 386 301 430 266 c 0
 474 232 517 195 517 146 c 0
 517 47 430 -12 327 -12 c 0
 259 -12 185 13 185 81 c 0
 185 109 205 132 245 132 c 0
 267 132 279 125 297 113 c 1
 279 63 l 1
 300 37 320 29 343 29 c 0
 385 29 426 58 426 113 c 0xf8
 426 153 389 180 343 215 c 0
 302 247 262 281 262 333 c 0
 262 416 336 473 424 481 c 1
 436 523 446 566 446 607 c 0
 446 662 413 688 369 688 c 0
 279 688 227 601 198 493 c 0
 151 317 165 132 102 -41 c 0
 78 -106 -14 -229 -98 -229 c 0
 -140 -229 -160 -207 -160 -175 c 0
 -160 -159 -151 -144 -134 -131 c 1
 -31 -158 l 1
 10 -118 34 17 41 63 c 2
 99 455 l 2
 121 599 203 737 375 737 c 0
 469 737 530 692 530 605 c 0xf4
EndSplineSet
Substitution2: "'smcp' Lowercase to Small Capitals in Latin lookup 14 subtable" germandbls.sc
Substitution2: "'smcp' Lowercase to Small Capitals in Cyrillic lookup 13 subtable" germandbls.sc
Substitution2: "'smcp' Lowercase to Small Capitals lookup 12 subtable" germandbls.sc
Substitution2: "'aalt' Access All Alternates lookup 0 subtable" germandbls.sc
EndChar

StartChar: agrave
Encoding: 224 224 160
Width: 520
Flags: MW
HStem: -12 59<364 459> -12 66<177 207> 446 48<257.5 338.5 226.5 340> 472 21G 551 181<243.5 446 243.5 384>
VStem: 32 99<145 228 145 244.5> 216 230<551 698> 319 90<75.5 116>
LayerCount: 2
Fore
SplineSet
518 27 m 1x64
 502 20 427 -12 388 -12 c 0
 340 -12 323 12 319 56 c 1
 289 28 237 -12 177 -12 c 0
 59 -12 32 95 32 167 c 0
 32 322 133 494 320 494 c 0
 357 494 392 476 410 458 c 1x65
 425 482 l 1
 493 482 l 1
 487 467 476 435 474 425 c 0
 460 372 409 137 409 93 c 0
 409 58 425 47 452 47 c 0
 466 47 508 61 518 63 c 1x95
 518 27 l 1x64
371 392 m 2
 372 399 346 446 334 446 c 0
 181 446 131 283 131 173 c 0
 131 117 146 54 208 54 c 0
 255 54 305 102 319 116 c 1
 371 392 l 2
446 551 m 1x0a
 384 551 l 1
 239 646 l 2
 225 655 216 668 216 688 c 0
 216 708 226 732 261 732 c 0
 289 732 300 721 312 707 c 2
 446 551 l 1x0a
EndSplineSet
Substitution2: "'ss05' Style Set 5 in Latin lookup 41 subtable" agrave.2StorySItal
Substitution2: "'ss05' Style Set 5 in Cyrillic lookup 40 subtable" agrave.2StorySItal
Substitution2: "'ss05' Style Set 5 lookup 39 subtable" agrave.2StorySItal
Substitution2: "'ss07' Style Set 7 in Latin lookup 35 subtable" agrave.SngStory
Substitution2: "'ss07' Style Set 7 in Cyrillic lookup 34 subtable" agrave.SngStory
Substitution2: "'ss07' Style Set 7 lookup 33 subtable" agrave.SngStory
Substitution2: "'smcp' Lowercase to Small Capitals in Latin lookup 14 subtable" agrave.sc
Substitution2: "'smcp' Lowercase to Small Capitals in Cyrillic lookup 13 subtable" agrave.sc
Substitution2: "'smcp' Lowercase to Small Capitals lookup 12 subtable" agrave.sc
AlternateSubs2: "'aalt' Access All Alternates lookup 1 subtable" agrave.sc agrave.SngStory agrave.2StorySItal
EndChar

StartChar: aacute
Encoding: 225 225 161
Width: 520
Flags: MW
HStem: -12 59<364 459> -12 66<177 207> 446 48<257.5 338.5 226.5 340> 472 21G 551 181<265 475.5 265 475.5>
VStem: 32 99<145 228 145 244.5> 265 244<551 699> 319 90<75.5 116>
LayerCount: 2
Fore
SplineSet
518 27 m 1x64
 502 20 427 -12 388 -12 c 0
 340 -12 323 12 319 56 c 1
 289 28 237 -12 177 -12 c 0
 59 -12 32 95 32 167 c 0
 32 322 133 494 320 494 c 0
 357 494 392 476 410 458 c 1x65
 425 482 l 1
 493 482 l 1
 487 467 476 435 474 425 c 0
 460 372 409 137 409 93 c 0
 409 58 425 47 452 47 c 0
 466 47 508 61 518 63 c 1x95
 518 27 l 1x64
371 392 m 2
 372 399 346 446 334 446 c 0
 181 446 131 283 131 173 c 0
 131 117 146 54 208 54 c 0
 255 54 305 102 319 116 c 1
 371 392 l 2
509 689 m 0x0a
 509 670 500 658 485 648 c 2
 335 551 l 1
 265 551 l 1
 401 707 l 2
 414 722 428 732 458 732 c 0
 493 732 509 709 509 689 c 0x0a
EndSplineSet
Substitution2: "'ss05' Style Set 5 in Latin lookup 41 subtable" aacute.2StorySItal
Substitution2: "'ss05' Style Set 5 in Cyrillic lookup 40 subtable" aacute.2StorySItal
Substitution2: "'ss05' Style Set 5 lookup 39 subtable" aacute.2StorySItal
Substitution2: "'ss07' Style Set 7 in Latin lookup 35 subtable" aacute.SngStory
Substitution2: "'ss07' Style Set 7 in Cyrillic lookup 34 subtable" aacute.SngStory
Substitution2: "'ss07' Style Set 7 lookup 33 subtable" aacute.SngStory
Substitution2: "'smcp' Lowercase to Small Capitals in Latin lookup 14 subtable" aacute.sc
Substitution2: "'smcp' Lowercase to Small Capitals in Cyrillic lookup 13 subtable" aacute.sc
Substitution2: "'smcp' Lowercase to Small Capitals lookup 12 subtable" aacute.sc
AlternateSubs2: "'aalt' Access All Alternates lookup 1 subtable" aacute.sc aacute.SngStory aacute.2StorySItal
EndChar

StartChar: acircumflex
Encoding: 226 226 162
Width: 520
Flags: MW
HStem: -12 59<364 459> -12 66<177 207> 446 48<257.5 338.5 226.5 340> 472 21G 551 169<176 419 176 419 341 518 341 448>
VStem: 32 99<145 228 145 244.5> 176 342<551 551> 319 90<75.5 116>
LayerCount: 2
Fore
SplineSet
518 27 m 1x64
 502 20 427 -12 388 -12 c 0
 340 -12 323 12 319 56 c 1
 289 28 237 -12 177 -12 c 0
 59 -12 32 95 32 167 c 0
 32 322 133 494 320 494 c 0
 357 494 392 476 410 458 c 1x65
 425 482 l 1
 493 482 l 1
 487 467 476 435 474 425 c 0
 460 372 409 137 409 93 c 0
 409 58 425 47 452 47 c 0
 466 47 508 61 518 63 c 1x95
 518 27 l 1x64
371 392 m 2
 372 399 346 446 334 446 c 0
 181 446 131 283 131 173 c 0
 131 117 146 54 208 54 c 0
 255 54 305 102 319 116 c 1
 371 392 l 2
518 551 m 1x0a
 448 551 l 1
 366 643 l 1
 246 551 l 1
 176 551 l 1
 341 720 l 1
 419 720 l 1
 518 551 l 1x0a
EndSplineSet
Substitution2: "'ss05' Style Set 5 in Latin lookup 41 subtable" acircumflex.2StorySItal
Substitution2: "'ss05' Style Set 5 in Cyrillic lookup 40 subtable" acircumflex.2StorySItal
Substitution2: "'ss05' Style Set 5 lookup 39 subtable" acircumflex.2StorySItal
Substitution2: "'ss07' Style Set 7 in Latin lookup 35 subtable" acircumflex.SngStory
Substitution2: "'ss07' Style Set 7 in Cyrillic lookup 34 subtable" acircumflex.SngStory
Substitution2: "'ss07' Style Set 7 lookup 33 subtable" acircumflex.SngStory
Substitution2: "'smcp' Lowercase to Small Capitals in Latin lookup 14 subtable" acircumflex.sc
Substitution2: "'smcp' Lowercase to Small Capitals in Cyrillic lookup 13 subtable" acircumflex.sc
Substitution2: "'smcp' Lowercase to Small Capitals lookup 12 subtable" acircumflex.sc
AlternateSubs2: "'aalt' Access All Alternates lookup 1 subtable" acircumflex.sc acircumflex.SngStory acircumflex.2StorySItal
EndChar

StartChar: atilde
Encoding: 227 227 163
Width: 520
Flags: MW
HStem: -12 59<364 459> -12 66<177 207> 446 48<257.5 338.5 226.5 340> 472 21G 585 60<431.5 447> 631 60<280 296.5>
VStem: 32 99<145 228 145 244.5> 172 384<585 691> 319 90<75.5 116>
LayerCount: 2
Fore
SplineSet
518 27 m 1x62
 502 20 427 -12 388 -12 c 0
 340 -12 323 12 319 56 c 1
 289 28 237 -12 177 -12 c 0
 59 -12 32 95 32 167 c 0
 32 322 133 494 320 494 c 0
 357 494 392 476 410 458 c 1x6280
 425 482 l 1
 493 482 l 1
 487 467 476 435 474 425 c 0
 460 372 409 137 409 93 c 0
 409 58 425 47 452 47 c 0
 466 47 508 61 518 63 c 1x9280
 518 27 l 1x62
371 392 m 2
 372 399 346 446 334 446 c 0
 181 446 131 283 131 173 c 0
 131 117 146 54 208 54 c 0
 255 54 305 102 319 116 c 1
 371 392 l 2
556 691 m 1x09
 528 633 483 585 411 585 c 0x09
 384 585 366 595 345 608 c 0
 328 619 312 631 281 631 c 0
 264 631 236 612 225 585 c 1
 172 585 l 1
 200 643 244 691 316 691 c 0x05
 343 691 362 681 383 667 c 0
 400 657 416 645 447 645 c 0
 465 645 492 664 503 691 c 1
 556 691 l 1x09
EndSplineSet
Substitution2: "'ss05' Style Set 5 in Latin lookup 41 subtable" atilde.2StorySItal
Substitution2: "'ss05' Style Set 5 in Cyrillic lookup 40 subtable" atilde.2StorySItal
Substitution2: "'ss05' Style Set 5 lookup 39 subtable" atilde.2StorySItal
Substitution2: "'ss07' Style Set 7 in Latin lookup 35 subtable" atilde.SngStory
Substitution2: "'ss07' Style Set 7 in Cyrillic lookup 34 subtable" atilde.SngStory
Substitution2: "'ss07' Style Set 7 lookup 33 subtable" atilde.SngStory
Substitution2: "'smcp' Lowercase to Small Capitals in Latin lookup 14 subtable" atilde.sc
Substitution2: "'smcp' Lowercase to Small Capitals in Cyrillic lookup 13 subtable" atilde.sc
Substitution2: "'smcp' Lowercase to Small Capitals lookup 12 subtable" atilde.sc
AlternateSubs2: "'aalt' Access All Alternates lookup 1 subtable" atilde.sc atilde.SngStory atilde.2StorySItal
EndChar

StartChar: adieresis
Encoding: 228 228 164
Width: 520
Flags: MW
HStem: -12 59<364 459> -12 66<177 207> 446 48<257.5 338.5 226.5 340> 472 21G 585 111<246.5 276 455 484>
VStem: 32 99<145 228 145 244.5> 207 109<626 654.5> 319 90<75.5 116> 414 109<626 655>
LayerCount: 2
Fore
SplineSet
518 27 m 1x64
 502 20 427 -12 388 -12 c 0
 340 -12 323 12 319 56 c 1
 289 28 237 -12 177 -12 c 0
 59 -12 32 95 32 167 c 0
 32 322 133 494 320 494 c 0
 357 494 392 476 410 458 c 1x65
 425 482 l 1
 493 482 l 1
 487 467 476 435 474 425 c 0
 460 372 409 137 409 93 c 0
 409 58 425 47 452 47 c 0
 466 47 508 61 518 63 c 1x95
 518 27 l 1x64
371 392 m 2
 372 399 346 446 334 446 c 0
 181 446 131 283 131 173 c 0
 131 117 146 54 208 54 c 0
 255 54 305 102 319 116 c 1
 371 392 l 2
523 641 m 0x0a80
 523 611 499 585 469 585 c 0
 439 585 414 611 414 641 c 0
 414 669 441 696 469 696 c 0
 499 696 523 671 523 641 c 0x0a80
316 641 m 0
 316 611 291 585 261 585 c 0
 232 585 207 611 207 640 c 0
 207 669 232 696 261 696 c 0
 291 696 316 671 316 641 c 0
EndSplineSet
Substitution2: "'ss05' Style Set 5 in Latin lookup 41 subtable" adieresis.2StorySItal
Substitution2: "'ss05' Style Set 5 in Cyrillic lookup 40 subtable" adieresis.2StorySItal
Substitution2: "'ss05' Style Set 5 lookup 39 subtable" adieresis.2StorySItal
Substitution2: "'ss07' Style Set 7 in Latin lookup 35 subtable" adieresis.SngStory
Substitution2: "'ss07' Style Set 7 in Cyrillic lookup 34 subtable" adieresis.SngStory
Substitution2: "'ss07' Style Set 7 lookup 33 subtable" adieresis.SngStory
Substitution2: "'smcp' Lowercase to Small Capitals in Latin lookup 14 subtable" adieresis.sc
Substitution2: "'smcp' Lowercase to Small Capitals in Cyrillic lookup 13 subtable" adieresis.sc
Substitution2: "'smcp' Lowercase to Small Capitals lookup 12 subtable" adieresis.sc
AlternateSubs2: "'aalt' Access All Alternates lookup 1 subtable" adieresis.sc adieresis.SngStory adieresis.2StorySItal
EndChar

StartChar: aring
Encoding: 229 229 165
Width: 520
Flags: MW
HStem: -12 59<364 459> -12 66<177 207> 446 48<257.5 338.5 226.5 340> 472 21G 551 52<342 377.5 342 386.5> 733 52<363.5 399>
VStem: 32 99<145 228 145 244.5> 252 51<639.5 676 639.5 682.5> 319 90<75.5 116> 438 52
LayerCount: 2
Fore
SplineSet
518 27 m 1x62
 502 20 427 -12 388 -12 c 0
 340 -12 323 12 319 56 c 1
 289 28 237 -12 177 -12 c 0
 59 -12 32 95 32 167 c 0
 32 322 133 494 320 494 c 0
 357 494 392 476 410 458 c 1x6280
 425 482 l 1
 493 482 l 1
 487 467 476 435 474 425 c 0
 460 372 409 137 409 93 c 0
 409 58 425 47 452 47 c 0
 466 47 508 61 518 63 c 1x9280
 518 27 l 1x62
371 392 m 2
 372 399 346 446 334 446 c 0
 181 446 131 283 131 173 c 0
 131 117 146 54 208 54 c 0
 255 54 305 102 319 116 c 1
 371 392 l 2
350 551 m 0x0d40
 294 551 252 591 252 646 c 0
 252 719 319 785 392 785 c 0
 448 785 489 745 489 689 c 0
 489 615 423 551 350 551 c 0x0d40
438 682 m 0
 438 713 414 733 384 733 c 0
 343 733 303 697 303 655 c 0
 303 624 327 603 357 603 c 0
 398 603 438 641 438 682 c 0
EndSplineSet
Substitution2: "'ss05' Style Set 5 in Latin lookup 41 subtable" aring.2StorySItal
Substitution2: "'ss05' Style Set 5 in Cyrillic lookup 40 subtable" aring.2StorySItal
Substitution2: "'ss05' Style Set 5 lookup 39 subtable" aring.2StorySItal
Substitution2: "'ss07' Style Set 7 in Latin lookup 35 subtable" aring.SngStory
Substitution2: "'ss07' Style Set 7 in Cyrillic lookup 34 subtable" aring.SngStory
Substitution2: "'ss07' Style Set 7 lookup 33 subtable" aring.SngStory
Substitution2: "'smcp' Lowercase to Small Capitals in Latin lookup 14 subtable" aring.sc
Substitution2: "'smcp' Lowercase to Small Capitals in Cyrillic lookup 13 subtable" aring.sc
Substitution2: "'smcp' Lowercase to Small Capitals lookup 12 subtable" aring.sc
AlternateSubs2: "'aalt' Access All Alternates lookup 1 subtable" aring.sc aring.SngStory aring.2StorySItal
EndChar

StartChar: ae
Encoding: 230 230 166
Width: 745
Flags: MW
HStem: -12 60<476.5 532.5> -12 66<177 204> 442 51<581 601> 446 48<257.5 334> 472 21G
VStem: 32 99<145 228 145 244.5> 639 88<358.5 407>
LayerCount: 2
Fore
SplineSet
727 393 m 0x96
 727 284 553 227 434 220 c 1
 432 207 425 186 425 174 c 0
 425 86 433 48 520 48 c 0
 565 48 617 81 689 145 c 1
 689 82 l 1
 653 46 578 -12 487 -12 c 0
 409 -12 363 -1 343 81 c 1
 299 19 231 -12 177 -12 c 0
 59 -12 32 95 32 167 c 0
 32 322 133 494 320 494 c 0
 357 494 377 476 395 458 c 1x96
 411 482 l 1
 478 482 l 1x8e
 474 471 467 446 462 432 c 1
 505 467 555 493 607 493 c 0xa6
 699 493 727 422 727 393 c 0x96
639 394 m 0x66
 639 420 618 442 584 442 c 0
 519 442 455 334 438 258 c 1
 523 266 639 323 639 394 c 0x66
371 391 m 1
 334 446 l 1x96
 181 446 131 283 131 173 c 0
 131 117 146 54 208 54 c 0
 247 54 302 93 320 117 c 1
 371 391 l 1
EndSplineSet
Substitution2: "'ss05' Style Set 5 in Latin lookup 41 subtable" ae.2StorySItal
Substitution2: "'ss05' Style Set 5 in Cyrillic lookup 40 subtable" ae.2StorySItal
Substitution2: "'ss05' Style Set 5 lookup 39 subtable" ae.2StorySItal
Substitution2: "'smcp' Lowercase to Small Capitals in Latin lookup 14 subtable" ae.sc
Substitution2: "'smcp' Lowercase to Small Capitals in Cyrillic lookup 13 subtable" ae.sc
Substitution2: "'smcp' Lowercase to Small Capitals lookup 12 subtable" ae.sc
AlternateSubs2: "'aalt' Access All Alternates lookup 1 subtable" ae.sc ae.2StorySItal
EndChar

StartChar: ccedilla
Encoding: 231 231 167
Width: 435
Flags: MW
HStem: -223 41<141 159 139 194> -108 49<180 252> -12 65<183 230.5> 436 58<269 269>
VStem: 32 95<153.5 226 153.5 263.5> 216 81<-146.5 -125>
LayerCount: 2
Fore
SplineSet
403 424 m 0
 403 398 390 367 326 359 c 1
 269 436 l 1
 161 431 127 266 127 186 c 0
 127 121 150 53 216 53 c 0
 269 53 325 93 382 149 c 1
 382 86 l 1
 341 46 275 -12 186 -12 c 0
 91 -12 32 55 32 174 c 0
 32 353 165 494 301 494 c 0
 373 494 403 454 403 424 c 0
297 -112 m 0
 297 -181 232 -223 156 -223 c 0
 126 -223 90 -215 76 -211 c 1
 85 -171 l 1
 100 -175 128 -182 150 -182 c 0
 168 -182 216 -174 216 -135 c 0
 216 -115 198 -108 183 -108 c 0
 177 -108 172 -111 151 -121 c 1
 179 24 l 1
 230 24 l 1
 215 -61 l 1
 220 -60 225 -59 230 -59 c 0
 274 -59 297 -76 297 -112 c 0
EndSplineSet
Substitution2: "'smcp' Lowercase to Small Capitals in Latin lookup 14 subtable" ccedilla.sc
Substitution2: "'smcp' Lowercase to Small Capitals in Cyrillic lookup 13 subtable" ccedilla.sc
Substitution2: "'smcp' Lowercase to Small Capitals lookup 12 subtable" ccedilla.sc
Substitution2: "'aalt' Access All Alternates lookup 0 subtable" ccedilla.sc
EndChar

StartChar: egrave
Encoding: 232 232 168
Width: 434
Flags: MW
HStem: -12 60<195 236.5> 447 46<241 290.5> 551 181<191.5 395 191.5 333>
VStem: 32 97<137.5 180 137.5 249> 165 230<551 698> 328 89<358.5 407>
LayerCount: 2
Fore
SplineSet
417 393 m 0xd4
 417 284 252 227 133 220 c 1
 131 207 129 186 129 174 c 0
 129 101 166 48 224 48 c 0
 269 48 321 81 394 145 c 1
 394 82 l 1
 357 46 282 -12 191 -12 c 0
 130 -12 32 18 32 170 c 0
 32 328 153 493 296 493 c 0
 388 493 417 422 417 393 c 0xd4
328 394 m 0
 328 420 307 447 274 447 c 0
 208 447 155 334 137 258 c 1
 222 266 328 323 328 394 c 0
395 551 m 1x28
 333 551 l 1
 188 646 l 2
 174 655 165 668 165 688 c 0
 165 708 174 732 209 732 c 0
 237 732 249 721 261 707 c 2
 395 551 l 1x28
EndSplineSet
Substitution2: "'smcp' Lowercase to Small Capitals in Latin lookup 14 subtable" egrave.sc
Substitution2: "'smcp' Lowercase to Small Capitals in Cyrillic lookup 13 subtable" egrave.sc
Substitution2: "'smcp' Lowercase to Small Capitals lookup 12 subtable" egrave.sc
Substitution2: "'aalt' Access All Alternates lookup 0 subtable" egrave.sc
EndChar

StartChar: eacute
Encoding: 233 233 169
Width: 434
Flags: MW
HStem: -12 60<195 236.5> 447 46<241 290.5> 551 181<214 424.5 214 424.5>
VStem: 32 97<137.5 180 137.5 249> 214 244<551 699> 328 89<358.5 407>
LayerCount: 2
Fore
SplineSet
417 393 m 0xd4
 417 284 252 227 133 220 c 1
 131 207 129 186 129 174 c 0
 129 101 166 48 224 48 c 0
 269 48 321 81 394 145 c 1
 394 82 l 1
 357 46 282 -12 191 -12 c 0
 130 -12 32 18 32 170 c 0
 32 328 153 493 296 493 c 0
 388 493 417 422 417 393 c 0xd4
328 394 m 0
 328 420 307 447 274 447 c 0
 208 447 155 334 137 258 c 1
 222 266 328 323 328 394 c 0
458 689 m 0x28
 458 670 449 658 434 648 c 2
 284 551 l 1
 214 551 l 1
 350 707 l 2
 363 722 377 732 407 732 c 0
 442 732 458 709 458 689 c 0x28
EndSplineSet
Substitution2: "'smcp' Lowercase to Small Capitals in Latin lookup 14 subtable" eacute.sc
Substitution2: "'smcp' Lowercase to Small Capitals in Cyrillic lookup 13 subtable" eacute.sc
Substitution2: "'smcp' Lowercase to Small Capitals lookup 12 subtable" eacute.sc
Substitution2: "'aalt' Access All Alternates lookup 0 subtable" eacute.sc
EndChar

StartChar: ecircumflex
Encoding: 234 234 170
Width: 434
Flags: MW
HStem: -12 60<195 236.5> 447 46<241 290.5> 551 169<125 368 125 368 290 466 290 396>
VStem: 32 97<137.5 180 137.5 249> 125 342 328 89<358.5 407>
LayerCount: 2
Fore
SplineSet
417 393 m 0xd4
 417 284 252 227 133 220 c 1
 131 207 129 186 129 174 c 0
 129 101 166 48 224 48 c 0
 269 48 321 81 394 145 c 1
 394 82 l 1
 357 46 282 -12 191 -12 c 0
 130 -12 32 18 32 170 c 0
 32 328 153 493 296 493 c 0
 388 493 417 422 417 393 c 0xd4
328 394 m 0
 328 420 307 447 274 447 c 0
 208 447 155 334 137 258 c 1
 222 266 328 323 328 394 c 0
466 551 m 1x28
 396 551 l 1
 314 643 l 1
 194 551 l 1
 125 551 l 1
 290 720 l 1
 368 720 l 1
 466 551 l 1x28
EndSplineSet
Substitution2: "'smcp' Lowercase to Small Capitals in Latin lookup 14 subtable" ecircumflex.sc
Substitution2: "'smcp' Lowercase to Small Capitals in Cyrillic lookup 13 subtable" ecircumflex.sc
Substitution2: "'smcp' Lowercase to Small Capitals lookup 12 subtable" ecircumflex.sc
Substitution2: "'aalt' Access All Alternates lookup 0 subtable" ecircumflex.sc
EndChar

StartChar: edieresis
Encoding: 235 235 171
Width: 434
Flags: MW
HStem: -12 60<195 236.5> 447 46<241 290.5> 585 111<194.5 224 403 432>
VStem: 32 97<137.5 180 137.5 249> 156 109<626 654.5> 328 89<358.5 407> 363 109<626 655>
LayerCount: 2
Fore
SplineSet
417 393 m 0xd4
 417 284 252 227 133 220 c 1
 131 207 129 186 129 174 c 0
 129 101 166 48 224 48 c 0
 269 48 321 81 394 145 c 1
 394 82 l 1
 357 46 282 -12 191 -12 c 0
 130 -12 32 18 32 170 c 0
 32 328 153 493 296 493 c 0
 388 493 417 422 417 393 c 0xd4
328 394 m 0
 328 420 307 447 274 447 c 0
 208 447 155 334 137 258 c 1
 222 266 328 323 328 394 c 0
472 641 m 0x2a
 472 611 447 585 417 585 c 0
 387 585 363 611 363 641 c 0
 363 669 389 696 417 696 c 0
 447 696 472 671 472 641 c 0x2a
265 641 m 0
 265 611 239 585 209 585 c 0
 180 585 156 611 156 640 c 0
 156 669 180 696 209 696 c 0
 239 696 265 671 265 641 c 0
EndSplineSet
Substitution2: "'smcp' Lowercase to Small Capitals in Latin lookup 14 subtable" edieresis.sc
Substitution2: "'smcp' Lowercase to Small Capitals in Cyrillic lookup 13 subtable" edieresis.sc
Substitution2: "'smcp' Lowercase to Small Capitals lookup 12 subtable" edieresis.sc
Substitution2: "'aalt' Access All Alternates lookup 0 subtable" edieresis.sc
EndChar

StartChar: igrave
Encoding: 236 236 172
Width: 266
Flags: MW
HStem: -12 55<83 192.5> 484 21G 551 181<84.5 287 84.5 225>
VStem: 26 237 57 230<551 698>
LayerCount: 2
Fore
SplineSet
263 29 m 1xd0
 248 22 172 -12 117 -12 c 0
 49 -12 39 40 48 86 c 2
 112 425 l 1
 26 434 l 1
 26 463 l 1
 177 494 l 1
 218 494 l 1
 142 94 l 2
 137 67 154 43 181 43 c 0
 204 43 250 63 263 67 c 1
 263 29 l 1xd0
287 551 m 1x28
 225 551 l 1
 80 646 l 2
 66 655 57 668 57 688 c 0
 57 708 67 732 102 732 c 0
 130 732 141 721 153 707 c 2
 287 551 l 1x28
EndSplineSet
Substitution2: "'ss05' Style Set 5 in Latin lookup 41 subtable" igrave.SItal
Substitution2: "'ss05' Style Set 5 in Cyrillic lookup 40 subtable" igrave.SItal
Substitution2: "'ss05' Style Set 5 lookup 39 subtable" igrave.SItal
Substitution2: "'smcp' Lowercase to Small Capitals in Latin lookup 14 subtable" igrave.sc
Substitution2: "'smcp' Lowercase to Small Capitals in Cyrillic lookup 13 subtable" igrave.sc
Substitution2: "'smcp' Lowercase to Small Capitals lookup 12 subtable" igrave.sc
AlternateSubs2: "'aalt' Access All Alternates lookup 1 subtable" igrave.sc igrave.SItal
EndChar

StartChar: iacute
Encoding: 237 237 173
Width: 266
Flags: MW
HStem: -12 55<83 192.5> 484 21G 551 181<106 317.5 106 317.5>
VStem: 26 237 106 244
LayerCount: 2
Fore
SplineSet
263 29 m 1xd0
 248 22 172 -12 117 -12 c 0
 49 -12 39 40 48 86 c 2
 112 425 l 1
 26 434 l 1
 26 463 l 1
 177 494 l 1
 218 494 l 1
 142 94 l 2
 137 67 154 43 181 43 c 0
 204 43 250 63 263 67 c 1
 263 29 l 1xd0
351 689 m 0x28
 351 670 342 658 327 648 c 2
 177 551 l 1
 106 551 l 1
 243 707 l 2
 256 722 270 732 300 732 c 0
 335 732 351 709 351 689 c 0x28
EndSplineSet
Substitution2: "'ss05' Style Set 5 in Latin lookup 41 subtable" iacute.SItal
Substitution2: "'ss05' Style Set 5 in Cyrillic lookup 40 subtable" iacute.SItal
Substitution2: "'ss05' Style Set 5 lookup 39 subtable" iacute.SItal
Substitution2: "'smcp' Lowercase to Small Capitals in Latin lookup 14 subtable" iacute.sc
Substitution2: "'smcp' Lowercase to Small Capitals in Cyrillic lookup 13 subtable" iacute.sc
Substitution2: "'smcp' Lowercase to Small Capitals lookup 12 subtable" iacute.sc
Substitution2: "'locl' Localized Forms in Latin lookup 7 subtable" iacute.locl
AlternateSubs2: "'aalt' Access All Alternates lookup 1 subtable" iacute.locl iacute.sc iacute.SItal
EndChar

StartChar: icircumflex
Encoding: 238 238 174
Width: 266
Flags: MW
HStem: -12 55<83 192.5> 484 21G 551 169<17 261 17 261 182 359 182 289>
VStem: 17 342<551 551> 26 237
LayerCount: 2
Fore
SplineSet
263 29 m 1xc8
 248 22 172 -12 117 -12 c 0
 49 -12 39 40 48 86 c 2
 112 425 l 1
 26 434 l 1
 26 463 l 1
 177 494 l 1
 218 494 l 1
 142 94 l 2
 137 67 154 43 181 43 c 0
 204 43 250 63 263 67 c 1
 263 29 l 1xc8
359 551 m 1x30
 289 551 l 1
 207 643 l 1
 87 551 l 1
 17 551 l 1
 182 720 l 1
 261 720 l 1
 359 551 l 1x30
EndSplineSet
Substitution2: "'ss05' Style Set 5 in Latin lookup 41 subtable" icircumflex.SItal
Substitution2: "'ss05' Style Set 5 in Cyrillic lookup 40 subtable" icircumflex.SItal
Substitution2: "'ss05' Style Set 5 lookup 39 subtable" icircumflex.SItal
Substitution2: "'smcp' Lowercase to Small Capitals in Latin lookup 14 subtable" icircumflex.sc
Substitution2: "'smcp' Lowercase to Small Capitals in Cyrillic lookup 13 subtable" icircumflex.sc
Substitution2: "'smcp' Lowercase to Small Capitals lookup 12 subtable" icircumflex.sc
AlternateSubs2: "'aalt' Access All Alternates lookup 1 subtable" icircumflex.sc icircumflex.SItal
EndChar

StartChar: idieresis
Encoding: 239 239 175
Width: 266
Flags: MW
HStem: -12 55<83 192.5> 484 21G 585 111<87.5 117 296 325>
VStem: 26 237 48 109<626 654.5> 255 109<626 655>
LayerCount: 2
Fore
SplineSet
263 29 m 1xd0
 248 22 172 -12 117 -12 c 0
 49 -12 39 40 48 86 c 2
 112 425 l 1
 26 434 l 1
 26 463 l 1
 177 494 l 1
 218 494 l 1
 142 94 l 2
 137 67 154 43 181 43 c 0
 204 43 250 63 263 67 c 1
 263 29 l 1xd0
364 641 m 0x2c
 364 611 340 585 310 585 c 0
 280 585 255 611 255 641 c 0
 255 669 282 696 310 696 c 0
 340 696 364 671 364 641 c 0x2c
157 641 m 0
 157 611 132 585 102 585 c 0
 73 585 48 611 48 640 c 0
 48 669 73 696 102 696 c 0
 132 696 157 671 157 641 c 0
EndSplineSet
Substitution2: "'ss05' Style Set 5 in Latin lookup 41 subtable" idieresis.SItal
Substitution2: "'ss05' Style Set 5 in Cyrillic lookup 40 subtable" idieresis.SItal
Substitution2: "'ss05' Style Set 5 lookup 39 subtable" idieresis.SItal
Substitution2: "'smcp' Lowercase to Small Capitals in Latin lookup 14 subtable" idieresis.sc
Substitution2: "'smcp' Lowercase to Small Capitals in Cyrillic lookup 13 subtable" idieresis.sc
Substitution2: "'smcp' Lowercase to Small Capitals lookup 12 subtable" idieresis.sc
AlternateSubs2: "'aalt' Access All Alternates lookup 1 subtable" idieresis.sc idieresis.SItal
EndChar

StartChar: eth
Encoding: 240 240 176
Width: 505
Flags: MW
HStem: -12 46<200 270.5 200 306> 451 43<240.5 297.5 213.5 311.5> 727 21G
VStem: 32 101<131 240 131 261.5> 370 98<234.5 322.5>
LayerCount: 2
Fore
SplineSet
485 657 m 1
 373 612 l 1
 420 529 468 400 468 294 c 0
 468 175 402 -12 210 -12 c 0
 105 -12 32 60 32 179 c 0
 32 344 138 494 289 494 c 0
 306 494 322 488 337 479 c 1
 323 515 301 562 292 581 c 1
 153 524 l 1
 135 569 l 1
 266 619 l 1
 231 668 l 1
 154 688 l 1
 158 718 l 1
 288 737 l 1
 348 652 l 1
 466 699 l 1
 485 657 l 1
370 291 m 0
 370 354 362 394 350 435 c 1
 339 444 323 451 300 451 c 0
 181 451 133 297 133 183 c 0
 133 79 178 34 222 34 c 0
 319 34 370 173 370 291 c 0
EndSplineSet
Substitution2: "'smcp' Lowercase to Small Capitals in Latin lookup 14 subtable" eth.sc
Substitution2: "'smcp' Lowercase to Small Capitals in Cyrillic lookup 13 subtable" eth.sc
Substitution2: "'smcp' Lowercase to Small Capitals lookup 12 subtable" eth.sc
Substitution2: "'aalt' Access All Alternates lookup 0 subtable" eth.sc
EndChar

StartChar: ntilde
Encoding: 241 241 177
Width: 529
Flags: MW
HStem: -12 21G<381 414> -12 54<381 472> 0 21G<23 116 23 23> 423 71 585 60<405.5 421> 631 60<254 270.5>
VStem: 146 384<585 691> 375 102
LayerCount: 2
Fore
SplineSet
527 20 m 1x51
 510 14 435 -12 393 -12 c 0x91
 369 -12 301 -7 312 47 c 2
 373 354 l 2
 383 407 351 423 329 423 c 0
 297 423 229 383 185 336 c 1
 116 0 l 1
 23 0 l 1x31
 110 425 l 1
 26 434 l 1
 26 463 l 1
 177 494 l 1
 217 494 l 1
 198 401 l 1
 242 446 317 494 384 494 c 0
 457 494 489 456 473 366 c 2
 420 84 l 2
 413 46 451 42 463 42 c 0
 481 42 503 48 526 55 c 1
 527 20 l 1x51
530 691 m 1x0a
 502 633 457 585 385 585 c 0x0a
 358 585 340 595 319 608 c 0
 302 619 286 631 255 631 c 0
 238 631 210 612 199 585 c 1
 146 585 l 1
 174 643 218 691 290 691 c 0x06
 317 691 336 681 357 667 c 0
 374 657 390 645 421 645 c 0
 439 645 466 664 477 691 c 1
 530 691 l 1x0a
EndSplineSet
Substitution2: "'smcp' Lowercase to Small Capitals in Latin lookup 14 subtable" ntilde.sc
Substitution2: "'smcp' Lowercase to Small Capitals in Cyrillic lookup 13 subtable" ntilde.sc
Substitution2: "'smcp' Lowercase to Small Capitals lookup 12 subtable" ntilde.sc
Substitution2: "'aalt' Access All Alternates lookup 0 subtable" ntilde.sc
EndChar

StartChar: ograve
Encoding: 242 242 178
Width: 505
Flags: MW
HStem: -12 45<196 268.5 196 286> 451 43<241.5 310.5> 551 181<212.5 416 212.5 354>
VStem: 31 101<132.5 247 132.5 258> 186 230<551 698> 374 101<245 351.5>
LayerCount: 2
Fore
SplineSet
475 300 m 0xd4
 475 138 363 -12 209 -12 c 0
 99 -12 31 61 31 177 c 0
 31 339 139 494 296 494 c 0
 392 494 475 435 475 300 c 0xd4
374 304 m 0
 374 399 336 451 285 451 c 0
 198 451 132 312 132 182 c 0
 132 83 171 33 221 33 c 0
 316 33 374 186 374 304 c 0
416 551 m 1x28
 354 551 l 1
 208 646 l 2
 194 655 186 668 186 688 c 0
 186 708 195 732 230 732 c 0
 258 732 270 721 282 707 c 2
 416 551 l 1x28
EndSplineSet
Substitution2: "'smcp' Lowercase to Small Capitals in Latin lookup 14 subtable" ograve.sc
Substitution2: "'smcp' Lowercase to Small Capitals in Cyrillic lookup 13 subtable" ograve.sc
Substitution2: "'smcp' Lowercase to Small Capitals lookup 12 subtable" ograve.sc
Substitution2: "'aalt' Access All Alternates lookup 0 subtable" ograve.sc
EndChar

StartChar: oacute
Encoding: 243 243 179
Width: 505
Flags: MW
HStem: -12 45<196 268.5 196 286> 451 43<241.5 310.5> 551 181<235 445.5 235 445.5>
VStem: 31 101<132.5 247 132.5 258> 235 244<551 699> 374 101<245 351.5>
LayerCount: 2
Fore
SplineSet
475 300 m 0xd4
 475 138 363 -12 209 -12 c 0
 99 -12 31 61 31 177 c 0
 31 339 139 494 296 494 c 0
 392 494 475 435 475 300 c 0xd4
374 304 m 0
 374 399 336 451 285 451 c 0
 198 451 132 312 132 182 c 0
 132 83 171 33 221 33 c 0
 316 33 374 186 374 304 c 0
479 689 m 0x28
 479 670 470 658 455 648 c 2
 305 551 l 1
 235 551 l 1
 371 707 l 2
 384 722 398 732 428 732 c 0
 463 732 479 709 479 689 c 0x28
EndSplineSet
Substitution2: "'smcp' Lowercase to Small Capitals in Latin lookup 14 subtable" oacute.sc
Substitution2: "'smcp' Lowercase to Small Capitals in Cyrillic lookup 13 subtable" oacute.sc
Substitution2: "'smcp' Lowercase to Small Capitals lookup 12 subtable" oacute.sc
Substitution2: "'aalt' Access All Alternates lookup 0 subtable" oacute.sc
EndChar

StartChar: ocircumflex
Encoding: 244 244 180
Width: 505
Flags: MW
HStem: -12 45<196 268.5 196 286> 451 43<241.5 310.5> 551 169<146 389 146 389 311 487 311 417>
VStem: 31 101<132.5 247 132.5 258> 146 342 374 101<245 351.5>
LayerCount: 2
Fore
SplineSet
475 300 m 0xd4
 475 138 363 -12 209 -12 c 0
 99 -12 31 61 31 177 c 0
 31 339 139 494 296 494 c 0
 392 494 475 435 475 300 c 0xd4
374 304 m 0
 374 399 336 451 285 451 c 0
 198 451 132 312 132 182 c 0
 132 83 171 33 221 33 c 0
 316 33 374 186 374 304 c 0
487 551 m 1x28
 417 551 l 1
 335 643 l 1
 215 551 l 1
 146 551 l 1
 311 720 l 1
 389 720 l 1
 487 551 l 1x28
EndSplineSet
Substitution2: "'smcp' Lowercase to Small Capitals in Latin lookup 14 subtable" ocircumflex.sc
Substitution2: "'smcp' Lowercase to Small Capitals in Cyrillic lookup 13 subtable" ocircumflex.sc
Substitution2: "'smcp' Lowercase to Small Capitals lookup 12 subtable" ocircumflex.sc
Substitution2: "'aalt' Access All Alternates lookup 0 subtable" ocircumflex.sc
EndChar

StartChar: otilde
Encoding: 245 245 181
Width: 505
Flags: MW
HStem: -12 45<196 268.5 196 286> 451 43<241.5 310.5> 585 60<401.5 417> 631 60<250 266.5>
VStem: 31 101<132.5 247 132.5 258> 142 384<585 691> 374 101<245 351.5>
LayerCount: 2
Fore
SplineSet
475 300 m 0xca
 475 138 363 -12 209 -12 c 0
 99 -12 31 61 31 177 c 0
 31 339 139 494 296 494 c 0
 392 494 475 435 475 300 c 0xca
374 304 m 0
 374 399 336 451 285 451 c 0
 198 451 132 312 132 182 c 0
 132 83 171 33 221 33 c 0
 316 33 374 186 374 304 c 0
526 691 m 1x24
 498 633 453 585 381 585 c 0x24
 354 585 336 595 315 608 c 0
 298 619 282 631 251 631 c 0
 234 631 206 612 195 585 c 1
 142 585 l 1
 170 643 214 691 286 691 c 0x14
 313 691 332 681 353 667 c 0
 370 657 386 645 417 645 c 0
 435 645 462 664 473 691 c 1
 526 691 l 1x24
EndSplineSet
Substitution2: "'smcp' Lowercase to Small Capitals in Latin lookup 14 subtable" otilde.sc
Substitution2: "'smcp' Lowercase to Small Capitals in Cyrillic lookup 13 subtable" otilde.sc
Substitution2: "'smcp' Lowercase to Small Capitals lookup 12 subtable" otilde.sc
Substitution2: "'aalt' Access All Alternates lookup 0 subtable" otilde.sc
EndChar

StartChar: odieresis
Encoding: 246 246 182
Width: 505
Flags: MW
HStem: -12 45<196 268.5 196 286> 451 43<241.5 310.5> 585 111<215.5 245 424 453>
VStem: 31 101<132.5 247 132.5 258> 177 109<626 654.5> 374 101<245 351.5> 384 109<626 655>
LayerCount: 2
Fore
SplineSet
475 300 m 0xd4
 475 138 363 -12 209 -12 c 0
 99 -12 31 61 31 177 c 0
 31 339 139 494 296 494 c 0
 392 494 475 435 475 300 c 0xd4
374 304 m 0
 374 399 336 451 285 451 c 0
 198 451 132 312 132 182 c 0
 132 83 171 33 221 33 c 0
 316 33 374 186 374 304 c 0
493 641 m 0x2a
 493 611 468 585 438 585 c 0
 408 585 384 611 384 641 c 0
 384 669 410 696 438 696 c 0
 468 696 493 671 493 641 c 0x2a
286 641 m 0
 286 611 260 585 230 585 c 0
 201 585 177 611 177 640 c 0
 177 669 201 696 230 696 c 0
 260 696 286 671 286 641 c 0
EndSplineSet
Substitution2: "'smcp' Lowercase to Small Capitals in Latin lookup 14 subtable" odieresis.sc
Substitution2: "'smcp' Lowercase to Small Capitals in Cyrillic lookup 13 subtable" odieresis.sc
Substitution2: "'smcp' Lowercase to Small Capitals lookup 12 subtable" odieresis.sc
Substitution2: "'aalt' Access All Alternates lookup 0 subtable" odieresis.sc
EndChar

StartChar: divide
Encoding: 247 247 183
Width: 1000
Flags: MW
HStem: 80 119<483.5 516.5> 269 62<200 800 200 800> 401 120<483.5 516.5>
VStem: 440 120<122.5 156 444 477.5>
LayerCount: 2
Fore
SplineSet
560 461 m 0
 560 427 533 401 500 401 c 0
 467 401 440 427 440 461 c 0
 440 494 467 521 500 521 c 0
 533 521 560 494 560 461 c 0
800 269 m 1
 200 269 l 1
 200 331 l 1
 800 331 l 1
 800 269 l 1
560 139 m 0
 560 106 533 80 500 80 c 0
 467 80 440 106 440 139 c 0
 440 173 467 199 500 199 c 0
 533 199 560 173 560 139 c 0
EndSplineSet
EndChar

StartChar: oslash
Encoding: 248 248 184
Width: 505
Flags: MW
HStem: -12 45<211.5 268.5 211.5 286> 451 43<241.5 296.5>
VStem: 31 101<165 247 165 258> 374 101<245 316>
LayerCount: 2
Fore
SplineSet
475 300 m 0
 475 138 363 -12 209 -12 c 0
 182 -12 158 -7 136 1 c 1
 81 -86 l 1
 44 -61 l 1
 97 23 l 1
 55 55 31 108 31 177 c 0
 31 339 139 494 296 494 c 0
 326 494 355 488 380 476 c 1
 428 552 l 1
 468 527 l 1
 419 450 l 1
 453 418 475 369 475 300 c 0
345 419 m 1
 329 440 308 451 285 451 c 0
 198 451 132 312 132 182 c 0
 132 148 137 121 145 99 c 1
 345 419 l 1
374 304 m 0
 374 328 371 349 367 367 c 1
 170 55 l 1
 185 40 202 33 221 33 c 0
 316 33 374 186 374 304 c 0
EndSplineSet
Substitution2: "'smcp' Lowercase to Small Capitals in Latin lookup 14 subtable" oslash.sc
Substitution2: "'smcp' Lowercase to Small Capitals in Cyrillic lookup 13 subtable" oslash.sc
Substitution2: "'smcp' Lowercase to Small Capitals lookup 12 subtable" oslash.sc
Substitution2: "'aalt' Access All Alternates lookup 0 subtable" oslash.sc
EndChar

StartChar: ugrave
Encoding: 249 249 185
Width: 526
Flags: MW
HStem: -12 53<350.5 467.5> -12 62<177 180.5> 472 21G 484 21G 551 181<219.5 422 219.5 360>
VStem: 26 498<24 463 24 463> 192 230<551 698> 323 92
LayerCount: 2
Fore
SplineSet
524 24 m 1x54
 499 10 431 -12 388 -12 c 0
 313 -12 323 47 323 63 c 1
 271 13 214 -12 147 -12 c 0
 54 -12 34 61 45 113 c 2
 110 425 l 1
 26 434 l 1
 26 463 l 1
 177 494 l 1
 218 494 l 1
 138 113 l 2
 131 79 164 50 190 50 c 0x51
 238 50 290 79 328 114 c 1
 404 482 l 1
 497 482 l 1
 417 97 l 2
 408 56 439 41 461 41 c 0xa1
 474 41 496 43 524 59 c 1x94
 524 24 l 1x54
422 551 m 1x0a
 360 551 l 1
 215 646 l 2
 201 655 192 668 192 688 c 0
 192 708 202 732 237 732 c 0
 265 732 276 721 288 707 c 2
 422 551 l 1x0a
EndSplineSet
Substitution2: "'smcp' Lowercase to Small Capitals in Latin lookup 14 subtable" ugrave.sc
Substitution2: "'smcp' Lowercase to Small Capitals in Cyrillic lookup 13 subtable" ugrave.sc
Substitution2: "'smcp' Lowercase to Small Capitals lookup 12 subtable" ugrave.sc
Substitution2: "'aalt' Access All Alternates lookup 0 subtable" ugrave.sc
EndChar

StartChar: uacute
Encoding: 250 250 186
Width: 526
Flags: MW
HStem: -12 53<350.5 467.5> -12 62<177 180.5> 472 21G 484 21G 551 181<241 452.5 241 452.5>
VStem: 26 498<24 463 24 463> 241 244<551 699> 323 92
LayerCount: 2
Fore
SplineSet
524 24 m 1x54
 499 10 431 -12 388 -12 c 0
 313 -12 323 47 323 63 c 1
 271 13 214 -12 147 -12 c 0
 54 -12 34 61 45 113 c 2
 110 425 l 1
 26 434 l 1
 26 463 l 1
 177 494 l 1
 218 494 l 1
 138 113 l 2
 131 79 164 50 190 50 c 0x51
 238 50 290 79 328 114 c 1
 404 482 l 1
 497 482 l 1
 417 97 l 2
 408 56 439 41 461 41 c 0xa1
 474 41 496 43 524 59 c 1x94
 524 24 l 1x54
485 689 m 0x0a
 485 670 476 658 461 648 c 2
 312 551 l 1
 241 551 l 1
 377 707 l 2
 390 722 405 732 435 732 c 0
 470 732 485 709 485 689 c 0x0a
EndSplineSet
Substitution2: "'smcp' Lowercase to Small Capitals in Latin lookup 14 subtable" uacute.sc
Substitution2: "'smcp' Lowercase to Small Capitals in Cyrillic lookup 13 subtable" uacute.sc
Substitution2: "'smcp' Lowercase to Small Capitals lookup 12 subtable" uacute.sc
Substitution2: "'aalt' Access All Alternates lookup 0 subtable" uacute.sc
EndChar

StartChar: ucircumflex
Encoding: 251 251 187
Width: 526
Flags: MW
HStem: -12 53<350.5 467.5> -12 62<177 180.5> 472 21G 484 21G 551 169<152 396 152 396 317 494 317 424>
VStem: 26 498<24 463 24 463> 152 342<551 551> 323 92
LayerCount: 2
Fore
SplineSet
524 24 m 1x54
 499 10 431 -12 388 -12 c 0
 313 -12 323 47 323 63 c 1
 271 13 214 -12 147 -12 c 0
 54 -12 34 61 45 113 c 2
 110 425 l 1
 26 434 l 1
 26 463 l 1
 177 494 l 1
 218 494 l 1
 138 113 l 2
 131 79 164 50 190 50 c 0x51
 238 50 290 79 328 114 c 1
 404 482 l 1
 497 482 l 1
 417 97 l 2
 408 56 439 41 461 41 c 0xa1
 474 41 496 43 524 59 c 1x94
 524 24 l 1x54
494 551 m 1x0a
 424 551 l 1
 342 643 l 1
 222 551 l 1
 152 551 l 1
 317 720 l 1
 396 720 l 1
 494 551 l 1x0a
EndSplineSet
Substitution2: "'smcp' Lowercase to Small Capitals in Latin lookup 14 subtable" ucircumflex.sc
Substitution2: "'smcp' Lowercase to Small Capitals in Cyrillic lookup 13 subtable" ucircumflex.sc
Substitution2: "'smcp' Lowercase to Small Capitals lookup 12 subtable" ucircumflex.sc
Substitution2: "'aalt' Access All Alternates lookup 0 subtable" ucircumflex.sc
EndChar

StartChar: udieresis
Encoding: 252 252 188
Width: 526
Flags: MW
HStem: -12 53<350.5 467.5> -12 62<177 180.5> 472 21G 484 21G 585 111<222.5 252 431 460>
VStem: 26 498<24 463 24 463> 183 109<626 654.5> 323 92 390 109<626 655>
LayerCount: 2
Fore
SplineSet
524 24 m 1x54
 499 10 431 -12 388 -12 c 0
 313 -12 323 47 323 63 c 1
 271 13 214 -12 147 -12 c 0
 54 -12 34 61 45 113 c 2
 110 425 l 1
 26 434 l 1
 26 463 l 1
 177 494 l 1
 218 494 l 1
 138 113 l 2
 131 79 164 50 190 50 c 0x51
 238 50 290 79 328 114 c 1
 404 482 l 1
 497 482 l 1
 417 97 l 2
 408 56 439 41 461 41 c 0xa1
 474 41 496 43 524 59 c 1x94
 524 24 l 1x54
499 641 m 0x0a80
 499 611 475 585 445 585 c 0
 415 585 390 611 390 641 c 0
 390 669 417 696 445 696 c 0
 475 696 499 671 499 641 c 0x0a80
292 641 m 0
 292 611 267 585 237 585 c 0
 208 585 183 611 183 640 c 0
 183 669 208 696 237 696 c 0
 267 696 292 671 292 641 c 0
EndSplineSet
Substitution2: "'smcp' Lowercase to Small Capitals in Latin lookup 14 subtable" udieresis.sc
Substitution2: "'smcp' Lowercase to Small Capitals in Cyrillic lookup 13 subtable" udieresis.sc
Substitution2: "'smcp' Lowercase to Small Capitals lookup 12 subtable" udieresis.sc
Substitution2: "'aalt' Access All Alternates lookup 0 subtable" udieresis.sc
EndChar

StartChar: yacute
Encoding: 253 253 189
Width: 497
Flags: MW
HStem: -229 67<47 47 47 61> 484 21G 551 181<221 431.5 221 431.5>
VStem: -80 604<-175.5 444> 221 244<551 699>
LayerCount: 2
Fore
SplineSet
524 444 m 1xd0
 474 413 l 1
 458 398 410 322 392 280 c 0
 364 216 315 92 251 -16 c 0
 189 -122 109 -229 13 -229 c 0
 -60 -229 -80 -188 -80 -163 c 0
 -80 -133 -51 -106 -11 -104 c 1
 47 -162 l 1
 89 -158 124 -105 192 18 c 1
 189 34 171 133 150 229 c 0
 129 323 102 427 93 428 c 2
 2 435 l 1
 2 460 l 1
 20 466 104 494 122 494 c 0
 165 494 185 452 205 386 c 0
 222 327 240 237 260 130 c 1
 412 494 l 1
 441 494 l 1
 524 467 l 1
 524 444 l 1xd0
465 689 m 0x28
 465 670 456 658 441 648 c 2
 291 551 l 1
 221 551 l 1
 357 707 l 2
 370 722 384 732 414 732 c 0
 449 732 465 709 465 689 c 0x28
EndSplineSet
Substitution2: "'smcp' Lowercase to Small Capitals in Latin lookup 14 subtable" yacute.sc
Substitution2: "'smcp' Lowercase to Small Capitals in Cyrillic lookup 13 subtable" yacute.sc
Substitution2: "'smcp' Lowercase to Small Capitals lookup 12 subtable" yacute.sc
Substitution2: "'aalt' Access All Alternates lookup 0 subtable" yacute.sc
EndChar

StartChar: thorn
Encoding: 254 254 190
Width: 494
Flags: MW
HStem: -218 40 -12 47<178.5 250.5 178.5 257.5> 433 61<303 312> 727 21G
VStem: 57 99 363 99<249.5 334.5>
LayerCount: 2
Fore
SplineSet
462 309 m 0
 462 145 339 -12 176 -12 c 0
 146 -12 121 -1 105 6 c 1
 73 -155 l 2
 71 -166 75 -173 93 -175 c 2
 156 -180 l 1
 156 -218 l 1
 -96 -218 l 1
 -96 -180 l 1
 -44 -175 l 2
 -31 -174 -22 -168 -20 -155 c 2
 141 668 l 1
 57 677 l 1
 57 707 l 1
 208 737 l 1
 247 737 l 1
 187 432 l 1
 221 454 275 494 331 494 c 0
 432 494 462 398 462 309 c 0
363 305 m 0
 363 364 339 433 285 433 c 0
 237 433 186 383 176 375 c 1
 116 65 l 1
 128 58 161 35 196 35 c 0
 305 35 363 194 363 305 c 0
EndSplineSet
Substitution2: "'smcp' Lowercase to Small Capitals in Latin lookup 14 subtable" thorn.sc
Substitution2: "'smcp' Lowercase to Small Capitals in Cyrillic lookup 13 subtable" thorn.sc
Substitution2: "'smcp' Lowercase to Small Capitals lookup 12 subtable" thorn.sc
Substitution2: "'aalt' Access All Alternates lookup 0 subtable" thorn.sc
EndChar

StartChar: ydieresis
Encoding: 255 255 191
Width: 497
Flags: MW
HStem: -229 67<47 47 47 61> 484 21G 585 111<201.5 231 410 439>
VStem: -80 604<-175.5 444> 163 109 370 109<626 655>
LayerCount: 2
Fore
SplineSet
524 444 m 1xd0
 474 413 l 1
 458 398 410 322 392 280 c 0
 364 216 315 92 251 -16 c 0
 189 -122 109 -229 13 -229 c 0
 -60 -229 -80 -188 -80 -163 c 0
 -80 -133 -51 -106 -11 -104 c 1
 47 -162 l 1
 89 -158 124 -105 192 18 c 1
 189 34 171 133 150 229 c 0
 129 323 102 427 93 428 c 2
 2 435 l 1
 2 460 l 1
 20 466 104 494 122 494 c 0
 165 494 185 452 205 386 c 0
 222 327 240 237 260 130 c 1
 412 494 l 1
 441 494 l 1
 524 467 l 1
 524 444 l 1xd0
479 641 m 0x2c
 479 611 454 585 424 585 c 0
 394 585 370 611 370 641 c 0
 370 669 396 696 424 696 c 0
 454 696 479 671 479 641 c 0x2c
271 641 m 0
 271 611 246 585 216 585 c 0
 187 585 163 611 163 640 c 0
 163 669 187 696 216 696 c 0
 246 696 271 671 271 641 c 0
EndSplineSet
Substitution2: "'smcp' Lowercase to Small Capitals in Latin lookup 14 subtable" ydieresis.sc
Substitution2: "'smcp' Lowercase to Small Capitals in Cyrillic lookup 13 subtable" ydieresis.sc
Substitution2: "'smcp' Lowercase to Small Capitals lookup 12 subtable" ydieresis.sc
Substitution2: "'aalt' Access All Alternates lookup 0 subtable" ydieresis.sc
EndChar

StartChar: Amacron
Encoding: 256 256 192
Width: 672
Flags: MW
HStem: 0 44 257 47<226 417 226 426 199 417> 677 21G 781 66<282 571 268 583>
VStem: -53 679<0 42 0 42> 268 315<781 847>
LayerCount: 2
Fore
SplineSet
626 0 m 1xe8
 391 0 l 1
 391 42 l 1
 437 47 l 2
 452 49 458 55 456 66 c 2
 426 257 l 1
 199 257 l 1
 97 66 l 2
 90 53 97 49 116 47 c 2
 162 42 l 1
 162 0 l 1
 -53 0 l 1
 -53 42 l 1
 3 48 l 1
 372 687 l 1
 452 687 l 1
 560 66 l 2
 562 53 566 48 580 47 c 2
 626 42 l 1
 626 0 l 1xe8
417 304 m 1
 374 564 l 1
 226 304 l 1
 417 304 l 1
583 847 m 1x14
 571 781 l 1
 268 781 l 1
 282 847 l 1
 583 847 l 1x14
EndSplineSet
Substitution2: "'c2sc' Capitals to Small Capitals in Latin lookup 17 subtable" amacron.sc
Substitution2: "'c2sc' Capitals to Small Capitals in Cyrillic lookup 16 subtable" amacron.sc
Substitution2: "'c2sc' Capitals to Small Capitals lookup 15 subtable" amacron.sc
EndChar

StartChar: amacron
Encoding: 257 257 193
Width: 520
Flags: MW
HStem: -12 59<364 459> -12 66<177 207> 446 48<257.5 338.5 226.5 340> 472 21G 586 66<217 505 203 518>
VStem: 32 99<145 228 145 244.5> 203 315 319 90<75.5 116>
LayerCount: 2
Fore
SplineSet
518 27 m 1x64
 502 20 427 -12 388 -12 c 0
 340 -12 323 12 319 56 c 1
 289 28 237 -12 177 -12 c 0
 59 -12 32 95 32 167 c 0
 32 322 133 494 320 494 c 0
 357 494 392 476 410 458 c 1x65
 425 482 l 1
 493 482 l 1
 487 467 476 435 474 425 c 0
 460 372 409 137 409 93 c 0
 409 58 425 47 452 47 c 0
 466 47 508 61 518 63 c 1x95
 518 27 l 1x64
371 392 m 2
 372 399 346 446 334 446 c 0
 181 446 131 283 131 173 c 0
 131 117 146 54 208 54 c 0
 255 54 305 102 319 116 c 1
 371 392 l 2
518 652 m 1x0a
 505 586 l 1
 203 586 l 1
 217 652 l 1
 518 652 l 1x0a
EndSplineSet
Substitution2: "'ss05' Style Set 5 in Latin lookup 41 subtable" amacron.2StorySItal
Substitution2: "'ss05' Style Set 5 in Cyrillic lookup 40 subtable" amacron.2StorySItal
Substitution2: "'ss05' Style Set 5 lookup 39 subtable" amacron.2StorySItal
Substitution2: "'ss07' Style Set 7 in Latin lookup 35 subtable" amacron.SngStory
Substitution2: "'ss07' Style Set 7 in Cyrillic lookup 34 subtable" amacron.SngStory
Substitution2: "'ss07' Style Set 7 lookup 33 subtable" amacron.SngStory
Substitution2: "'smcp' Lowercase to Small Capitals in Latin lookup 14 subtable" amacron.sc
Substitution2: "'smcp' Lowercase to Small Capitals in Cyrillic lookup 13 subtable" amacron.sc
Substitution2: "'smcp' Lowercase to Small Capitals lookup 12 subtable" amacron.sc
AlternateSubs2: "'aalt' Access All Alternates lookup 1 subtable" amacron.sc amacron.SngStory amacron.2StorySItal
EndChar

StartChar: Abreve
Encoding: 258 258 194
Width: 672
Flags: MW
HStem: 0 44 257 47<226 417 226 426 199 417> 677 21G 746 66<405.5 445.5 405.5 467.5>
VStem: -53 679<0 42 0 42> 285 312<834.5 890>
LayerCount: 2
Fore
SplineSet
626 0 m 1xe8
 391 0 l 1
 391 42 l 1
 437 47 l 2
 452 49 458 55 456 66 c 2
 426 257 l 1
 199 257 l 1
 97 66 l 2
 90 53 97 49 116 47 c 2
 162 42 l 1
 162 0 l 1
 -53 0 l 1
 -53 42 l 1
 3 48 l 1
 372 687 l 1
 452 687 l 1
 560 66 l 2
 562 53 566 48 580 47 c 2
 626 42 l 1
 626 0 l 1xe8
417 304 m 1
 374 564 l 1
 226 304 l 1
 417 304 l 1
597 890 m 1x14
 581 822 520 746 415 746 c 0
 320 746 285 806 285 863 c 0
 285 871 286 880 287 890 c 1
 339 890 l 1
 342 831 386 812 425 812 c 0
 466 812 520 832 546 890 c 1
 597 890 l 1x14
EndSplineSet
Substitution2: "'c2sc' Capitals to Small Capitals in Latin lookup 17 subtable" abreve.sc
Substitution2: "'c2sc' Capitals to Small Capitals in Cyrillic lookup 16 subtable" abreve.sc
Substitution2: "'c2sc' Capitals to Small Capitals lookup 15 subtable" abreve.sc
EndChar

StartChar: abreve
Encoding: 259 259 195
Width: 520
Flags: MW
HStem: -12 59<364 459> -12 66<177 207> 446 48<257.5 338.5 226.5 340> 472 21G 551 66<339.5 379.5 339.5 402.5>
VStem: 32 99<145 228 145 244.5> 219 312<639.5 695> 319 90<75.5 116>
LayerCount: 2
Fore
SplineSet
518 27 m 1x64
 502 20 427 -12 388 -12 c 0
 340 -12 323 12 319 56 c 1
 289 28 237 -12 177 -12 c 0
 59 -12 32 95 32 167 c 0
 32 322 133 494 320 494 c 0
 357 494 392 476 410 458 c 1x65
 425 482 l 1
 493 482 l 1
 487 467 476 435 474 425 c 0
 460 372 409 137 409 93 c 0
 409 58 425 47 452 47 c 0
 466 47 508 61 518 63 c 1x95
 518 27 l 1x64
371 392 m 2
 372 399 346 446 334 446 c 0
 181 446 131 283 131 173 c 0
 131 117 146 54 208 54 c 0
 255 54 305 102 319 116 c 1
 371 392 l 2
531 695 m 1x0a
 515 627 455 551 350 551 c 0
 255 551 219 611 219 668 c 0
 219 676 220 685 221 695 c 1
 273 695 l 1
 276 636 320 617 359 617 c 0
 400 617 454 637 480 695 c 1
 531 695 l 1x0a
EndSplineSet
Substitution2: "'ss05' Style Set 5 in Latin lookup 41 subtable" abreve.2StorySItal
Substitution2: "'ss05' Style Set 5 in Cyrillic lookup 40 subtable" abreve.2StorySItal
Substitution2: "'ss05' Style Set 5 lookup 39 subtable" abreve.2StorySItal
Substitution2: "'ss07' Style Set 7 in Latin lookup 35 subtable" abreve.SngStory
Substitution2: "'ss07' Style Set 7 in Cyrillic lookup 34 subtable" abreve.SngStory
Substitution2: "'ss07' Style Set 7 lookup 33 subtable" abreve.SngStory
Substitution2: "'smcp' Lowercase to Small Capitals in Latin lookup 14 subtable" abreve.sc
Substitution2: "'smcp' Lowercase to Small Capitals in Cyrillic lookup 13 subtable" abreve.sc
Substitution2: "'smcp' Lowercase to Small Capitals lookup 12 subtable" abreve.sc
AlternateSubs2: "'aalt' Access All Alternates lookup 1 subtable" abreve.sc abreve.SngStory abreve.2StorySItal
EndChar

StartChar: Aogonek
Encoding: 260 260 196
Width: 672
Flags: MW
HStem: -216 59<473.5 527.5> 0 44 257 47<226 417 226 426 199 417> 677 21G
VStem: -53 679<0 42 0 42> 413 68
LayerCount: 2
Fore
SplineSet
626 0 m 1x78
 391 0 l 1
 391 42 l 1
 437 47 l 2
 452 49 458 55 456 66 c 2
 426 257 l 1
 199 257 l 1
 97 66 l 2
 90 53 97 49 116 47 c 2
 162 42 l 1
 162 0 l 1
 -53 0 l 1
 -53 42 l 1
 3 48 l 1
 372 687 l 1
 452 687 l 1
 560 66 l 2
 562 53 566 48 580 47 c 2
 626 42 l 1
 626 0 l 1x78
417 304 m 1
 374 564 l 1
 226 304 l 1
 417 304 l 1
561 0 m 1x84
 524 -29 480 -72 480 -123 c 0
 480 -147 499 -157 521 -157 c 0
 534 -157 546 -155 558 -152 c 1
 549 -209 l 1
 532 -213 513 -216 495 -216 c 0
 452 -216 413 -199 413 -150 c 0
 413 -91 461 -33 507 0 c 1
 561 0 l 1x84
EndSplineSet
Substitution2: "'c2sc' Capitals to Small Capitals in Latin lookup 17 subtable" aogonek.sc
Substitution2: "'c2sc' Capitals to Small Capitals in Cyrillic lookup 16 subtable" aogonek.sc
Substitution2: "'c2sc' Capitals to Small Capitals lookup 15 subtable" aogonek.sc
EndChar

StartChar: aogonek
Encoding: 261 261 197
Width: 520
Flags: MW
HStem: -216 59<353.5 407.5> -12 59<364 459> -12 66<177 207> 446 48<257.5 338.5 226.5 340> 472 21G
VStem: 32 99<145 228 145 244.5> 293 68<-135 -120.5> 319 90<75.5 116>
LayerCount: 2
Fore
SplineSet
518 27 m 1x34
 502 20 427 -12 388 -12 c 0
 340 -12 323 12 319 56 c 1
 289 28 237 -12 177 -12 c 0
 59 -12 32 95 32 167 c 0
 32 322 133 494 320 494 c 0
 357 494 392 476 410 458 c 1x35
 425 482 l 1
 493 482 l 1
 487 467 476 435 474 425 c 0
 460 372 409 137 409 93 c 0
 409 58 425 47 452 47 c 0
 466 47 508 61 518 63 c 1x4d
 518 27 l 1x34
371 392 m 2
 372 399 346 446 334 446 c 0
 181 446 131 283 131 173 c 0
 131 117 146 54 208 54 c 0
 255 54 305 102 319 116 c 1
 371 392 l 2
441 0 m 1x82
 404 -29 361 -72 361 -123 c 0
 361 -147 379 -157 401 -157 c 0
 414 -157 426 -155 438 -152 c 1
 429 -209 l 1
 412 -213 393 -216 375 -216 c 0
 332 -216 293 -199 293 -150 c 0
 293 -91 341 -33 387 0 c 1
 441 0 l 1x82
EndSplineSet
Substitution2: "'ss05' Style Set 5 in Latin lookup 41 subtable" aogonek.2StorySItal
Substitution2: "'ss05' Style Set 5 in Cyrillic lookup 40 subtable" aogonek.2StorySItal
Substitution2: "'ss05' Style Set 5 lookup 39 subtable" aogonek.2StorySItal
Substitution2: "'ss07' Style Set 7 in Latin lookup 35 subtable" aogonek.SngStory
Substitution2: "'ss07' Style Set 7 in Cyrillic lookup 34 subtable" aogonek.SngStory
Substitution2: "'ss07' Style Set 7 lookup 33 subtable" aogonek.SngStory
Substitution2: "'smcp' Lowercase to Small Capitals in Latin lookup 14 subtable" aogonek.sc
Substitution2: "'smcp' Lowercase to Small Capitals in Cyrillic lookup 13 subtable" aogonek.sc
Substitution2: "'smcp' Lowercase to Small Capitals lookup 12 subtable" aogonek.sc
AlternateSubs2: "'aalt' Access All Alternates lookup 1 subtable" aogonek.sc aogonek.SngStory aogonek.2StorySItal
EndChar

StartChar: Cacute
Encoding: 262 262 198
Width: 629
Flags: MW
HStem: -16 51<303 374.5> 636 51<378.5 479> 746 181<361 572.5 361 572.5>
VStem: 48 106<196 371.5 180.5 373.5> 361 244<746 894>
LayerCount: 2
Fore
SplineSet
644 647 m 1
 617 491 l 1
 558 491 l 1
 558 584 l 2
 558 594 549 608 540 611 c 0
 535 614 503 636 455 636 c 0
 302 636 154 487 154 256 c 0
 154 105 247 35 359 35 c 0
 402 35 429 50 434 52 c 0
 442 53 453 63 457 72 c 2
 500 186 l 1
 559 186 l 1
 532 24 l 1
 517 19 423 -16 326 -16 c 0
 127 -16 48 125 48 267 c 0
 48 480 212 687 450 687 c 0
 515 687 567 672 644 647 c 1
605 884 m 0
 605 865 597 853 582 843 c 2
 432 746 l 1
 361 746 l 1
 498 902 l 2
 511 917 525 927 555 927 c 0
 590 927 605 904 605 884 c 0
EndSplineSet
Substitution2: "'c2sc' Capitals to Small Capitals in Latin lookup 17 subtable" cacute.sc
Substitution2: "'c2sc' Capitals to Small Capitals in Cyrillic lookup 16 subtable" cacute.sc
Substitution2: "'c2sc' Capitals to Small Capitals lookup 15 subtable" cacute.sc
EndChar

StartChar: cacute
Encoding: 263 263 199
Width: 435
Flags: MW
HStem: -12 65<183 230.5> 436 58<269 269> 551 181<221 432.5 221 432.5>
VStem: 32 95<153.5 226 153.5 263.5> 221 244<551 699>
LayerCount: 2
Fore
SplineSet
403 424 m 0
 403 398 390 367 326 359 c 1
 269 436 l 1
 161 431 127 266 127 186 c 0
 127 121 150 53 216 53 c 0
 269 53 325 93 382 149 c 1
 382 86 l 1
 341 46 275 -12 186 -12 c 0
 91 -12 32 55 32 174 c 0
 32 353 165 494 301 494 c 0
 373 494 403 454 403 424 c 0
465 689 m 0
 465 670 456 658 441 648 c 2
 292 551 l 1
 221 551 l 1
 357 707 l 2
 370 722 385 732 415 732 c 0
 450 732 465 709 465 689 c 0
EndSplineSet
Substitution2: "'smcp' Lowercase to Small Capitals in Latin lookup 14 subtable" cacute.sc
Substitution2: "'smcp' Lowercase to Small Capitals in Cyrillic lookup 13 subtable" cacute.sc
Substitution2: "'smcp' Lowercase to Small Capitals lookup 12 subtable" cacute.sc
Substitution2: "'aalt' Access All Alternates lookup 0 subtable" cacute.sc
EndChar

StartChar: Ccircumflex
Encoding: 264 264 200
Width: 629
Flags: MW
HStem: -16 51<303 374.5> 636 51<378.5 479> 746 169
VStem: 48 106<196 371.5 180.5 373.5> 272 342<746 746>
LayerCount: 2
Fore
SplineSet
644 647 m 1
 617 491 l 1
 558 491 l 1
 558 584 l 2
 558 594 549 608 540 611 c 0
 535 614 503 636 455 636 c 0
 302 636 154 487 154 256 c 0
 154 105 247 35 359 35 c 0
 402 35 429 50 434 52 c 0
 442 53 453 63 457 72 c 2
 500 186 l 1
 559 186 l 1
 532 24 l 1
 517 19 423 -16 326 -16 c 0
 127 -16 48 125 48 267 c 0
 48 480 212 687 450 687 c 0
 515 687 567 672 644 647 c 1
614 746 m 1
 544 746 l 1
 462 838 l 1
 342 746 l 1
 272 746 l 1
 437 916 l 1
 516 916 l 1
 614 746 l 1
EndSplineSet
Substitution2: "'c2sc' Capitals to Small Capitals in Latin lookup 17 subtable" ccircumflex.sc
Substitution2: "'c2sc' Capitals to Small Capitals in Cyrillic lookup 16 subtable" ccircumflex.sc
Substitution2: "'c2sc' Capitals to Small Capitals lookup 15 subtable" ccircumflex.sc
EndChar

StartChar: ccircumflex
Encoding: 265 265 201
Width: 435
Flags: MW
HStem: -12 65<183 230.5> 436 58<269 269> 551 169<132 375 132 375 297 474 297 404>
VStem: 32 95<153.5 226 153.5 263.5> 132 342<551 551>
LayerCount: 2
Fore
SplineSet
403 424 m 0
 403 398 390 367 326 359 c 1
 269 436 l 1
 161 431 127 266 127 186 c 0
 127 121 150 53 216 53 c 0
 269 53 325 93 382 149 c 1
 382 86 l 1
 341 46 275 -12 186 -12 c 0
 91 -12 32 55 32 174 c 0
 32 353 165 494 301 494 c 0
 373 494 403 454 403 424 c 0
474 551 m 1
 404 551 l 1
 322 643 l 1
 202 551 l 1
 132 551 l 1
 297 720 l 1
 375 720 l 1
 474 551 l 1
EndSplineSet
Substitution2: "'smcp' Lowercase to Small Capitals in Latin lookup 14 subtable" ccircumflex.sc
Substitution2: "'smcp' Lowercase to Small Capitals in Cyrillic lookup 13 subtable" ccircumflex.sc
Substitution2: "'smcp' Lowercase to Small Capitals lookup 12 subtable" ccircumflex.sc
Substitution2: "'aalt' Access All Alternates lookup 0 subtable" ccircumflex.sc
EndChar

StartChar: Cdotaccent
Encoding: 266 266 202
Width: 629
Flags: MW
HStem: -16 51<303 374.5> 636 51<378.5 479> 780 113
VStem: 48 106<196 371.5 180.5 373.5> 406 112<820.5 851.5>
LayerCount: 2
Fore
SplineSet
644 647 m 1
 617 491 l 1
 558 491 l 1
 558 584 l 2
 558 594 549 608 540 611 c 0
 535 614 503 636 455 636 c 0
 302 636 154 487 154 256 c 0
 154 105 247 35 359 35 c 0
 402 35 429 50 434 52 c 0
 442 53 453 63 457 72 c 2
 500 186 l 1
 559 186 l 1
 532 24 l 1
 517 19 423 -16 326 -16 c 0
 127 -16 48 125 48 267 c 0
 48 480 212 687 450 687 c 0
 515 687 567 672 644 647 c 1
518 836 m 0
 518 805 492 780 461 780 c 0
 430 780 406 805 406 836 c 0
 406 867 429 894 461 894 c 0
 492 894 518 868 518 836 c 0
EndSplineSet
Substitution2: "'c2sc' Capitals to Small Capitals in Latin lookup 17 subtable" cdotaccent.sc
Substitution2: "'c2sc' Capitals to Small Capitals in Cyrillic lookup 16 subtable" cdotaccent.sc
Substitution2: "'c2sc' Capitals to Small Capitals lookup 15 subtable" cdotaccent.sc
EndChar

StartChar: cdotaccent
Encoding: 267 267 203
Width: 435
Flags: MW
HStem: -12 65<183 230.5> 436 58<269 269> 585 113<305.5 336.5>
VStem: 32 95<153.5 226 153.5 263.5> 266 112
LayerCount: 2
Fore
SplineSet
403 424 m 0
 403 398 390 367 326 359 c 1
 269 436 l 1
 161 431 127 266 127 186 c 0
 127 121 150 53 216 53 c 0
 269 53 325 93 382 149 c 1
 382 86 l 1
 341 46 275 -12 186 -12 c 0
 91 -12 32 55 32 174 c 0
 32 353 165 494 301 494 c 0
 373 494 403 454 403 424 c 0
377 641 m 0
 377 610 352 585 321 585 c 0
 290 585 266 610 266 641 c 0
 266 672 289 698 321 698 c 0
 352 698 377 673 377 641 c 0
EndSplineSet
Substitution2: "'smcp' Lowercase to Small Capitals in Latin lookup 14 subtable" cdotaccent.sc
Substitution2: "'smcp' Lowercase to Small Capitals in Cyrillic lookup 13 subtable" cdotaccent.sc
Substitution2: "'smcp' Lowercase to Small Capitals lookup 12 subtable" cdotaccent.sc
Substitution2: "'aalt' Access All Alternates lookup 0 subtable" cdotaccent.sc
EndChar

StartChar: Ccaron
Encoding: 268 268 204
Width: 629
Flags: MW
HStem: -16 51<303 374.5> 636 51<378.5 479> 746 169
VStem: 48 106<196 371.5 180.5 373.5> 306 343<916 916>
LayerCount: 2
Fore
SplineSet
644 647 m 1
 617 491 l 1
 558 491 l 1
 558 584 l 2
 558 594 549 608 540 611 c 0
 535 614 503 636 455 636 c 0
 302 636 154 487 154 256 c 0
 154 105 247 35 359 35 c 0
 402 35 429 50 434 52 c 0
 442 53 453 63 457 72 c 2
 500 186 l 1
 559 186 l 1
 532 24 l 1
 517 19 423 -16 326 -16 c 0
 127 -16 48 125 48 267 c 0
 48 480 212 687 450 687 c 0
 515 687 567 672 644 647 c 1
649 916 m 1
 483 746 l 1
 404 746 l 1
 306 916 l 1
 376 916 l 1
 459 823 l 1
 578 916 l 1
 649 916 l 1
EndSplineSet
Substitution2: "'c2sc' Capitals to Small Capitals in Latin lookup 17 subtable" ccaron.sc
Substitution2: "'c2sc' Capitals to Small Capitals in Cyrillic lookup 16 subtable" ccaron.sc
Substitution2: "'c2sc' Capitals to Small Capitals lookup 15 subtable" ccaron.sc
EndChar

StartChar: ccaron
Encoding: 269 269 205
Width: 435
Flags: MW
HStem: -12 65<183 230.5> 436 58<269 269> 551 169<166 343 166 264>
VStem: 32 95<153.5 226 153.5 263.5> 166 343<720 720>
LayerCount: 2
Fore
SplineSet
403 424 m 0
 403 398 390 367 326 359 c 1
 269 436 l 1
 161 431 127 266 127 186 c 0
 127 121 150 53 216 53 c 0
 269 53 325 93 382 149 c 1
 382 86 l 1
 341 46 275 -12 186 -12 c 0
 91 -12 32 55 32 174 c 0
 32 353 165 494 301 494 c 0
 373 494 403 454 403 424 c 0
509 720 m 1
 343 551 l 1
 264 551 l 1
 166 720 l 1
 236 720 l 1
 319 628 l 1
 438 720 l 1
 509 720 l 1
EndSplineSet
Substitution2: "'smcp' Lowercase to Small Capitals in Latin lookup 14 subtable" ccaron.sc
Substitution2: "'smcp' Lowercase to Small Capitals in Cyrillic lookup 13 subtable" ccaron.sc
Substitution2: "'smcp' Lowercase to Small Capitals lookup 12 subtable" ccaron.sc
Substitution2: "'aalt' Access All Alternates lookup 0 subtable" ccaron.sc
EndChar

StartChar: Dcaron
Encoding: 270 270 206
Width: 670
Flags: MW
HStem: 0 44 0 52<165 220> 621 50<275 311 275 275> 626 44 746 169
VStem: 264 343<916 916> 545 108<329 507.5>
LayerCount: 2
Fore
SplineSet
653 415 m 0x62
 653 169 476 0 220 0 c 2
 -15 0 l 1x62
 -15 42 l 1
 47 47 l 2
 60 48 64 54 67 66 c 2
 171 604 l 2
 173 615 169 623 151 624 c 2
 95 629 l 1x92
 95 671 l 1
 334 671 l 2
 516 671 653 605 653 415 c 0x62
545 424 m 0
 545 591 435 617 311 621 c 1
 275 621 l 1
 165 52 l 1
 238 52 l 2
 440 54 545 234 545 424 c 0
607 916 m 1x0c
 441 746 l 1
 362 746 l 1
 264 916 l 1
 334 916 l 1
 417 823 l 1
 536 916 l 1
 607 916 l 1x0c
EndSplineSet
Substitution2: "'c2sc' Capitals to Small Capitals in Latin lookup 17 subtable" dcaron.sc
Substitution2: "'c2sc' Capitals to Small Capitals in Cyrillic lookup 16 subtable" dcaron.sc
Substitution2: "'c2sc' Capitals to Small Capitals lookup 15 subtable" dcaron.sc
EndChar

StartChar: dcaron
Encoding: 271 271 207
Width: 676
Flags: MW
HStem: -12 52<361.5 456> -12 61<187.5 203> 449 45<264.5 326> 672 65<488 639 488 586> 672 84<623 639 586 657.5> 727 21G
VStem: 32 97<130 246.5> 578 116<694.5 714 654 715.5>
LayerCount: 2
Fore
SplineSet
529 737 m 1x66
 415 86 l 2
 408 49 442 40 451 40 c 0
 461 40 514 57 523 59 c 1xa6
 523 22 l 1
 507 16 433 -12 392 -12 c 0
 331 -12 317 19 317 63 c 1
 282 26 231 -12 175 -12 c 0
 63 -12 32 83 32 167 c 0
 32 326 138 494 315 494 c 0
 345 494 373 481 390 475 c 1
 424 668 l 1
 333 677 l 1
 333 707 l 1
 488 737 l 1
 529 737 l 1x66
376 394 m 2
 377 400 339 449 313 449 c 0
 216 449 129 329 129 173 c 0
 129 87 168 49 207 49 c 0x66
 243 49 294 89 330 131 c 1
 376 394 l 2
694 696 m 0x6b
 694 612 623 565 548 551 c 1
 554 584 l 1
 608 601 628 615 639 672 c 1
 586 672 l 1x73
 580 679 578 690 578 699 c 0
 578 732 607 756 639 756 c 0
 676 756 694 732 694 696 c 0x6b
EndSplineSet
Substitution2: "'smcp' Lowercase to Small Capitals in Latin lookup 14 subtable" dcaron.sc
Substitution2: "'smcp' Lowercase to Small Capitals in Cyrillic lookup 13 subtable" dcaron.sc
Substitution2: "'smcp' Lowercase to Small Capitals lookup 12 subtable" dcaron.sc
Substitution2: "'aalt' Access All Alternates lookup 0 subtable" dcaron.sc
EndChar

StartChar: Dcroat
Encoding: 272 272 208
Width: 670
Flags: MW
HStem: 0 44 0 52<165 220> 326 53<29 347 29 347> 621 50<275 311 275 275> 626 44
VStem: 29 318<326 379 326 379> 545 108<329 507.5>
LayerCount: 2
Fore
SplineSet
29 326 m 1x24
 29 379 l 1
 347 379 l 1
 347 326 l 1
 29 326 l 1x24
653 415 m 0x00
 653 169 476 0 220 0 c 2
 -15 0 l 1x8a
 -15 42 l 1
 47 47 l 2
 60 48 64 54 67 66 c 2
 171 604 l 2
 173 615 169 623 151 624 c 2
 95 629 l 1x52
 95 671 l 1
 334 671 l 2
 516 671 653 605 653 415 c 0x00
545 424 m 0
 545 591 435 617 311 621 c 1
 275 621 l 1
 165 52 l 1
 238 52 l 2
 440 54 545 234 545 424 c 0
EndSplineSet
Substitution2: "'c2sc' Capitals to Small Capitals in Latin lookup 17 subtable" dcroat.sc
Substitution2: "'c2sc' Capitals to Small Capitals in Cyrillic lookup 16 subtable" dcroat.sc
Substitution2: "'c2sc' Capitals to Small Capitals lookup 15 subtable" dcroat.sc
EndChar

StartChar: dcroat
Encoding: 273 273 209
Width: 525
Flags: MW
HStem: -12 52<361.5 456> -12 61<187.5 203> 449 45<264.5 326> 535 55<263 400 252 410 503 584> 727 21G
VStem: 32 97<130 246.5>
LayerCount: 2
Fore
SplineSet
594 590 m 1x7c
 584 535 l 1
 493 535 l 1
 415 86 l 2
 408 49 442 40 451 40 c 0
 461 40 514 57 523 59 c 1xbc
 523 22 l 1
 507 16 433 -12 392 -12 c 0
 331 -12 317 19 317 63 c 1
 282 26 231 -12 175 -12 c 0
 63 -12 32 83 32 167 c 0
 32 326 138 494 315 494 c 0
 345 494 373 481 390 475 c 1
 400 535 l 1
 252 535 l 1
 263 590 l 1
 410 590 l 1
 424 668 l 1
 333 677 l 1
 333 707 l 1
 488 737 l 1
 529 737 l 1
 503 590 l 1
 594 590 l 1x7c
376 394 m 2
 377 400 339 449 313 449 c 0
 216 449 129 329 129 173 c 0
 129 87 168 49 207 49 c 0x7c
 243 49 294 89 330 131 c 1
 376 394 l 2
EndSplineSet
Substitution2: "'ss04' Style Set 4 in Latin lookup 38 subtable" dcroat.BarBowl
Substitution2: "'ss04' Style Set 4 in Cyrillic lookup 37 subtable" dcroat.BarBowl
Substitution2: "'ss04' Style Set 4 lookup 36 subtable" dcroat.BarBowl
Substitution2: "'smcp' Lowercase to Small Capitals in Latin lookup 14 subtable" dcroat.sc
Substitution2: "'smcp' Lowercase to Small Capitals in Cyrillic lookup 13 subtable" dcroat.sc
Substitution2: "'smcp' Lowercase to Small Capitals lookup 12 subtable" dcroat.sc
AlternateSubs2: "'aalt' Access All Alternates lookup 1 subtable" dcroat.sc dcroat.BarBowl
EndChar

StartChar: Emacron
Encoding: 274 274 210
Width: 558
Flags: MW
HStem: 0 44 0 50<166 401 401 408 166 485> 323 52<229 353 218 363> 621 50<275 467 275 275> 626 44 781 66<231 520 217 532>
VStem: -15 595 217 315<781 847>
LayerCount: 2
Fore
SplineSet
580 671 m 1x72
 550 521 l 1
 486 521 l 1
 486 602 l 2
 486 616 482 621 467 621 c 2
 275 621 l 1
 229 375 l 1
 363 375 l 2
 377 375 384 380 388 394 c 2
 407 461 l 1
 463 461 l 1
 419 232 l 1
 362 232 l 1
 372 303 l 2
 374 316 367 323 353 323 c 2
 218 323 l 1
 166 50 l 1
 401 50 l 2
 415 50 422 58 426 70 c 2
 457 166 l 1
 518 166 l 1
 485 0 l 1
 -15 0 l 1x72
 -15 42 l 1
 43 47 l 2
 56 48 65 54 67 66 c 2
 171 604 l 2
 173 615 169 623 152 624 c 2
 96 629 l 1xaa
 96 671 l 1
 580 671 l 1x72
532 847 m 1x05
 520 781 l 1
 217 781 l 1
 231 847 l 1
 532 847 l 1x05
EndSplineSet
Substitution2: "'c2sc' Capitals to Small Capitals in Latin lookup 17 subtable" emacron.sc
Substitution2: "'c2sc' Capitals to Small Capitals in Cyrillic lookup 16 subtable" emacron.sc
Substitution2: "'c2sc' Capitals to Small Capitals lookup 15 subtable" emacron.sc
EndChar

StartChar: emacron
Encoding: 275 275 211
Width: 434
Flags: MW
HStem: -12 60<195 236.5> 447 46<241 290.5> 586 66<166 454 151 467>
VStem: 32 97<137.5 180 137.5 249> 151 315 328 89<358.5 407>
LayerCount: 2
Fore
SplineSet
417 393 m 0xd4
 417 284 252 227 133 220 c 1
 131 207 129 186 129 174 c 0
 129 101 166 48 224 48 c 0
 269 48 321 81 394 145 c 1
 394 82 l 1
 357 46 282 -12 191 -12 c 0
 130 -12 32 18 32 170 c 0
 32 328 153 493 296 493 c 0
 388 493 417 422 417 393 c 0xd4
328 394 m 0
 328 420 307 447 274 447 c 0
 208 447 155 334 137 258 c 1
 222 266 328 323 328 394 c 0
467 652 m 1x28
 454 586 l 1
 151 586 l 1
 166 652 l 1
 467 652 l 1x28
EndSplineSet
Substitution2: "'smcp' Lowercase to Small Capitals in Latin lookup 14 subtable" emacron.sc
Substitution2: "'smcp' Lowercase to Small Capitals in Cyrillic lookup 13 subtable" emacron.sc
Substitution2: "'smcp' Lowercase to Small Capitals lookup 12 subtable" emacron.sc
Substitution2: "'aalt' Access All Alternates lookup 0 subtable" emacron.sc
EndChar

StartChar: Ebreve
Encoding: 276 276 212
Width: 558
Flags: MW
HStem: 0 44 0 50<166 401 401 408 166 485> 323 52<229 353 218 363> 621 50<275 467 275 275> 626 44 746 66<354.5 394.5 354.5 416.5>
VStem: -15 595 233 312<834.5 890>
LayerCount: 2
Fore
SplineSet
580 671 m 1x72
 550 521 l 1
 486 521 l 1
 486 602 l 2
 486 616 482 621 467 621 c 2
 275 621 l 1
 229 375 l 1
 363 375 l 2
 377 375 384 380 388 394 c 2
 407 461 l 1
 463 461 l 1
 419 232 l 1
 362 232 l 1
 372 303 l 2
 374 316 367 323 353 323 c 2
 218 323 l 1
 166 50 l 1
 401 50 l 2
 415 50 422 58 426 70 c 2
 457 166 l 1
 518 166 l 1
 485 0 l 1
 -15 0 l 1x72
 -15 42 l 1
 43 47 l 2
 56 48 65 54 67 66 c 2
 171 604 l 2
 173 615 169 623 152 624 c 2
 96 629 l 1xaa
 96 671 l 1
 580 671 l 1x72
545 890 m 1x05
 529 822 469 746 364 746 c 0
 269 746 233 806 233 863 c 0
 233 871 234 880 235 890 c 1
 288 890 l 1
 291 831 335 812 374 812 c 0
 415 812 469 832 495 890 c 1
 545 890 l 1x05
EndSplineSet
Substitution2: "'c2sc' Capitals to Small Capitals in Latin lookup 17 subtable" ebreve.sc
Substitution2: "'c2sc' Capitals to Small Capitals in Cyrillic lookup 16 subtable" ebreve.sc
Substitution2: "'c2sc' Capitals to Small Capitals lookup 15 subtable" ebreve.sc
EndChar

StartChar: ebreve
Encoding: 277 277 213
Width: 434
Flags: MW
HStem: -12 60<195 236.5> 447 46<241 290.5> 551 66<288.5 328.5 288.5 350.5>
VStem: 32 97<137.5 180 137.5 249> 168 312<639.5 695> 328 89<358.5 407>
LayerCount: 2
Fore
SplineSet
417 393 m 0xd4
 417 284 252 227 133 220 c 1
 131 207 129 186 129 174 c 0
 129 101 166 48 224 48 c 0
 269 48 321 81 394 145 c 1
 394 82 l 1
 357 46 282 -12 191 -12 c 0
 130 -12 32 18 32 170 c 0
 32 328 153 493 296 493 c 0
 388 493 417 422 417 393 c 0xd4
328 394 m 0
 328 420 307 447 274 447 c 0
 208 447 155 334 137 258 c 1
 222 266 328 323 328 394 c 0
480 695 m 1x28
 464 627 403 551 298 551 c 0
 203 551 168 611 168 668 c 0
 168 676 169 685 170 695 c 1
 222 695 l 1
 225 636 269 617 308 617 c 0
 349 617 403 637 429 695 c 1
 480 695 l 1x28
EndSplineSet
Substitution2: "'smcp' Lowercase to Small Capitals in Latin lookup 14 subtable" ebreve.sc
Substitution2: "'smcp' Lowercase to Small Capitals in Cyrillic lookup 13 subtable" ebreve.sc
Substitution2: "'smcp' Lowercase to Small Capitals lookup 12 subtable" ebreve.sc
Substitution2: "'aalt' Access All Alternates lookup 0 subtable" ebreve.sc
EndChar

StartChar: Edotaccent
Encoding: 278 278 214
Width: 558
Flags: MW
HStem: 0 44 0 50<166 401 401 408 166 485> 323 52<229 353 218 363> 621 50<275 467 275 275> 626 44 780 113<364.5 395.5>
VStem: -15 595 324 112<820.5 851.5>
LayerCount: 2
Fore
SplineSet
580 671 m 1x72
 550 521 l 1
 486 521 l 1
 486 602 l 2
 486 616 482 621 467 621 c 2
 275 621 l 1
 229 375 l 1
 363 375 l 2
 377 375 384 380 388 394 c 2
 407 461 l 1
 463 461 l 1
 419 232 l 1
 362 232 l 1
 372 303 l 2
 374 316 367 323 353 323 c 2
 218 323 l 1
 166 50 l 1
 401 50 l 2
 415 50 422 58 426 70 c 2
 457 166 l 1
 518 166 l 1
 485 0 l 1
 -15 0 l 1x72
 -15 42 l 1
 43 47 l 2
 56 48 65 54 67 66 c 2
 171 604 l 2
 173 615 169 623 152 624 c 2
 96 629 l 1xaa
 96 671 l 1
 580 671 l 1x72
436 836 m 0x05
 436 805 411 780 380 780 c 0
 349 780 324 805 324 836 c 0
 324 867 348 893 380 893 c 0
 411 893 436 868 436 836 c 0x05
EndSplineSet
Substitution2: "'c2sc' Capitals to Small Capitals in Latin lookup 17 subtable" edotaccent.sc
Substitution2: "'c2sc' Capitals to Small Capitals in Cyrillic lookup 16 subtable" edotaccent.sc
Substitution2: "'c2sc' Capitals to Small Capitals lookup 15 subtable" edotaccent.sc
EndChar

StartChar: edotaccent
Encoding: 279 279 215
Width: 434
Flags: MW
HStem: -12 60<195 236.5> 447 46<241 290.5> 585 113<298.5 329.5>
VStem: 32 97<137.5 180 137.5 249> 258 112<625.5 656.5> 328 89<358.5 407>
LayerCount: 2
Fore
SplineSet
417 393 m 0xd4
 417 284 252 227 133 220 c 1
 131 207 129 186 129 174 c 0
 129 101 166 48 224 48 c 0
 269 48 321 81 394 145 c 1
 394 82 l 1
 357 46 282 -12 191 -12 c 0
 130 -12 32 18 32 170 c 0
 32 328 153 493 296 493 c 0
 388 493 417 422 417 393 c 0xd4
328 394 m 0
 328 420 307 447 274 447 c 0
 208 447 155 334 137 258 c 1
 222 266 328 323 328 394 c 0
370 641 m 0x28
 370 610 345 585 314 585 c 0
 283 585 258 610 258 641 c 0
 258 672 282 698 314 698 c 0
 345 698 370 673 370 641 c 0x28
EndSplineSet
Substitution2: "'smcp' Lowercase to Small Capitals in Latin lookup 14 subtable" edotaccent.sc
Substitution2: "'smcp' Lowercase to Small Capitals in Cyrillic lookup 13 subtable" edotaccent.sc
Substitution2: "'smcp' Lowercase to Small Capitals lookup 12 subtable" edotaccent.sc
Substitution2: "'aalt' Access All Alternates lookup 0 subtable" edotaccent.sc
EndChar

StartChar: Eogonek
Encoding: 280 280 216
Width: 558
Flags: MW
HStem: -216 59<313.5 367.5> 0 44 0 50<166 401 401 408 166 485 347 401 166 401> 323 52<229 353 218 363> 621 50<275 467 275 275> 626 44
VStem: -15 595 253 68<-135 -120.5>
LayerCount: 2
Fore
SplineSet
580 671 m 1x3a
 550 521 l 1
 486 521 l 1
 486 602 l 2
 486 616 482 621 467 621 c 2
 275 621 l 1
 229 375 l 1
 363 375 l 2
 377 375 384 380 388 394 c 2
 407 461 l 1
 463 461 l 1
 419 232 l 1
 362 232 l 1
 372 303 l 2
 374 316 367 323 353 323 c 2
 218 323 l 1
 166 50 l 1
 401 50 l 2
 415 50 422 58 426 70 c 2
 457 166 l 1
 518 166 l 1
 485 0 l 1
 -15 0 l 1x3a
 -15 42 l 1
 43 47 l 2
 56 48 65 54 67 66 c 2
 171 604 l 2
 173 615 169 623 152 624 c 2
 96 629 l 1x56
 96 671 l 1
 580 671 l 1x3a
401 0 m 1x81
 364 -29 321 -72 321 -123 c 0
 321 -147 339 -157 361 -157 c 0
 374 -157 386 -155 398 -152 c 1
 389 -209 l 1
 372 -213 353 -216 335 -216 c 0
 292 -216 253 -199 253 -150 c 0
 253 -91 301 -33 347 0 c 1
 401 0 l 1x81
EndSplineSet
Substitution2: "'c2sc' Capitals to Small Capitals in Latin lookup 17 subtable" eogonek.sc
Substitution2: "'c2sc' Capitals to Small Capitals in Cyrillic lookup 16 subtable" eogonek.sc
Substitution2: "'c2sc' Capitals to Small Capitals lookup 15 subtable" eogonek.sc
EndChar

StartChar: eogonek
Encoding: 281 281 217
Width: 434
Flags: MW
HStem: -216 59<193.5 247.5> -12 60<195 236.5> 447 46<241 290.5>
VStem: 32 97<137.5 180 137.5 249> 133 68<-135 -120.5> 328 89<358.5 407>
LayerCount: 2
Fore
SplineSet
278 -152 m 1
 269 -209 l 1
 252 -213 233 -216 215 -216 c 0
 172 -216 133 -199 133 -150 c 0
 133 -91 181 -33 227 0 c 1
 323 27 l 1
 255 -10 201 -72 201 -123 c 0
 201 -147 219 -157 241 -157 c 0
 254 -157 266 -155 278 -152 c 1
417 393 m 0
 417 284 252 227 133 220 c 1
 131 207 129 186 129 174 c 0
 129 101 166 48 224 48 c 0
 269 48 321 81 394 145 c 1
 394 82 l 1
 357 46 282 -12 191 -12 c 0
 130 -12 32 18 32 170 c 0
 32 328 153 493 296 493 c 0
 388 493 417 422 417 393 c 0
328 394 m 0
 328 420 307 447 274 447 c 0
 208 447 155 334 137 258 c 1
 222 266 328 323 328 394 c 0
EndSplineSet
Substitution2: "'smcp' Lowercase to Small Capitals in Latin lookup 14 subtable" eogonek.sc
Substitution2: "'smcp' Lowercase to Small Capitals in Cyrillic lookup 13 subtable" eogonek.sc
Substitution2: "'smcp' Lowercase to Small Capitals lookup 12 subtable" eogonek.sc
Substitution2: "'aalt' Access All Alternates lookup 0 subtable" eogonek.sc
EndChar

StartChar: Ecaron
Encoding: 282 282 218
Width: 558
Flags: MW
HStem: 0 44 0 50<166 401 401 408 166 485> 323 52<229 353 218 363> 621 50<275 467 275 275> 626 44 746 169
VStem: -15 595 224 343<916 916>
LayerCount: 2
Fore
SplineSet
580 671 m 1x72
 550 521 l 1
 486 521 l 1
 486 602 l 2
 486 616 482 621 467 621 c 2
 275 621 l 1
 229 375 l 1
 363 375 l 2
 377 375 384 380 388 394 c 2
 407 461 l 1
 463 461 l 1
 419 232 l 1
 362 232 l 1
 372 303 l 2
 374 316 367 323 353 323 c 2
 218 323 l 1
 166 50 l 1
 401 50 l 2
 415 50 422 58 426 70 c 2
 457 166 l 1
 518 166 l 1
 485 0 l 1
 -15 0 l 1x72
 -15 42 l 1
 43 47 l 2
 56 48 65 54 67 66 c 2
 171 604 l 2
 173 615 169 623 152 624 c 2
 96 629 l 1xaa
 96 671 l 1
 580 671 l 1x72
567 916 m 1x05
 401 746 l 1
 322 746 l 1
 224 916 l 1
 294 916 l 1
 377 823 l 1
 496 916 l 1
 567 916 l 1x05
EndSplineSet
Substitution2: "'c2sc' Capitals to Small Capitals in Latin lookup 17 subtable" ecaron.sc
Substitution2: "'c2sc' Capitals to Small Capitals in Cyrillic lookup 16 subtable" ecaron.sc
Substitution2: "'c2sc' Capitals to Small Capitals lookup 15 subtable" ecaron.sc
EndChar

StartChar: ecaron
Encoding: 283 283 219
Width: 434
Flags: MW
HStem: -12 60<195 236.5> 447 46<241 290.5> 551 169<159 336 159 257>
VStem: 32 97<137.5 180 137.5 249> 159 343<720 720> 328 89<358.5 407>
LayerCount: 2
Fore
SplineSet
417 393 m 0xd4
 417 284 252 227 133 220 c 1
 131 207 129 186 129 174 c 0
 129 101 166 48 224 48 c 0
 269 48 321 81 394 145 c 1
 394 82 l 1
 357 46 282 -12 191 -12 c 0
 130 -12 32 18 32 170 c 0
 32 328 153 493 296 493 c 0
 388 493 417 422 417 393 c 0xd4
328 394 m 0
 328 420 307 447 274 447 c 0
 208 447 155 334 137 258 c 1
 222 266 328 323 328 394 c 0
502 720 m 1x28
 336 551 l 1
 257 551 l 1
 159 720 l 1
 229 720 l 1
 312 628 l 1
 431 720 l 1
 502 720 l 1x28
EndSplineSet
Substitution2: "'smcp' Lowercase to Small Capitals in Latin lookup 14 subtable" ecaron.sc
Substitution2: "'smcp' Lowercase to Small Capitals in Cyrillic lookup 13 subtable" ecaron.sc
Substitution2: "'smcp' Lowercase to Small Capitals lookup 12 subtable" ecaron.sc
Substitution2: "'aalt' Access All Alternates lookup 0 subtable" ecaron.sc
EndChar

StartChar: Gcircumflex
Encoding: 284 284 220
Width: 687
Flags: MW
HStem: -16 53<316 372 316 373.5> 279 44 633 54<392 491> 746 169
VStem: 48 110<212 367.5 171.5 396> 287 342
LayerCount: 2
Fore
SplineSet
675 282 m 1
 618 277 l 2
 605 276 596 271 593 258 c 2
 548 23 l 1
 528 18 415 -16 332 -16 c 0
 104 -16 48 156 48 268 c 0
 48 524 264 687 479 687 c 0
 544 687 588 677 665 653 c 1
 634 492 l 1
 566 492 l 1
 569 584 l 2
 570 599 562 609 550 612 c 0
 545 614 515 633 467 633 c 0
 317 633 158 483 158 252 c 0
 158 91 280 37 352 37 c 0
 392 37 437 50 453 54 c 1
 492 258 l 2
 494 269 490 276 472 277 c 2
 417 282 l 1
 417 324 l 1
 675 324 l 1
 675 282 l 1
628 746 m 1
 559 746 l 1
 477 838 l 1
 356 746 l 1
 287 746 l 1
 452 916 l 1
 530 916 l 1
 628 746 l 1
EndSplineSet
Substitution2: "'c2sc' Capitals to Small Capitals in Latin lookup 17 subtable" gcircumflex.sc
Substitution2: "'c2sc' Capitals to Small Capitals in Cyrillic lookup 16 subtable" gcircumflex.sc
Substitution2: "'c2sc' Capitals to Small Capitals lookup 15 subtable" gcircumflex.sc
EndChar

StartChar: gcircumflex
Encoding: 285 285 221
Width: 439
Flags: MW
HStem: -229 46<144.5 224.5> 163 37<189 234.5 183.5 247> 421 47<393 485 393 393> 452 42<228 272> 551 169<112 356 112 356 277 454 277 384>
VStem: -31 94<-89 -49> 48 96<264 330 259 344.5> 112 342<551 551> 310 96<327.5 367.5 290.5 383.5> 321 93<-104.5 -76>
LayerCount: 2
Fore
SplineSet
485 421 m 1xe280
 393 421 l 1
 399 406 406 381 406 354 c 0xe280
 406 227 305 163 189 163 c 1
 180 143 175 114 178 103 c 1
 312 42 l 2
 373 14 414 -10 414 -68 c 0
 414 -154 288 -229 161 -229 c 0
 30 -229 -31 -159 -31 -83 c 0xd440
 -31 -15 29 31 102 55 c 1
 96 86 114 145 141 172 c 1
 88 195 48 232 48 296 c 0
 48 393 123 494 250 494 c 0xd280
 298 494 337 475 349 468 c 1
 485 468 l 1
 485 421 l 1xe280
310 359 m 0xd280
 310 408 292 452 252 452 c 0
 204 452 144 377 144 283 c 0
 144 235 166 200 201 200 c 0
 268 200 310 296 310 359 c 0xd280
321 -88 m 0xd440
 321 -64 309 -44 270 -26 c 2
 145 31 l 1
 81 15 63 -26 63 -66 c 0
 63 -112 102 -183 187 -183 c 0
 283 -183 321 -121 321 -88 c 0xd440
454 551 m 1x09
 384 551 l 1
 302 643 l 1
 182 551 l 1
 112 551 l 1
 277 720 l 1
 356 720 l 1
 454 551 l 1x09
EndSplineSet
Substitution2: "'ss07' Style Set 7 in Latin lookup 35 subtable" gcircumflex.SngBowl
Substitution2: "'ss07' Style Set 7 in Cyrillic lookup 34 subtable" gcircumflex.SngBowl
Substitution2: "'ss07' Style Set 7 lookup 33 subtable" gcircumflex.SngBowl
Substitution2: "'smcp' Lowercase to Small Capitals in Latin lookup 14 subtable" gcircumflex.sc
Substitution2: "'smcp' Lowercase to Small Capitals in Cyrillic lookup 13 subtable" gcircumflex.sc
Substitution2: "'smcp' Lowercase to Small Capitals lookup 12 subtable" gcircumflex.sc
AlternateSubs2: "'aalt' Access All Alternates lookup 1 subtable" gcircumflex.sc gcircumflex.SngBowl
EndChar

StartChar: Gbreve
Encoding: 286 286 222
Width: 687
Flags: MW
HStem: -16 53<316 372 316 373.5> 279 44 633 54<392 491> 746 66<450.5 490.5 450.5 512.5>
VStem: 48 110<212 367.5 171.5 396> 330 312<834.5 890>
LayerCount: 2
Fore
SplineSet
675 282 m 1
 618 277 l 2
 605 276 596 271 593 258 c 2
 548 23 l 1
 528 18 415 -16 332 -16 c 0
 104 -16 48 156 48 268 c 0
 48 524 264 687 479 687 c 0
 544 687 588 677 665 653 c 1
 634 492 l 1
 566 492 l 1
 569 584 l 2
 570 599 562 609 550 612 c 0
 545 614 515 633 467 633 c 0
 317 633 158 483 158 252 c 0
 158 91 280 37 352 37 c 0
 392 37 437 50 453 54 c 1
 492 258 l 2
 494 269 490 276 472 277 c 2
 417 282 l 1
 417 324 l 1
 675 324 l 1
 675 282 l 1
642 890 m 1
 626 822 565 746 460 746 c 0
 365 746 330 806 330 863 c 0
 330 871 331 880 332 890 c 1
 384 890 l 1
 387 831 431 812 470 812 c 0
 511 812 565 832 591 890 c 1
 642 890 l 1
EndSplineSet
Substitution2: "'c2sc' Capitals to Small Capitals in Latin lookup 17 subtable" gbreve.sc
Substitution2: "'c2sc' Capitals to Small Capitals in Cyrillic lookup 16 subtable" gbreve.sc
Substitution2: "'c2sc' Capitals to Small Capitals lookup 15 subtable" gbreve.sc
EndChar

StartChar: gbreve
Encoding: 287 287 223
Width: 439
Flags: MW
HStem: -229 46<144.5 224.5> 163 37<189 234.5 183.5 247> 421 47<393 485 393 393> 452 42<228 272> 551 66<276.5 316.5 276.5 338.5>
VStem: -31 94<-89 -49> 48 96<264 330 259 344.5> 156 312<639.5 695> 310 96<327.5 367.5 290.5 383.5> 321 93<-104.5 -76>
LayerCount: 2
Fore
SplineSet
485 421 m 1xe280
 393 421 l 1
 399 406 406 381 406 354 c 0xe280
 406 227 305 163 189 163 c 1
 180 143 175 114 178 103 c 1
 312 42 l 2
 373 14 414 -10 414 -68 c 0
 414 -154 288 -229 161 -229 c 0
 30 -229 -31 -159 -31 -83 c 0xd440
 -31 -15 29 31 102 55 c 1
 96 86 114 145 141 172 c 1
 88 195 48 232 48 296 c 0
 48 393 123 494 250 494 c 0xd280
 298 494 337 475 349 468 c 1
 485 468 l 1
 485 421 l 1xe280
310 359 m 0xd280
 310 408 292 452 252 452 c 0
 204 452 144 377 144 283 c 0
 144 235 166 200 201 200 c 0
 268 200 310 296 310 359 c 0xd280
321 -88 m 0xd440
 321 -64 309 -44 270 -26 c 2
 145 31 l 1
 81 15 63 -26 63 -66 c 0
 63 -112 102 -183 187 -183 c 0
 283 -183 321 -121 321 -88 c 0xd440
468 695 m 1x09
 452 627 391 551 286 551 c 0
 191 551 156 611 156 668 c 0
 156 676 157 685 158 695 c 1
 210 695 l 1
 213 636 257 617 296 617 c 0
 337 617 391 637 417 695 c 1
 468 695 l 1x09
EndSplineSet
Substitution2: "'ss07' Style Set 7 in Latin lookup 35 subtable" gbreve.SngBowl
Substitution2: "'ss07' Style Set 7 in Cyrillic lookup 34 subtable" gbreve.SngBowl
Substitution2: "'ss07' Style Set 7 lookup 33 subtable" gbreve.SngBowl
Substitution2: "'smcp' Lowercase to Small Capitals in Latin lookup 14 subtable" gbreve.sc
Substitution2: "'smcp' Lowercase to Small Capitals in Cyrillic lookup 13 subtable" gbreve.sc
Substitution2: "'smcp' Lowercase to Small Capitals lookup 12 subtable" gbreve.sc
AlternateSubs2: "'aalt' Access All Alternates lookup 1 subtable" gbreve.sc gbreve.SngBowl
EndChar

StartChar: Gdotaccent
Encoding: 288 288 224
Width: 687
Flags: MW
HStem: -16 53<316 372 316 373.5> 279 44 633 54<392 491> 780 113
VStem: 48 110<212 367.5 171.5 396> 420 112<820.5 851.5>
LayerCount: 2
Fore
SplineSet
675 282 m 1
 618 277 l 2
 605 276 596 271 593 258 c 2
 548 23 l 1
 528 18 415 -16 332 -16 c 0
 104 -16 48 156 48 268 c 0
 48 524 264 687 479 687 c 0
 544 687 588 677 665 653 c 1
 634 492 l 1
 566 492 l 1
 569 584 l 2
 570 599 562 609 550 612 c 0
 545 614 515 633 467 633 c 0
 317 633 158 483 158 252 c 0
 158 91 280 37 352 37 c 0
 392 37 437 50 453 54 c 1
 492 258 l 2
 494 269 490 276 472 277 c 2
 417 282 l 1
 417 324 l 1
 675 324 l 1
 675 282 l 1
532 836 m 0
 532 805 507 780 476 780 c 0
 445 780 420 805 420 836 c 0
 420 867 444 894 476 894 c 0
 507 894 532 868 532 836 c 0
EndSplineSet
Substitution2: "'c2sc' Capitals to Small Capitals in Latin lookup 17 subtable" gdotaccent.sc
Substitution2: "'c2sc' Capitals to Small Capitals in Cyrillic lookup 16 subtable" gdotaccent.sc
Substitution2: "'c2sc' Capitals to Small Capitals lookup 15 subtable" gdotaccent.sc
EndChar

